<?xml version="1.0" encoding="UTF-8"?>
<svg width="67px" height="67px" viewBox="0 0 67 67" version="1.1" xmlns="http://www.w3.org/2000/svg" xmlns:xlink="http://www.w3.org/1999/xlink">
    <!-- Generator: Sketch 53 (72520) - https://sketchapp.com -->
    <title>p-vw</title>
    <desc>Created with Sketch.</desc>
    <g id="p-vw" stroke="none" stroke-width="1" fill="none" fill-rule="evenodd" opacity="0.646647135">
        <path d="M53.9495593,48.0777774 L56.3862836,49.3822234 L56.4559043,49.2517788 C59.8673183,44.8166623 61.6774563,39.5336558 61.6774563,33.9897602 C61.747077,26.8805293 58.8926285,20.2278545 53.6014558,15.2709596 C48.3102831,10.2488424 41.278593,7.5095057 33.6899373,7.5095057 C18.2341432,7.5095057 5.5631769,19.3799646 5.5631769,33.8593156 C5.5631769,48.3386666 18.1645225,60.2091255 33.6899373,60.2091255 C36.4051444,60.2091255 38.98111,59.883014 41.4178343,59.1655686 L41.5570757,59.1003463 L41.0001102,56.4914543 L40.9304895,56.6218989 C38.5633859,57.2741219 36.1266616,57.6654557 33.6899373,57.6654557 C19.7657985,57.6654557 8.41762535,47.0342205 8.41762535,33.9897602 C8.41762535,20.9452999 19.7657985,10.3140647 33.6899373,10.3140647 C47.6140761,10.3140647 58.9622492,20.8800776 58.9622492,33.9245379 C58.9622492,38.9466551 57.2913526,43.7731054 54.0888007,47.9473328 L53.9495593,48.0777774 Z" id="Shape" fill="#2E3B4E" fill-rule="nonzero" transform="translate(33.620939, 33.859316) rotate(-360.000000) translate(-33.620939, -33.859316) "></path>
        <path d="M57.3282862,11.2897196 C50.9971284,5.27102804 42.5092025,2 33.5342645,2 C30.4034722,2 27.4118262,2.39252336 24.5593265,3.17757009 L24.9071923,5.6635514 L25.1159118,5.59813084 C27.8988383,4.87850467 30.751338,4.48598131 33.5342645,4.48598131 C50.5796894,4.48598131 64.494322,17.5046729 64.494322,33.5981308 C64.494322,49.6915888 50.5796894,62.6448598 33.5342645,62.6448598 C16.4888396,62.5794393 2.64378019,49.4953271 2.64378019,33.4672897 C2.64378019,27.3831776 4.59182875,21.6261682 8.34877954,16.6542056 L6.1920115,15.2803738 C2.15676805,20.7102804 0,26.9906542 0,33.5327103 C0,50.8691589 15.0278032,65 33.4646913,65 C51.9711527,65 66.9989558,50.8691589 66.9989558,33.5327103 C67.068529,25.1588785 63.659444,17.2429907 57.3282862,11.2897196 Z" id="Shape" fill="#2E3B4E" fill-rule="nonzero"></path>
        <path d="M31.075,45 C31,45.24 31,45.56 31,45.8 C31,47.56 32.35,49 34,49 C35.65,49 37,47.56 37,45.8 C37,45.48 36.925,45.24 36.925,45 L31.075,45 Z" id="Shape" fill="#2E3B4E" fill-rule="nonzero"></path>
        <path d="M45.7037037,41.3837209 C45.7037037,41.3837209 43.1111111,38.622093 43.1111111,31.4273256 C43.1111111,25.8313953 39.2592593,23.505814 36.1481481,22.7790698 L36.1481481,21.1075581 C36.1481481,19.9447674 35.1851852,19 34,19 C32.8148148,19 31.8518519,19.9447674 31.8518519,21.1075581 L31.8518519,22.7790698 C28.6666667,23.505814 24.8888889,25.8313953 24.8888889,31.4273256 C24.8888889,38.622093 22.2962963,41.3110465 22.2962963,41.3837209 C22.1481481,41.5290698 22,41.8197674 22,42.0377907 L22,44 L46,44 L46,42.0377907 C46,41.8197674 45.8518519,41.6017442 45.7037037,41.3837209 Z" id="Shape" fill="#2E3B4E" fill-rule="nonzero"></path>
    </g>
</svg>