<?xml version="1.0" encoding="UTF-8"?>
<svg width="94px" height="92px" viewBox="0 0 94 92" version="1.1" xmlns="http://www.w3.org/2000/svg" xmlns:xlink="http://www.w3.org/1999/xlink">
    <!-- Generator: Sketch 53 (72520) - https://sketchapp.com -->
    <title>value-02</title>
    <desc>Created with Sketch.</desc>
    <defs>
        <linearGradient x1="50%" y1="1.18768064%" x2="50%" y2="100%" id="linearGradient-1">
            <stop stop-color="#F19F4D" offset="0%"></stop>
            <stop stop-color="#67BACA" offset="51.5963692%"></stop>
            <stop stop-color="#F9CF00" offset="100%"></stop>
        </linearGradient>
    </defs>
    <g id="Symbols" stroke="none" stroke-width="1" fill="none" fill-rule="evenodd">
        <g id="value-02" fill-rule="nonzero">
            <g id="Group-19">
                <rect id="Rectangle-23-Copy-5" fill="url(#linearGradient-1)" opacity="0.202232143" x="0" y="0" width="80" height="80" rx="40"></rect>
                <g id="noun_Cost-per-click_850451-Copy" transform="translate(10.000000, 9.000000)" fill="#2E3B4E">
                    <g id="Group">
                        <path d="M34.2533898,49.4733333 C35.0084746,49.4733333 35.6262712,48.8583333 35.6262712,48.1066667 L35.6262712,44.9633333 L35.9008475,44.9633333 C39.6076271,44.9633333 42.6966102,41.9566667 42.6966102,38.2666667 C42.6966102,34.5766667 39.6762712,31.57 35.9008475,31.57 L32.6059322,31.57 C30.409322,31.57 28.5559322,29.7933333 28.5559322,27.6066667 C28.5559322,25.42 30.340678,23.6433333 32.6059322,23.6433333 L39.1271186,23.6433333 C39.8822034,23.6433333 40.5,23.0283333 40.5,22.2766667 C40.5,21.525 39.8822034,20.91 39.1271186,20.91 L35.5576271,20.91 L35.5576271,17.7666667 C35.5576271,17.015 34.9398305,16.4 34.1847458,16.4 C33.429661,16.4 32.8118644,17.015 32.8118644,17.7666667 L32.8118644,20.91 L32.5372881,20.91 C28.8305085,20.91 25.7415254,23.9166667 25.7415254,27.6066667 C25.7415254,31.2966667 28.7618644,34.3033333 32.5372881,34.3033333 L35.8322034,34.3033333 C38.0288136,34.3033333 39.8822034,36.08 39.8822034,38.2666667 C39.8822034,40.4533333 38.0974576,42.23 35.8322034,42.23 L29.3110169,42.23 C28.5559322,42.23 27.9381356,42.845 27.9381356,43.5966667 C27.9381356,44.3483333 28.5559322,44.9633333 29.3110169,44.9633333 L32.8805085,44.9633333 L32.8805085,48.1066667 C32.8805085,48.8583333 33.4983051,49.4733333 34.2533898,49.4733333 Z" id="Shape"></path>
                        <path d="M44.2754237,61.705 C41.0491525,62.7983333 37.6855932,63.345 34.2533898,63.345 C17.1610169,63.345 3.22627119,49.7466667 3.22627119,33.0733333 C3.22627119,16.4 17.0923729,2.73333333 34.2533898,2.73333333 C51.3457627,2.73333333 65.2118644,16.3316667 65.2118644,33.005 C65.2118644,35.465 64.8686441,37.9933333 64.3194915,40.385 C64.1135593,41.1366667 64.5940678,41.8883333 65.2805085,42.025 C66.0355932,42.23 66.790678,41.7516667 66.9279661,41.0683333 C67.6144068,38.4716667 67.9576271,35.7383333 67.9576271,33.005 C67.9576271,14.8283333 52.8559322,0 34.2533898,0 C15.6508475,0 0.480508475,14.8283333 0.480508475,33.005 C0.480508475,51.25 15.6508475,66.01 34.2533898,66.01 C37.9601695,66.01 41.6669492,65.395 45.1677966,64.2333333 C45.8542373,63.96 46.2661017,63.2083333 46.0601695,62.525 C45.7855932,61.8416667 44.9618644,61.5 44.2754237,61.705 Z" id="Shape"></path>
                        <path d="M80.1762712,64.3016667 L52.5127119,33.21 C52.1008475,32.8 51.5516949,32.6633333 51.0025424,32.8683333 C50.4533898,33.0733333 50.1101695,33.5516667 50.1101695,34.1666667 L50.1101695,75.3716667 C50.1101695,75.85 50.3847458,76.3283333 50.7966102,76.5333333 C51.2084746,76.8066667 51.7576271,76.7383333 52.1694915,76.5333333 L60.8186441,71.2033333 L64.5940678,81.1116667 C64.8,81.6583333 65.3491525,82 65.8983051,82 C66.0355932,82 66.2415254,82 66.3788136,81.9316667 L72.2822034,79.745 C72.6254237,79.6083333 72.9,79.335 73.0372881,79.0616667 C73.1745763,78.72 73.1745763,78.3783333 73.0372881,78.0366667 L69.2618644,68.1283333 L79.2838983,66.5566667 C79.7644068,66.4883333 80.1762712,66.1466667 80.3822034,65.6683333 C80.5881356,65.19 80.5194915,64.6433333 80.1762712,64.3016667 Z M67.2025424,65.6683333 C66.790678,65.7366667 66.4474576,65.9416667 66.2415254,66.3516667 C66.0355932,66.6933333 65.9669492,67.1716667 66.1728814,67.5133333 L70.0855932,77.695 L66.7220339,78.925 L62.809322,68.7433333 C62.6720339,68.3333333 62.3288136,68.06 61.9855932,67.9233333 C61.8483051,67.855 61.7110169,67.855 61.5737288,67.855 C61.2991525,67.855 61.0932203,67.9233333 60.8872881,68.06 L52.9245763,72.98 L52.9245763,37.7883333 L76.5381356,64.3016667 L67.2025424,65.6683333 Z" id="Shape"></path>
                    </g>
                </g>
            </g>
        </g>
    </g>
</svg>