<?xml version="1.0" encoding="UTF-8"?>
<svg width="67px" height="67px" viewBox="0 0 67 67" version="1.1" xmlns="http://www.w3.org/2000/svg" xmlns:xlink="http://www.w3.org/1999/xlink">
    <!-- Generator: Sketch 53 (72520) - https://sketchapp.com -->
    <title>p-rolmes</title>
    <desc>Created with Sketch.</desc>
    <g id="p-rolmes" stroke="none" stroke-width="1" fill="none" fill-rule="evenodd" opacity="0.650948661">
        <g transform="translate(6.000000, 0.000000)" fill="#2E3B4E" fill-rule="nonzero" id="Group">
            <g>
                <path d="M3.44074074,33.1815324 C4.45185185,33.1815324 5.26851852,32.3646365 5.26851852,31.3532417 C5.26851852,16.0785855 15.6259259,3.65658153 28.3555556,3.65658153 C41.0851852,3.65658153 51.4425926,16.0785855 51.4425926,31.3532417 C51.4425926,32.3646365 52.2592593,33.1815324 53.2703704,33.1815324 C54.2814815,33.1815324 55.0981481,32.3646365 55.0981481,31.3532417 C55.1111111,14.0687623 43.1074074,0 28.3555556,0 C13.6037037,0 1.6,14.0687623 1.6,31.3532417 C1.6,32.3646365 2.42962963,33.1815324 3.44074074,33.1815324 Z" id="Shape"></path>
                <path d="M42.5681006,34.1451723 C42.6718043,33.2634434 42.7495821,32.3687479 42.7495821,31.4351526 C42.7495821,22.0991998 36.5403228,14.4878049 28.9051376,14.4878049 C21.2699525,14.4878049 15.0606932,22.0991998 15.0606932,31.4351526 C15.0606932,32.4465475 15.8773599,33.2634434 16.888471,33.2634434 C17.8995821,33.2634434 18.7162488,32.4465475 18.7162488,31.4351526 C18.7162488,24.109023 23.2921747,18.157353 28.9051376,18.157353 C34.5181006,18.157353 39.0940265,24.1219896 39.0940265,31.4351526 C39.0940265,38.7223825 34.6736562,44.6610858 29.2162488,44.7129522 C27.8940265,44.622186 14.3736562,43.9349562 6.02550802,53.9581389 C5.37735987,54.7361349 5.48106357,55.8901624 6.25884135,56.5384925 C7.06254506,57.1868226 8.19032283,57.0701231 8.83847098,56.3050937 C16.2014339,47.4618717 28.8792117,48.3565672 29.0088414,48.3695338 C29.0606932,48.3695338 29.1125451,48.3695338 29.1643969,48.3695338 C33.6236562,48.3695338 37.4995821,45.8280799 39.9625451,41.8214002 C41.6218043,47.7082371 45.4588414,52.8689444 52.4588414,54.1526379 C53.275508,54.3082371 54.338471,53.8414395 54.5847673,52.687412 C54.7662488,51.6889837 54.1051376,50.7424218 53.1199525,50.5608894 C46.7681006,49.4068619 42.7495821,43.2866261 42.5681006,34.1451723 Z" id="Shape"></path>
                <path d="M54.1419679,43.3688533 C48.8401161,42.8372227 49.3327086,31.5951795 49.3327086,31.4914466 L49.3327086,31.3877138 C49.3327086,18.0710144 40.2197457,7.24390244 29.0327086,7.24390244 C17.8586346,7.24390244 8.77159753,18.0321146 8.73270864,31.3099142 C8.68085679,31.7637453 7.99381976,36.0816235 1.22715309,38.4415449 C0.267893829,38.7786765 -0.224698763,39.8160046 0.0993753108,40.7755331 C0.436412348,41.7350616 1.47344938,42.2277924 2.43270864,41.9036274 C7.96789383,39.9845704 11.8438198,36.0945901 12.3882642,31.4006804 C12.3882642,20.1067708 19.8549309,10.9134506 29.0327086,10.9134506 C38.1975235,10.9134506 45.6512272,20.0808376 45.6771531,31.348814 C45.6123383,32.5028415 45.1067827,46.1566726 53.7790049,47.0254349 C54.6864123,47.1291677 55.6456716,46.4938042 55.7882642,45.3916431 C55.8790049,44.3672816 55.1401161,43.4596195 54.1419679,43.3688533 Z" id="Shape"></path>
                <path d="M29.1368275,41.1945757 C33.0646053,41.0908429 36.2534942,37.1100963 36.2534942,31.4696248 C36.2534942,26.1014519 32.9349757,21.7317073 28.8516423,21.7317073 C24.768309,21.7317073 21.4497905,26.1014519 21.4497905,31.4696248 C21.4497905,32.4810197 22.2664571,33.2979156 23.2775683,33.2979156 C24.2886794,33.2979156 25.105346,32.4810197 25.105346,31.4696248 C25.105346,27.9945757 27.0757164,25.4012555 28.8386794,25.4012555 C30.6016423,25.4012555 32.5720127,27.9945757 32.5720127,31.4696248 C32.5720127,34.9317073 30.7960868,37.4212947 29.1886794,37.5379942 C27.5294201,37.4990944 9.5757164,37.3564617 1.13682751,49.1949686 C0.553494178,50.0118645 0.747938623,51.165892 1.56460529,51.749389 C2.25164233,52.2550865 3.41830899,52.2550865 4.11830899,51.3214912 C11.7664571,40.598112 28.981272,41.1816091 29.1368275,41.1945757 Z" id="Shape"></path>
                <path d="M39.8031663,51.5030906 C40.5679811,50.841794 40.6457589,49.6877665 39.9846478,48.922737 C39.3235366,48.1577075 38.1698329,48.0799079 37.4050181,48.7412046 C36.3809441,49.6229335 34.4753885,50.7380612 31.1827959,50.9973932 C20.7216848,51.8142891 12.8272403,53.7592792 8.30316627,60.5926781 C7.74575887,61.4355071 7.9790922,62.576568 8.82168479,63.1341319 C9.46983294,63.5879629 10.6624255,63.6138961 11.3624255,62.6154679 C15.0698329,57.0138961 22.0827959,55.3801044 31.4679811,54.6539747 C35.7457589,54.3168431 38.3642774,52.7478844 39.8031663,51.5030906 Z" id="Shape"></path>
                <path d="M52.3395902,57.8925096 C47.3747754,57.1534133 43.0710717,53.6005646 43.0062569,53.5486982 C42.2284791,52.9003681 41.0747754,53.004101 40.4266272,53.7691304 C39.7784791,54.5471265 39.8821828,55.701154 40.6469976,56.3494841 C40.854405,56.5180499 45.780331,60.6154958 51.7951458,61.5101913 C52.7932939,61.6398573 53.6747754,61.0304271 53.8692198,59.9671658 C54.0247754,58.9817041 53.3377384,58.0481088 52.3395902,57.8925096 Z" id="Shape"></path>
                <path d="M31.2976545,57.9512195 C24.4272841,57.9512195 18.5680249,59.9091763 16.3513582,62.943361 C15.7550619,63.7602568 15.9365434,64.9013177 16.7532101,65.4977814 C17.5698767,66.0942451 18.7106175,65.9127126 19.3069138,65.0958168 C20.5643212,63.3582922 25.1013582,61.607801 31.2976545,61.607801 C37.4939508,61.607801 42.0180249,63.3582922 43.2883953,65.0958168 C43.7939508,65.7830466 44.8569138,66.1720447 45.842099,65.4977814 C46.6587656,64.9013177 46.8402471,63.7602568 46.2439508,62.943361 C44.0272841,59.9091763 38.1550619,57.9512195 31.2976545,57.9512195 Z" id="Shape"></path>
            </g>
        </g>
    </g>
</svg>