<?xml version="1.0" encoding="UTF-8"?>
<svg width="104px" height="97px" viewBox="0 0 104 97" version="1.1" xmlns="http://www.w3.org/2000/svg" xmlns:xlink="http://www.w3.org/1999/xlink">
    <!-- Generator: Sketch 53 (72520) - https://sketchapp.com -->
    <title>support-03</title>
    <desc>Created with Sketch.</desc>
    <defs>
        <linearGradient x1="100%" y1="50%" x2="0%" y2="50%" id="linearGradient-1">
            <stop stop-color="#F19F4D" offset="0%"></stop>
            <stop stop-color="#67BACA" offset="52.2782695%"></stop>
            <stop stop-color="#F9CF00" offset="100%"></stop>
        </linearGradient>
    </defs>
    <g id="support-03" stroke="none" stroke-width="1" fill="none" fill-rule="evenodd">
        <rect id="Rectangle-23-Copy-6" fill="url(#linearGradient-1)" fill-rule="nonzero" opacity="0.203125" x="0" y="0" width="96" height="96" rx="48"></rect>
        <g id="noun_installation_485267-copy" transform="translate(8.000000, 0.000000)" fill="#2E3B4E" fill-rule="nonzero">
            <path d="M89.3658537,77.3658537 C92.9756098,77.3658537 96,74.4390244 96,70.7317073 L96,6.63414634 C96,3.02439024 93.0731707,0 89.3658537,0 L6.63414634,0 C3.02439024,0 0,2.92682927 0,6.63414634 L0,70.8292683 C0,74.4390244 2.92682927,77.4634146 6.63414634,77.4634146 L45.6585366,77.4634146 L45.6585366,92.4878049 L32,92.4878049 C31.0243902,92.4878049 30.2439024,93.2682927 30.2439024,94.2439024 C30.2439024,95.2195122 31.0243902,96 32,96 L62.8292683,96 C63.804878,96 64.5853659,95.2195122 64.5853659,94.2439024 C64.5853659,93.2682927 63.804878,92.4878049 62.8292683,92.4878049 L49.1707317,92.4878049 L49.1707317,77.3658537 L89.3658537,77.3658537 Z M6.63414634,3.41463415 L89.2682927,3.41463415 C91.0243902,3.41463415 92.4878049,4.87804878 92.4878049,6.63414634 L92.4878049,18.5365854 L3.41463415,18.5365854 L3.41463415,6.63414634 C3.41463415,4.7804878 4.87804878,3.41463415 6.63414634,3.41463415 Z M3.41463415,70.7317073 L3.41463415,21.8536585 L92.4878049,21.8536585 L92.4878049,70.7317073 C92.4878049,72.4878049 91.0243902,73.9512195 89.2682927,73.9512195 L6.63414634,73.9512195 C4.87804878,73.9512195 3.41463415,72.4878049 3.41463415,70.7317073 Z M9.75609756,12.097561 C9.46341463,11.804878 9.26829268,11.3170732 9.26829268,10.9268293 C9.26829268,10.5365854 9.46341463,10.0487805 9.75609756,9.75609756 C10.3414634,9.17073171 11.5121951,9.17073171 12.195122,9.75609756 C12.4878049,10.0487805 12.6829268,10.5365854 12.6829268,10.9268293 C12.6829268,11.4146341 12.4878049,11.804878 12.195122,12.097561 C11.902439,12.3902439 11.4146341,12.5853659 11.0243902,12.5853659 C10.5365854,12.6829268 10.1463415,12.4878049 9.75609756,12.097561 Z M19.0243902,12.097561 C18.7317073,11.804878 18.5365854,11.3170732 18.5365854,10.9268293 C18.5365854,10.5365854 18.7317073,10.0487805 19.0243902,9.75609756 C19.6097561,9.17073171 20.7804878,9.17073171 21.4634146,9.75609756 C21.7560976,10.0487805 21.9512195,10.5365854 21.9512195,10.9268293 C21.9512195,11.4146341 21.7560976,11.804878 21.4634146,12.097561 C21.1707317,12.3902439 20.6829268,12.5853659 20.2926829,12.5853659 C19.804878,12.6829268 19.3170732,12.4878049 19.0243902,12.097561 Z M28.2926829,12.097561 C28,11.804878 27.804878,11.3170732 27.804878,10.9268293 C27.804878,10.5365854 28,10.0487805 28.2926829,9.75609756 C28.9756098,9.17073171 30.0487805,9.17073171 30.7317073,9.75609756 C31.0243902,10.0487805 31.2195122,10.5365854 31.2195122,10.9268293 C31.2195122,11.3170732 31.0243902,11.804878 30.7317073,12.097561 C30.4390244,12.3902439 29.9512195,12.5853659 29.5609756,12.5853659 C29.1707317,12.5853659 28.5853659,12.4878049 28.2926829,12.097561 Z M59.6097561,40.7804878 L44.097561,56.195122 C43.804878,56.4878049 43.3170732,56.6829268 42.9268293,56.6829268 C42.5365854,56.6829268 42.0487805,56.4878049 41.7560976,56.195122 L35.2195122,49.6585366 C34.5365854,48.9756098 34.5365854,47.902439 35.2195122,47.2195122 C35.902439,46.5365854 36.9756098,46.5365854 37.6585366,47.2195122 L42.9268293,52.5853659 L57.2682927,38.3414634 C57.9512195,37.6585366 59.0243902,37.6585366 59.7073171,38.3414634 C60.2926829,39.0243902 60.2926829,40.097561 59.6097561,40.7804878 Z" id="Shape"></path>
        </g>
    </g>
</svg>