<?xml version="1.0" encoding="UTF-8"?>
<svg width="94px" height="92px" viewBox="0 0 94 92" version="1.1" xmlns="http://www.w3.org/2000/svg" xmlns:xlink="http://www.w3.org/1999/xlink">
    <!-- Generator: Sketch 53 (72520) - https://sketchapp.com -->
    <title>value-03</title>
    <desc>Created with Sketch.</desc>
    <defs>
        <linearGradient x1="100%" y1="50%" x2="0%" y2="50%" id="linearGradient-1">
            <stop stop-color="#F9CF00" offset="0%"></stop>
            <stop stop-color="#67BACA" offset="49.3971279%"></stop>
            <stop stop-color="#F19F4D" offset="100%"></stop>
        </linearGradient>
    </defs>
    <g id="Symbols" stroke="none" stroke-width="1" fill="none" fill-rule="evenodd">
        <g id="value-03" fill-rule="nonzero">
            <g id="Group-18">
                <rect id="Rectangle-23-Copy-4" fill="url(#linearGradient-1)" opacity="0.201060268" x="0" y="0" width="80" height="80" rx="40"></rect>
                <g id="noun_organization_2039247-copy" transform="translate(14.000000, 13.000000)" fill="#2E3B4E" stroke="#2D3B4F" stroke-width="0.1">
                    <path d="M34.097989,24.8914674 C36.3028228,24.8907892 38.3877875,23.8775188 39.7644902,22.137609 L57.486436,27.9628882 C57.8903029,31.7872753 61.1438306,34.6506802 64.9489229,34.530566 C68.7540153,34.4104518 71.8242535,31.3474264 71.9910062,27.5050267 C72.1577588,23.662627 69.3646504,20.3398845 65.5845647,19.8837844 C61.804479,19.4276844 58.3153804,21.9924243 57.5817582,25.7664263 L40.8466704,20.2655503 C41.6282163,18.3088952 41.5301681,16.105786 40.5779675,14.2278851 L57.5805632,8.75197949 C58.3104365,12.5223304 61.793725,15.0868863 65.5699031,14.6340959 C69.3460813,14.1813055 72.1384059,10.8642594 71.9744343,7.02605286 C71.8104628,3.18784635 68.7456347,0.126194782 64.9448836,0.00378786955 C61.1441325,-0.118619043 57.8925099,2.73960504 57.4868972,6.55946753 L39.2969567,12.4177759 C36.8400519,9.86341628 32.9222572,9.46046343 30.0062377,11.4622072 C27.0902183,13.4639511 26.0181978,17.2922349 27.4640318,20.5406587 L11.4713647,31.2969004 C8.45397669,29.141069 4.31596061,29.614407 1.85205383,32.3972307 C-0.611852941,35.1800545 -0.618036592,39.3873228 1.8376792,42.1775266 C4.29339499,44.9677305 8.43000144,45.4534814 11.4537132,43.3067126 L27.2694149,54.5667778 C27.3065151,54.5884717 27.3449821,54.6076872 27.3845687,54.6243008 C26.0407589,57.8768924 27.1746661,61.6352954 30.0857856,63.5776452 C32.996905,65.5199951 36.8635376,65.0980397 39.2969567,62.5724544 L57.4869496,68.4307522 C57.8923793,72.2558401 61.1480205,75.1184316 64.9539039,74.9962302 C68.7597873,74.8740287 71.8289351,71.8083573 71.9931275,67.9649797 C72.15732,64.121602 69.3610346,60.800175 65.5797257,60.3471426 C61.7984168,59.8941102 58.3107522,62.4626674 57.5806157,66.2382402 L40.5780199,60.7623346 C41.5302004,58.8844289 41.6282293,56.6813244 40.8466704,54.72468 L57.5817163,49.223804 C58.3151333,52.9937937 61.8008673,55.5554614 65.5770108,55.0995502 C69.3531544,54.6436389 72.1432217,51.3242645 71.9766415,47.485838 C71.8100613,43.6474115 68.7431442,40.5874726 64.9419953,40.4671978 C61.1408464,40.346923 57.8904042,43.20697 57.4863941,47.0273421 L39.7645007,52.8526213 C38.3922274,51.1179129 36.3155574,50.1051937 34.1175199,50.0987868 C31.9194823,50.0923799 29.8370627,51.092976 28.4549043,52.8196558 L13.0039824,41.8193333 C15.0689209,39.1761664 15.076901,35.449123 13.0233005,32.7969554 L28.58924,22.3277884 C29.9667685,23.9541296 31.9792612,24.8907098 34.097989,24.8914674 Z M64.7165289,21.949844 C67.5751877,21.9500077 69.8924857,24.2913133 69.8924259,27.1793639 C69.8923661,30.0674144 67.574971,32.408622 64.7163122,32.4086649 C61.8576534,32.4087078 59.5401895,30.0675698 59.5400448,27.1795192 C59.5434122,24.2926473 61.8590367,21.9532285 64.7165289,21.949844 L64.7165289,21.949844 Z M64.7165289,2.11804317 C67.5750613,2.11832389 69.8921604,4.45962595 69.8919752,7.34754891 C69.89179,10.2354719 67.5743905,12.5764705 64.715858,12.576377 C61.8573256,12.5762834 59.5400763,10.235133 59.5400763,7.34721008 C59.5436574,4.46052247 61.8592189,2.12138055 64.7165289,2.11804317 L64.7165289,2.11804317 Z M64.7165289,62.4138745 C67.5750613,62.4141552 69.8921604,64.7554573 69.8919752,67.6433802 C69.89179,70.5313032 67.5743905,72.8723018 64.715858,72.8722083 C61.8573256,72.8721147 59.5400763,70.5309644 59.5400763,67.6430414 C59.5436574,64.7563538 61.8592189,62.4172119 64.7165289,62.4138745 L64.7165289,62.4138745 Z M64.7165289,42.5815866 C67.5752572,42.5817328 69.8925982,44.9231338 69.8924574,47.8112547 C69.8923165,50.6993756 67.5747471,53.0405459 64.7160187,53.0404075 C61.8572904,53.0402691 59.5399431,50.6988744 59.5400763,47.8107535 C59.5436401,44.9240535 61.8592066,42.5848922 64.7165289,42.5815548 L64.7165289,42.5815866 Z M34.097989,52.2166919 C36.9565215,52.2169727 39.2736206,54.5582747 39.2734354,57.4461977 C39.2732501,60.3341206 36.9558507,62.6751193 34.0973182,62.6750257 C31.2387857,62.6749322 28.9215364,60.3337818 28.9215364,57.4458588 C28.9246391,54.5589707 31.2404806,52.219546 34.097989,52.2166919 L34.097989,52.2166919 Z M2.10880788,37.2949709 C2.10880788,35.1797647 3.37001006,33.2728353 5.30431783,32.463381 C7.2386256,31.6539266 9.46511016,32.1013554 10.9455652,33.5970321 C12.4260203,35.0927087 12.8688956,37.3420852 12.0676791,39.2962809 C11.2664626,41.2504766 9.37894013,42.5246461 7.28526049,42.5246461 C4.42775432,42.5213081 2.11211185,40.181857 2.10880788,37.2949709 Z M34.097989,12.3152363 C36.9565215,12.315517 39.2736206,14.6568191 39.2734354,17.5447421 C39.2732501,20.432665 36.9558507,22.7736637 34.0973182,22.7735701 C31.2387857,22.7734765 28.9215364,20.4323262 28.9215364,17.5444032 C28.9246391,14.6575151 31.2404806,12.3180903 34.097989,12.3152363 L34.097989,12.3152363 Z" id="Shape"></path>
                </g>
            </g>
        </g>
    </g>
</svg>