<?xml version="1.0" encoding="UTF-8"?>
<svg width="67px" height="67px" viewBox="0 0 67 67" version="1.1" xmlns="http://www.w3.org/2000/svg" xmlns:xlink="http://www.w3.org/1999/xlink">
    <!-- Generator: Sketch 53 (72520) - https://sketchapp.com -->
    <title>p-municipal</title>
    <desc>Created with Sketch.</desc>
    <g id="p-municipal" stroke="none" stroke-width="1" fill="none" fill-rule="evenodd" opacity="0.647823661">
        <g transform="translate(1.000000, 0.000000)" fill="#2E3B4E" fill-rule="nonzero" id="Shape">
            <path d="M2.70833333,67 L62.2916667,67 C65,67 65,67 65,64.32 C65,61.64 65,61.64 62.2916667,61.64 L2.70833333,61.64 C0,61.64 0,61.64 0,64.32 C0,67 0,67 2.70833333,67 Z M54.1666667,56.28 L55.5208333,56.28 C58.2291667,56.28 58.2291667,56.28 58.2291667,53.6 L58.2291667,26.8 C58.2291667,24.12 58.2291667,24.12 55.5208333,24.12 L54.1666667,24.12 C51.4583333,24.12 51.4583333,24.12 51.4583333,26.8 L51.4583333,53.6 C51.4583333,56.28 51.4583333,56.28 54.1666667,56.28 Z M39.2708333,56.28 L40.625,56.28 C43.3333333,56.28 43.3333333,56.28 43.3333333,53.6 L43.3333333,26.8 C43.3333333,24.12 43.3333333,24.12 40.625,24.12 L39.2708333,24.12 C36.5625,24.12 36.5625,24.12 36.5625,26.8 L36.5625,53.6 C36.5625,56.28 36.5625,56.28 39.2708333,56.28 Z M24.375,56.28 L25.7291667,56.28 C28.4375,56.28 28.4375,56.28 28.4375,53.6 L28.4375,26.8 C28.4375,24.12 28.4375,24.12 25.7291667,24.12 L24.375,24.12 C21.6666667,24.12 21.6666667,24.12 21.6666667,26.8 L21.6666667,53.6 C21.6666667,56.28 21.6666667,56.28 24.375,56.28 Z M9.47916667,56.28 L10.8333333,56.28 C13.5416667,56.28 13.5416667,56.28 13.5416667,53.6 L13.5416667,26.8 C13.5416667,24.12 13.5416667,24.12 10.8333333,24.12 L9.47916667,24.12 C6.77083333,24.12 6.77083333,24.12 6.77083333,26.8 L6.77083333,53.6 C6.77083333,56.28 6.77083333,56.28 9.47916667,56.28 Z M32.5,14.74 C30.265625,14.74 28.4375,12.931 28.4375,10.72 C28.4375,8.509 30.265625,6.7 32.5,6.7 C34.734375,6.7 36.5625,8.509 36.5625,10.72 C36.5625,12.931 34.734375,14.74 32.5,14.74 Z M2.70833333,18.76 L62.2916667,18.76 C65,18.76 65,18.76 65,16.08 L65,14.74 C65,13.4 65,13.4 62.2916667,12.06 L32.5,0 L2.70833333,12.06 C0,13.4 0,13.4 0,14.74 L0,16.08 C0,18.76 0,18.76 2.70833333,18.76 Z"></path>
        </g>
    </g>
</svg>