<?xml version="1.0" encoding="UTF-8"?>
<svg width="24px" height="24px" viewBox="0 0 24 24" version="1.1" xmlns="http://www.w3.org/2000/svg" xmlns:xlink="http://www.w3.org/1999/xlink">
    <!-- Generator: Sketch 53 (72520) - https://sketchapp.com -->
    <title>tel</title>
    <desc>Created with Sketch.</desc>
    <g id="tel" stroke="none" stroke-width="1" fill="none" fill-rule="evenodd" opacity="0.801641555">
        <g id="noun_call_1975558-copy" fill="#2E3B4E" fill-rule="nonzero">
            <path d="M24,18.9545391 C24,19.2613594 23.9431875,19.6619297 23.8295391,20.15625 C23.7159141,20.6505469 23.5965703,21.0397734 23.4716016,21.3238594 C23.2329609,21.8920547 22.5397734,22.4943281 21.3920391,23.1306797 C20.323875,23.7102187 19.2670547,24 18.2216016,24 C17.9147812,24 17.6164687,23.980125 17.3267109,23.9403516 C17.0369297,23.9005781 16.7102344,23.8295391 16.3466016,23.7272812 C15.9829453,23.625 15.7130859,23.5425937 15.5369297,23.4801094 C15.3607969,23.417625 15.0454453,23.3011406 14.5908984,23.1306797 C14.136375,22.9602187 13.8579609,22.8579609 13.7556797,22.8238828 C12.6420469,22.4261484 11.6477109,21.9545391 10.7727187,21.4091016 C9.3181875,20.511375 7.81535156,19.2869297 6.26421094,17.7357891 C4.71307031,16.1846484 3.488625,14.6818125 2.59089844,13.2272812 C2.04546094,12.3522656 1.573875,11.3579531 1.17614062,10.2442969 C1.14203906,10.1420156 1.03978125,9.86360156 0.869320312,9.40907812 C0.698859375,8.95453125 0.582375,8.63917969 0.519867187,8.46304687 C0.457382812,8.28691406 0.375,8.01703125 0.27271875,7.653375 C0.170460937,7.28974219 0.099421875,6.96304687 0.059671875,6.67326562 C0.0198515625,6.38353125 0,6.08524219 0,5.77839844 C0,4.73294531 0.28978125,3.676125 0.869296875,2.60796094 C1.50567187,1.46022656 2.10796875,0.767039062 2.67614062,0.528398437 C2.96022656,0.40340625 3.34942969,0.284085937 3.84375,0.170460937 C4.33804687,0.0568125 4.73864062,0 5.04546094,0 C5.20455469,0 5.323875,0.0170390625 5.40339844,0.051140625 C5.60796094,0.119320312 5.90908594,0.551132812 6.30682031,1.34660156 C6.4318125,1.56250781 6.60227344,1.86932812 6.81817969,2.26703906 C7.03408594,2.66477344 7.23295312,3.02557031 7.41478125,3.34942969 C7.59658594,3.67328906 7.77271875,3.97727344 7.94317969,4.26138281 C7.97728125,4.30682812 8.07670312,4.44888281 8.24146875,4.6875 C8.40623437,4.92614062 8.52841406,5.12784375 8.60796094,5.29260937 C8.68750781,5.457375 8.72725781,5.61932812 8.72725781,5.77839844 C8.72725781,6.00567187 8.56535156,6.28978125 8.24146875,6.63067969 C7.91760937,6.97160156 7.56534375,7.28409375 7.18467187,7.56817969 C6.80397656,7.85226562 6.45171094,8.15341406 6.12785156,8.47160156 C5.80396875,8.78976562 5.64203906,9.05114062 5.64203906,9.25567969 C5.64203906,9.35796094 5.67044531,9.48578906 5.72728125,9.63921094 C5.78409375,9.79260937 5.832375,9.90909375 5.87214844,9.98864062 C5.91192187,10.0681875 5.99146875,10.2045469 6.11078906,10.3977187 C6.23010937,10.5909141 6.29547656,10.6988672 6.30682031,10.7216016 C7.17044531,12.2784141 8.15908594,13.613625 9.27271875,14.7272812 C10.386375,15.8409141 11.7215859,16.8295547 13.2784219,17.6931797 C13.3011562,17.7045469 13.4090859,17.7698906 13.6022812,17.8892109 C13.7954531,18.0085078 13.9318125,18.0880781 14.0113594,18.1278516 C14.0909062,18.167625 14.2073906,18.2159062 14.3608125,18.2727187 C14.5142109,18.3295547 14.6420625,18.3579609 14.7443203,18.3579609 C14.9488594,18.3579609 15.2102344,18.1960078 15.5283984,17.8721484 C15.8465859,17.5482891 16.1477344,17.1960234 16.4318203,16.8153516 C16.7159062,16.4346562 17.0283984,16.0823906 17.3693203,15.7585312 C17.7102187,15.4346484 17.9943281,15.2727187 18.2216016,15.2727187 C18.3806719,15.2727187 18.542625,15.3124922 18.7073906,15.3920391 C18.8721562,15.4715859 19.0738594,15.5937422 19.3125,15.7585312 C19.5511406,15.9232969 19.6931719,16.0227187 19.7386406,16.0568203 C20.0227266,16.2272812 20.3266875,16.4034141 20.6505703,16.5852187 C20.9744297,16.7670469 21.3352266,16.9659141 21.7329609,17.1818203 C22.1306953,17.3977266 22.4374922,17.5681875 22.6533984,17.6931797 C23.4488672,18.0909141 23.8806797,18.3920391 23.9488594,18.5966016 C23.9829609,18.676125 24,18.7954453 24,18.9545391 Z" id="Shape"></path>
        </g>
    </g>
</svg>