<?xml version="1.0" encoding="UTF-8"?>
<svg width="860px" height="661px" viewBox="0 0 860 661" version="1.1" xmlns="http://www.w3.org/2000/svg" xmlns:xlink="http://www.w3.org/1999/xlink">
    <!-- Generator: Sketch 53 (72520) - https://sketchapp.com -->
    <title>Group 26</title>
    <desc>Created with Sketch.</desc>
    <defs>
        <polygon id="path-1" points="0.000594470046 0.0357107645 859.651244 0.0357107645 859.651244 531.692415 0.000594470046 531.692415"></polygon>
        <polygon id="path-3" points="0.137613338 0.0190723635 39.747881 0.0190723635 39.747881 45.6360393 0.137613338 45.6360393"></polygon>
        <polygon id="path-5" points="0.0735323296 0.212153257 15.8346806 0.212153257 15.8346806 12.5819497 0.0735323296 12.5819497"></polygon>
        <polygon id="path-7" points="0 0.014506649 1.19055228 0.014506649 1.19055228 1.44177289 0 1.44177289"></polygon>
    </defs>
    <g id="Design" stroke="none" stroke-width="1" fill="none" fill-rule="evenodd">
        <g id="Product" transform="translate(-290.000000, -2849.000000)">
            <g id="Group-26" transform="translate(290.000000, 2849.000000)">
                <g id="Group-79">
                    <g id="Group-78">
                        <g id="Group-3" transform="translate(0.000000, 0.748945)">
                            <mask id="mask-2" fill="white">
                                <use xlink:href="#path-1"></use>
                            </mask>
                            <g id="Clip-2"></g>
                            <path d="M859.651839,66.151017 L859.651839,71.4461298 L850.845756,79.4294696 L844.128244,85.514187 L836.453636,85.2582599 L830.629811,88.4385019 L832.20912,94.8009697 L832.20912,99.3044939 L818.690871,105.944712 L816.32488,115.231495 L816.32488,132.737705 L826.920318,145.460657 L825.598613,150.775609 L814.468152,155.281117 L814.468152,162.431206 L806.47253,166.766096 L801.207507,169.605102 L792.464834,169.605102 L778.690963,183.673159 L780.79935,185.78803 L783.187138,201.691224 L779.392438,210.424489 L774.188843,222.399499 L770.758751,221.865822 L769.968106,216.015208 L761.417645,215.547 L767.302899,225.835668 L774.188843,234.055096 L771.268014,246.266193 L766.492438,254.080899 L761.823866,254.080899 L762.525341,245.198838 L758.475018,238.816531 L752.546171,235.699775 L751.929903,227.694612 L753.78465,217.618225 L750.883636,215.759281 L744.253313,222.655426 L746.641101,227.694612 L747.174143,238.838354 L751.416677,240.951241 L755.914834,249.448419 L756.897691,254.080899 L757.494143,256.878242 L755.639396,262.982799 L762.525341,263.516477 L767.83594,265.865451 L766.514235,272.523525 L771.014373,275.449824 L770.758751,278.096388 L766.234834,282.345969 L774.188843,288.450526 L774.188843,296.414026 L771.973452,297.759132 L768.091562,300.12993 L771.801055,306.746341 L769.157645,313.384575 L748.22041,316.824712 L748.22041,325.042156 L742.140963,336.719576 L732.334189,338.854286 L730.81829,341.415542 L725.168843,351.045544 L725.444281,356.358513 L712.736493,369.873053 L707.429857,369.873053 L703.185341,379.159836 L696.297415,382.875739 L696.170594,385.095758 L694.442668,412.591063 L699.473866,419.231281 L701.606032,428.496241 L701.885433,428.752168 L707.172253,433.277515 L707.172253,440.451411 L719.882023,451.317403 L721.203728,463.528501 L725.957507,472.430401 L735.255018,489.785832 L735.255018,516.088794 L715.637507,516.088794 C715.637507,516.088794 715.665249,515.858658 715.637507,515.789221 C714.892438,513.852904 710.073267,509.641017 710.073267,509.641017 L702.672115,510.216358 L702.672115,501.185502 L697.61912,501.185502 L695.508751,497.749333 L695.508751,492.712131 L691.264235,492.434381 L682.800963,482.61392 L683.867046,477.041057 L679.62253,477.576719 L677.490364,473.604888 L677.767783,472.430401 L679.62253,464.318105 L678.281009,450.527799 L673.780871,448.946605 L660.284419,434.088943 L648.876539,433.277515 L635.378106,441.239032 L630.069488,442.564298 L621.859857,430.375024 L599.961562,428.752168 L596.699903,428.51608 L596.357092,428.752168 L589.534558,433.811193 L585.825065,429.563596 L581.132714,433.725884 L561.451793,433.811193 L561.451793,442.308371 L557.7423,447.347557 L567.806677,457.69971 L562.240456,461.137864 L548.722207,454.775396 L541.558843,463.294397 L529.382115,463.25075 L525.950041,451.317403 L511.898751,447.347557 L511.898751,453.452113 L508.997737,455.309073 L489.635848,450.271871 L481.428198,450.271871 L455.20018,461.927468 L455.20018,467.24242 L447.525571,472.430401 L444.60276,474.394493 L432.939258,476.78513 L428.696724,483.147598 L422.87488,483.681276 L419.698429,491.109115 L415.731332,492.17647 L415.986954,507.569793 C415.2617,510.109225 415.346908,513.142656 415.794742,516.088794 C416.797415,522.705205 419.698429,529.04585 419.698429,529.04585 L416.242576,531.692415 L401.957461,527.446801 C392.745157,525.651344 387.073912,520.721274 383.661654,516.088794 C379.973959,511.113094 378.886078,506.502438 378.886078,506.502438 C377.841793,499.330526 376.240687,496.681978 376.240687,496.681978 C367.499995,491.644776 360.867691,473.071211 360.867691,473.071211 C360.782484,472.835123 360.697276,472.644665 360.590272,472.430401 C354.257184,457.209679 345.237092,449.738194 345.237092,449.738194 L336.496401,449.738194 L333.851009,446.811895 L319.011055,446.280202 L319.011055,456.632355 L309.735341,463.784428 C295.96147,460.346275 286.216124,443.205108 286.216124,443.205108 L286.685756,433.811193 L282.506631,428.752168 L256.492622,397.199724 L228.390041,395.086837 L226.022069,405.972668 L175.934005,399.868111 L151.499304,385.095758 L118.448751,365.111618 L118.448751,355.826819 L78.1694424,355.826819 L76.8695346,341.415542 L76.3146959,335.140367 L69.4267696,332.491818 L69.4267696,324.528318 L63.0718848,324.528318 L62.0910092,318.78682 L56.7189816,317.356406 L46.6328065,304.889381 L33.391977,303.310172 L28.8918387,299.594268 L29.5100876,297.759132 L29.5318848,297.737309 L31.5372304,291.888679 L29.9579217,288.984204 L28.6144194,285.526211 L30.4711475,280.744937 L28.231977,275.193897 L27.0152949,272.204112 L22.005894,259.800573 L19.6161244,257.665863 L19.6161244,254.485621 L23.3275991,250.515774 L23.3275991,246.543944 L17.2283364,239.372032 L17.7613779,223.722781 L12.1971382,217.618225 L12.7301797,209.119063 L6.52391244,199.727132 L7.16395853,187.152975 L9.02068664,179.147812 L0.000594470046,169.071424 L5.05358986,162.175279 L14.3075069,147.06169 L13.2632212,139.631867 L15.9066313,134.850592 L16.9727143,115.765172 L26.9518848,97.6399755 L33.9250184,84.9805095 L33.9250184,78.0843641 L36.7606406,73.9438993 L39.2118387,70.4005979 L44.5224378,53.4280651 L44.5224378,48.6448066 L49.2980138,43.0739274 L46.3771843,37.7569913 L46.7180138,29.1130024 L51.1309631,24.7999356 L46.9102258,24.2007883 L47.1658479,17.8621276 L44.5224378,16.5388454 L44.5224378,12.2892644 L47.1658479,5.13719187 L50.8773226,5.13719187 L53.2651106,11.4996597 L62.0058018,14.9576521 L71.2815161,16.5388454 L71.2815161,22.9211526 L67.3164009,28.4940158 L62.0058018,30.3291523 L63.0718848,38.8263303 L70.7484747,38.8263303 L76.0590737,32.4638624 L76.0590737,25.0340395 L78.1694424,22.3874751 L73.9269078,16.8146119 L76.9745576,11.4996597 L78.1694424,8.59716816 L75.7816544,6.20454694 L78.1694424,0.0345204057 L111.005986,10.1763775 L151.562714,21.0423696 L165.44359,24.1174632 L167.191332,24.500362 L188.19594,27.8948685 L236.342069,35.6441044 L237.855986,35.8365458 L254.742899,37.8641236 L340.546724,48.2619079 L348.437323,48.6249673 L354.257184,48.8808945 L415.176493,51.5492821 L424.581009,50.9084723 L450.147184,49.1784842 L450.147184,42.2843227 L457.310548,46.5120804 L457.310548,55.2632016 L472.150502,60.5781538 L476.395018,55.7968792 L487.503682,59.5107987 L490.703912,64.8277347 L501.554972,68.5436382 L510.042023,65.8732666 L528.571654,68.7975814 L533.091608,61.6455088 L538.636032,61.1118313 L546.057,53.1503147 L545.543774,50.2259999 L547.656124,46.2541693 L567.78488,47.0457579 L571.494373,49.4363952 L579.19276,64.0163068 L586.86935,64.2940572 L588.446677,60.0464602 L595.077,64.0163068 L595.612023,70.9342755 L599.854558,73.8367671 L600.04677,79.4294696 L600.11018,81.5423565 L604.610318,81.8002675 L604.610318,87.3711468 L609.641516,91.0850663 L611.773682,95.8465016 L629.792069,94.8009697 L656.913774,94.245469 L667.681608,104.877357 L676.148843,117.600309 L672.948613,123.087863 L661.180088,123.087863 L655.229442,116.277027 L653.374696,117.344382 L654.119765,123.087863 L654.696401,127.420769 L649.132161,137.497157 L652.841654,152.888496 L644.356585,159.784641 L643.950364,166.766096 L643.56594,173.321005 L634.823267,176.223497 L634.823267,180.748844 L644.632023,181.282522 L657.212991,166.766096 L658.661516,165.099594 L671.648705,165.889198 L683.056585,156.880166 L690.988797,157.138077 L693.099166,152.888496 L691.264235,149.174577 L682.779166,150.241932 L681.457461,144.137375 L689.922714,135.917947 L704.229627,128.232197 L715.381885,128.744051 L713.78276,123.70685 L715.253083,123.087863 L731.523728,116.277027 L735.510641,108.057599 L746.641101,98.2371389 L789.030779,88.3968393 L791.674189,81.26659 L798.221286,79.4294696 L798.284696,79.4096302 L799.88382,76.2274043 L800.139442,71.1902026 L803.872714,69.8669204 L803.595295,64.2940572 L800.416862,57.6538389 L804.788198,35.771076 L833.978659,35.771076 L840.951793,57.6538389 L847.306677,57.9315893 L848.051747,64.7642489 L859.651839,66.151017 Z" id="Fill-1" fill="#3E4B5D" opacity="0.150692894" mask="url(#mask-2)"></path>
                        </g>
                        <path d="M158.816834,21.1647893 C158.816834,21.1647893 146.630198,51.4415658 148.887203,54.6039524 C151.144207,57.7683229 146.630198,73.5842237 146.630198,73.5842237 L144.373194,80.3633172 C144.373194,80.3633172 149.339,87.5927631 148.887203,90.7571336 C148.435406,93.9195202 141.214576,100.698614 141.666373,102.505975 C142.116189,104.313337 132.638355,110.187757 133.541949,112.447455 C134.443562,114.707153 136.700567,115.609842 135.347157,119.226549 C133.993747,122.841272 124.965728,161.252167 124.965728,161.252167" id="Stroke-4" stroke="#FFFFFF" stroke-width="1.3842"></path>
                        <path d="M41.4650783,48.730722 C41.4650783,48.730722 52.2983041,48.2783856 54.1035115,49.1830583 C55.9087189,50.0857471 55.9087189,53.7004701 55.9087189,53.7004701 C55.9087189,53.7004701 60.4207465,51.8931086 61.7761382,52.7977813 C63.1295484,53.7004701 63.5813456,59.1245384 63.5813456,59.1245384 C63.5813456,59.1245384 63.5813456,62.7392613 62.2279355,64.5466228 C60.8725438,66.3539843 63.5813456,68.6136821 65.386553,69.0660185 C67.1917604,69.5183548 70.8021751,67.258657 72.6073825,67.7090094 C74.4125899,68.1613458 81.6354009,71.7780526 81.6354009,71.7780526 L89.7598249,72.6807414 L96.9826359,71.3257163 L101.042866,74.4881029 L112.327889,73.5854141 C112.327889,73.5854141 120.452313,73.5854141 127.221346,75.8451119 C133.992359,78.1048097 144.373788,80.3625236 144.373788,80.3625236" id="Stroke-6" stroke="#FFFFFF" stroke-width="1.3842"></path>
                        <path d="M171.455069,24.3285646 L166.489263,42.8564996 L169.198065,50.9886343 L166.94106,55.0576775 C166.94106,55.0576775 169.198065,60.0274256 172.808479,61.834787 C176.418894,63.6421485 174.613687,74.9406376 177.322488,75.8433264 C177.322488,75.8433264 184.995115,74.4883013 184.995115,75.8433264 C184.995115,77.1983515 178.226083,88.0445042 178.226083,88.0445042 C178.226083,88.0445042 178.226083,91.6592272 176.870691,93.4685726 C175.517281,95.2759341 177.322488,95.7262865 178.67788,96.6309592 C180.03129,97.533648 186.350507,94.8235977 185.89871,97.533648 C185.446912,100.245682 186.800323,105.217414 186.800323,105.217414 L190.862535,113.351533 L189.057327,118.321281 C189.057327,118.321281 192.217926,118.773617 192.217926,120.130626 C192.217926,121.485651 191.766129,122.840676 193.571336,124.195702 C195.376544,125.552711 199.438756,126.005047 199.438756,126.005047 C199.438756,126.005047 206.20977,126.005047 208.014977,126.455399 C209.820184,126.907736 213.430599,126.455399 213.430599,126.455399 C213.430599,126.455399 217.041014,122.38834 218.394424,123.745349 C219.749816,125.100374 221.103226,128.715097 221.103226,128.715097" id="Stroke-8" stroke="#FFFFFF" stroke-width="1.3842"></path>
                        <path d="M13.9321982,130.974597 C13.9321982,130.974597 156.109618,174.357224 212.978604,178.424283" id="Stroke-10" stroke="#FFFFFF" stroke-width="1.3842"></path>
                        <path d="M332.137152,46.4706274 C332.137152,46.4706274 318.597106,188.365366 317.693512,213.672395" id="Stroke-12" stroke="#FFFFFF" stroke-width="1.3842"></path>
                        <path d="M324.915134,129.167037 C319.047714,131.426735 276.620387,125.552314 269.397576,125.552314 C262.176747,125.552314 222.908037,119.225557 222.908037,119.225557 C221.102829,132.78176 208.466378,199.211717 208.466378,199.211717 C208.466378,199.211717 301.552461,215.065313 348.30753,215.702155 C348.30753,215.702155 348.624581,289.575823 344.808083,297.856753 C344.808083,297.856753 174.333889,284.483071 149.843705,273.656758" id="Stroke-14" stroke="#FFFFFF" stroke-width="1.3842"></path>
                        <path d="M321.75612,173.001405 C321.75612,173.001405 403.901972,179.326178 435.947871,175.711455" id="Stroke-16" stroke="#FFFFFF" stroke-width="1.3842"></path>
                        <path d="M422.407627,51.8935054 C422.407627,51.8935054 425.566244,58.6725988 424.664631,60.9322967 C423.761037,63.1919945 421.955829,73.1334745 425.566244,76.2958611 C429.178641,79.4602316 429.630438,85.3326685 430.080253,88.9493753 C430.532051,92.5640983 429.178641,98.8908554 430.080253,101.60289 C430.983848,104.31294 434.594263,112.447058 434.594263,115.159093 C434.594263,117.869143 429.630438,125.100573 429.630438,125.100573 L434.142465,127.812607 C434.142465,127.812607 436.851267,160.349081 436.39947,164.866493 C435.947673,169.385888 433.69265,177.067671 435.495876,180.684378 C437.301083,184.299101 435.947673,191.980883 437.754862,194.692917 C439.560069,197.402967 442.718687,204.632413 443.622281,207.344447 C444.523894,210.056481 442.266889,223.162332 446.329101,226.777055 C450.391313,230.391778 452.648318,236.266199 454.001728,237.168887 C455.355138,238.07356 454.905323,241.690267 459.41735,241.235947 C463.933341,240.78361 464.834954,241.235947 462.577949,243.043308 C460.320945,244.85067 455.355138,246.207679 456.71053,247.562704 C458.065922,248.919713 458.065922,248.01504 459.871129,249.822402 C461.676336,251.629763 462.577949,255.696822 462.577949,255.696822 C464.834954,255.696822 467.089977,257.95652 467.089977,257.95652 C467.089977,257.95652 465.738548,271.514707 466.640161,273.772421 C467.543756,276.032119 466.640161,297.724424 467.993571,299.531786 C469.348963,301.339147 466.188364,309.923618 468.445369,313.538341 C470.702373,317.155048 469.80076,328.90389 469.80076,328.90389 C472.959378,333.873638 469.80076,355.113607 472.055783,362.795389 C474.312788,370.479155 471.605968,370.026819 471.605968,370.026819 L478.826797,370.929508 C478.826797,370.929508 477.923203,395.7842 481.533618,401.65862 C485.146014,407.533041 485.595829,408.43573 486.049608,411.149748 C486.499424,413.859798 489.206244,415.66716 490.11182,417.926858 C491.013433,420.186555 491.917028,426.060976 490.11182,428.320674 C488.304631,430.578388 485.146014,434.645447 486.499424,436.907129 C487.854816,439.166827 489.660023,444.134591 487.854816,445.943936 C486.049608,447.751298 486.499424,453.173382 486.499424,453.173382" id="Stroke-18" stroke="#FFFFFF" stroke-width="1.3842"></path>
                        <path d="M528.927544,68.1621393 C528.927544,68.1621393 498.686853,90.7571336 496.429848,93.4671838 C494.172843,96.179218 496.429848,103.861 496.429848,103.861 C496.429848,103.861 485.596622,116.062178 486.500217,119.226549 C487.401829,122.388935 488.305424,124.196297 488.305424,128.715692 C488.305424,133.235088 488.305424,138.657172 491.915839,140.012198 C495.528235,141.367223 500.040263,141.819559 503.650677,145.436266 C507.261092,149.050989 506.811276,150.85835 510.421691,152.665712 C514.032106,154.473073 514.032106,160.347494 514.032106,162.154855 C514.032106,163.964201 517.190724,168.933949 517.190724,168.933949 L516.289111,174.356033 L517.644502,179.327765 L522.15653,179.327765 L528.023949,184.299497 C528.023949,184.299497 530.732751,186.557211 531.634364,189.269245 C532.537959,191.98128 534.794963,195.596002 532.086161,197.8557 C529.379341,200.115398 535.244779,201.018087 529.379341,204.182457 C523.511922,207.344844 521.704733,205.537483 521.254917,207.344844 C520.801138,209.152205 521.254917,217.288308 521.254917,217.288308 L514.933719,222.708408 C514.933719,222.708408 511.777083,238.073957 516.289111,241.236343 C520.801138,244.400714 529.379341,247.112748 531.184548,250.727471 C532.989756,254.34021 532.989756,261.57164 535.696576,264.283674 C538.405378,266.993724 538.857175,272.417793 538.857175,272.417793 C538.857175,272.417793 542.015793,278.292213 546.529802,278.74455 C551.043811,279.196886 551.945424,283.261961 551.945424,285.071307 C551.945424,286.878668 545.628189,289.136382 550.592014,291.848416 C555.555839,294.560451 557.363028,296.367812 557.363028,296.367812 L557.812843,300.434871 L555.106023,304.049594 C555.106023,304.049594 546.979618,304.499947 548.335009,306.761628 C549.690401,309.021326 551.495608,310.376351 551.495608,310.376351 L551.945424,317.605797 C551.945424,317.605797 551.945424,318.51047 551.495608,320.770168 C551.043811,323.027882 546.979618,324.835243 546.078005,326.644589 C545.17441,328.45195 543.822982,337.488757 542.015793,339.298103 C540.210585,341.105464 541.112198,342.010137 538.857175,343.817498 C536.600171,345.62486 531.184548,353.306642 532.989756,355.114004 C534.794963,356.921365 529.829157,359.633399 529.829157,359.633399 C529.829157,359.633399 524.865332,362.343449 528.475747,368.670207 C532.086161,374.996964 527.122336,379.062039 529.379341,380.873368 C531.634364,382.678746 531.634364,385.39078 531.634364,385.39078 L535.244779,391.715553 C535.244779,391.715553 530.659433,394.481154 531.634364,395.784596 C531.634364,395.784596 523.961737,411.600497 525.766945,417.022582 C527.572152,422.44665 529.829157,422.897002 529.829157,422.897002 L554.654226,418.379591 L557.363028,426.061373 C557.363028,426.061373 556.461415,431.935794 559.168235,433.290819 L563.680263,435.550517" id="Stroke-20" stroke="#FFFFFF" stroke-width="1.3842"></path>
                        <path d="M132.638355,312.636049 C127.67453,308.116654 67.6429631,214.57429 64.4843456,212.766928 C61.3237465,210.959567 79.8295991,150.406014 79.8295991,150.406014" id="Stroke-22" stroke="#FFFFFF" stroke-width="1.3842"></path>
                        <path d="M167.84406,173.001405 C167.84406,173.001405 147.081203,290.041452 144.824198,293.656175 C142.569175,297.270898 141.213783,294.108511 141.213783,294.108511 L135.346364,289.589115 C133.089359,292.30115 133.30535,296.901886 133.622401,299.129841 C133.941433,301.35978 134.894567,306.454516 134.894567,307.7282 C134.894567,309.001884 129.805903,315.052874 131.078069,316.007145 C132.350235,316.961416 133.30535,320.14761 133.941433,321.421294 C134.577516,322.692994 136.166733,325.879188 137.121848,327.78773 C138.076963,329.698256 137.121848,332.56702 134.577516,331.928195 C132.033184,331.291353 129.805903,333.201878 129.805903,333.201878 C129.805903,333.201878 126.308438,341.482808 127.580604,343.393334 C128.85277,345.30386 125.672355,345.30386 125.672355,347.531815 C125.672355,349.761754 122.808991,352.309121 124.71724,353.263392 C126.625488,354.219647 131.078069,354.537076 128.533737,356.130173 C125.989406,357.721286 124.081157,358.677541 122.172908,358.677541 C120.264659,358.677541 118.447562,356.574574 118.447562,356.574574" id="Stroke-24" stroke="#FFFFFF" stroke-width="1.3842"></path>
                        <path d="M240.487705,204.238801 C240.487705,204.238801 213.453189,399.118395 215.997521,407.395356" id="Stroke-26" stroke="#FFFFFF" stroke-width="1.3842"></path>
                        <path d="M328.905415,295.94702 C329.858548,295.94702 327.952281,309.001289 327.952281,309.001289 C326.044032,310.594385 322.863618,390.519044 322.225553,399.434832 C322.225553,399.434832 261.797673,395.61378 259.570392,395.61378 C257.345092,395.61378 256.493018,397.948867 256.493018,397.948867" id="Stroke-28" stroke="#FFFFFF" stroke-width="1.3842"></path>
                        <path d="M344.808281,297.857348 C344.808281,297.857348 447.738788,303.114766 467.994364,299.531786" id="Stroke-30" stroke="#FFFFFF" stroke-width="1.3842"></path>
                        <path d="M327.951488,309.001487 C327.951488,309.001487 372.796327,310.277155 375.976742,310.594584 L377.56794,350.396215 L381.701488,353.899838 L388.38135,352.626154 L391.242733,356.447205 L398.875728,359.950828 L403.966373,359.950828 L408.418954,358.994573 L413.507618,362.498196 L413.507618,364.728135 L421.140613,363.452467 L425.274161,365.045564 L428.456558,364.728135 L432.909138,364.091293 L437.042687,365.045564 L440.540152,367.273519 L445.947848,365.362993 L453.899876,365.362993 L458.352456,362.815625 L461.532871,364.091293 C461.532871,364.091293 468.636788,369.592735 471.605175,370.027216" id="Stroke-32" stroke="#FFFFFF" stroke-width="1.3842"></path>
                        <path d="M347.671249,237.037551 C347.671249,237.037551 412.757793,241.761292 454.002124,237.168491" id="Stroke-34" stroke="#FFFFFF" stroke-width="1.3842"></path>
                        <path d="M445.312756,225.573801 C445.312756,225.573801 450.720452,226.208659 459.306581,226.208659 C467.894691,226.208659 500.334922,221.750765 503.515336,221.750765 C506.697733,221.750765 509.876166,222.709004 509.876166,222.709004 L514.935106,222.709004" id="Stroke-36" stroke="#FFFFFF" stroke-width="1.3842"></path>
                        <path d="M436.399668,164.867088 C436.399668,164.867088 452.945751,163.478336 458.987548,165.071433 C465.031327,166.66453 490.157594,164.434591 494.927226,164.117162 C499.698839,163.797749 514.033493,162.155054 514.033493,162.155054" id="Stroke-38" stroke="#FFFFFF" stroke-width="1.3842"></path>
                        <path d="M495.881548,97.5645973 C495.881548,97.5645973 505.105742,95.3346584 507.013991,95.3346584 C508.92224,95.3346584 508.286157,92.1504486 510.830488,92.4698615 C513.37482,92.7872906 514.966018,95.0172294 515.60012,96.9277553 C516.236203,98.8382812 524.18823,98.8382812 524.18823,98.8382812 C524.18823,98.8382812 529.278876,99.1557102 538.501088,103.296175 C547.7233,107.43664 553.132977,108.071498 553.132977,108.071498 L553.767078,111.255708 L559.172793,114.75933 L562.67224,122.084005 L565.555419,127.325552 L565.813023,138.151865 L565.555419,160.31833 L563.754175,173.72177 C563.754175,173.72177 565.000581,177.727328 565.533622,179.719195 C565.533622,179.719195 565.216571,181.310308 565.854636,184.177089 C566.490719,187.04387 567.760903,186.087615 572.532516,187.998141 C577.304129,189.908666 577.304129,192.138605 577.304129,192.138605 C577.304129,192.138605 575.393899,201.054393 574.440765,206.149129 C573.48565,211.243864 578.257263,241.812279 578.574313,245.315901 C578.893346,248.819524 579.529429,255.505373 579.529429,255.505373 C579.529429,255.505373 576.029982,264.421161 574.440765,267.924783 C572.851548,271.426422 574.440765,273.656361 575.393899,274.930045 C576.349014,276.201745 575.076848,280.34221 575.076848,280.34221 C575.076848,280.34221 570.9433,281.298465 567.443853,281.935307 C563.946387,282.572149 568.079935,285.756358 568.398968,287.666884 C568.716018,289.57741 567.760903,290.531681 567.760903,290.531681 L564.899521,288.303726 C564.899521,288.303726 560.763991,288.621155 558.538691,288.940568 C556.31141,289.259981 557.361641,296.368407 557.361641,296.368407" id="Stroke-40" stroke="#FFFFFF" stroke-width="1.3842"></path>
                        <path d="M524.505876,181.948539 C524.505876,181.948539 533.093986,182.267952 535.955369,182.267952 C538.818733,182.267952 550.268226,180.674855 550.268226,180.674855 L558.856336,179.081758 L564.783203,178.619502" id="Stroke-42" stroke="#FFFFFF" stroke-width="1.3842"></path>
                        <path d="M466.622327,310.276361 C466.622327,310.276361 482.522419,306.453326 487.613065,308.046422 C492.701728,309.639519 506.697535,308.363851 506.697535,308.363851 L521.325461,306.772738 C521.325461,306.772738 541.046014,304.225371 542.316198,305.499055 C543.590346,306.772738 541.999147,312.504316 540.407949,314.414842 C538.818733,316.325368 541.682097,316.644781 544.543479,316.325368 C547.406843,316.007939 549.313111,312.821745 550.904309,313.458587" id="Stroke-44" stroke="#FFFFFF" stroke-width="1.3842"></path>
                        <path d="M637.124263,179.90747 C637.124263,179.90747 627.555276,186.406829 624.37288,187.043671 C621.194447,187.680513 614.197535,188.634784 614.197535,188.634784 L608.789839,186.087416 L596.704263,189.271626 L584.618687,192.455836 L577.304724,192.138407" id="Stroke-46" stroke="#FFFFFF" stroke-width="1.3842"></path>
                        <path d="M555.106023,304.049396 C555.106023,304.049396 576.031369,304.225966 576.031369,302.632869 L576.031369,299.13123 L589.07206,297.857546 C589.07206,297.857546 616.104594,292.76281 628.826253,291.806555 C641.549894,290.852284 651.727221,287.985504 663.812797,285.755565 C675.898373,283.52761 698.161276,282.890768 705.796253,280.660829 C713.427267,278.432874 733.783903,274.929251 741.416899,271.1082 C749.049894,267.287148 757.865885,261.615088 757.865885,261.615088" id="Stroke-48" stroke="#FFFFFF" stroke-width="1.3842"></path>
                        <path d="M479.343986,382.240297 C479.343986,382.240297 495.565092,381.286026 500.653756,381.603455 C505.740438,381.922868 529.277488,379.3755 529.277488,379.3755" id="Stroke-50" stroke="#FFFFFF" stroke-width="1.3842"></path>
                        <path d="M542.953272,337.342343 C542.953272,337.342343 550.588249,336.388072 554.085714,335.431817 C557.585161,334.477546 543.906406,336.066675 590.025392,331.928195 C636.142396,327.789714 657.133134,322.058136 657.133134,322.058136 L662.540829,321.101881 C662.540829,321.101881 670.173825,315.689716 673.990323,315.052874 C677.80682,314.414048 690.530461,312.186094 690.530461,312.186094 C690.530461,312.186094 691.800645,311.231823 695.300092,311.866681 C698.797558,312.503523 701.660922,313.142348 701.660922,313.142348 L701.977972,317.280829 L707.383687,317.917671 L722.970691,313.459778 L736.645484,322.692994 L748.219816,325.791895" id="Stroke-52" stroke="#FFFFFF" stroke-width="1.3842"></path>
                        <path d="M596.190641,430.699408 L598.612115,426.503393 L598.612115,421.406673 C598.612115,421.406673 599.884281,417.905034 597.339949,417.266208 C594.795618,416.63135 595.11465,413.447141 595.11465,413.447141 L600.839396,412.490886 L608.153359,412.173457 L620.240917,411.219186 L633.91571,408.989247 C633.91571,408.989247 639.959488,407.715563 642.820871,408.350421 C645.684235,408.989247 646.320318,411.854044 646.320318,411.854044 L651.089949,412.490886 C651.089949,412.490886 655.54253,410.899773 663.81359,410.899773 C672.082668,410.899773 679.079581,409.943518 683.849212,409.943518 C688.620825,409.943518 688.939857,408.989247 690.529074,409.626089 C692.11829,410.262931 694.662622,414.083983 695.617737,414.083983" id="Stroke-54" stroke="#FFFFFF" stroke-width="1.3842"></path>
                        <path d="M574.439774,333.201878 C574.439774,333.201878 579.528438,339.889711 579.84747,341.163395 C580.166502,342.437079 579.84747,359.312399 579.84747,359.312399 C579.84747,359.312399 576.667055,383.833791 577.303138,384.788062 C577.939221,385.742333 576.350005,395.614375 577.620189,397.207472 C578.892355,398.798585 579.84747,404.212734 579.84747,404.212734 C579.84747,404.212734 583.344935,425.865361 583.663968,428.412728 C583.981018,430.960096 586.408438,433.533255 586.408438,433.533255" id="Stroke-56" stroke="#FFFFFF" stroke-width="1.3842"></path>
                        <path d="M621.830926,329.063596 L621.830926,333.202077 C621.830926,333.202077 621.511894,331.60898 626.283507,344.982661 C631.053138,358.358327 636.143783,378.737269 637.731018,380.012937 C639.322217,381.284637 639.639267,384.470831 638.686134,386.05996 C637.731018,387.653057 637.413968,388.609312 637.096917,390.200425 C636.777885,391.793522 636.777885,394.34089 636.777885,394.34089 L640.913415,399.755038 L638.369083,404.530361 L638.369083,406.7603" id="Stroke-58" stroke="#FFFFFF" stroke-width="1.3842"></path>
                        <path d="M661.268862,320.783063 L658.72453,326.834054 L663.177111,329.063993 L666.676558,330.655106 L673.354438,335.432413 L678.760152,342.118261 C678.760152,342.118261 679.079184,346.895568 684.48688,349.760365 C689.892594,352.627146 695.30029,355.811355 695.30029,355.811355 C695.30029,355.811355 696.253424,356.76761 696.891488,358.678136 C697.52559,360.586678 699.116788,363.770888 699.116788,363.770888 C699.116788,363.770888 701.66112,366.637669 702.931304,368.548195 C704.205452,370.458721 708.178493,371.930798 708.178493,371.930798" id="Stroke-60" stroke="#FFFFFF" stroke-width="1.3842"></path>
                        <path d="M640.913217,325.241156 C640.913217,325.241156 640.596166,322.376359 640.913217,320.148404 C641.230267,317.918465 643.457548,317.599052 645.048747,317.599052 C646.637963,317.599052 645.365797,314.097413 647.274046,313.141158 C649.182295,312.186887 652.67976,309.956948 654.270959,309.956948 C655.862157,309.956948 656.81529,306.772738 656.81529,306.772738 L663.495152,301.995432 L665.401419,299.130635 C669.854,298.17438 673.036396,297.220109 673.036396,297.220109 C673.036396,297.220109 687.666304,288.62175 691.484783,282.890173" id="Stroke-62" stroke="#FFFFFF" stroke-width="1.3842"></path>
                        <path d="M614.469802,188.9292 C614.469802,188.9292 620.240124,237.991822 621.831323,242.130303" id="Stroke-64" stroke="#FFFFFF" stroke-width="1.3842"></path>
                        <path d="M688.939065,155.836828 L689.573166,166.982554 C689.573166,166.982554 747.458696,152.015776 752.549341,151.378934 C757.638005,150.742092 757.638005,152.972031 757.638005,152.972031 L759.863304,155.519399 C759.863304,155.519399 759.546253,156.791099 761.454502,157.747354 C763.362751,158.703608 767.815332,161.250976 767.815332,161.250976 L776.720493,162.842089 C776.720493,162.842089 781.173074,167.936825 783.400355,166.665125 C785.625654,165.389457 782.764272,164.433202 782.764272,162.842089 C782.764272,161.250976 783.717406,159.021037 783.717406,159.021037 C783.717406,159.021037 782.764272,143.099988 781.492106,141.189462 C780.217959,139.278936 778.628742,130.999991 778.628742,130.999991 L777.037544,121.76479 L773.540078,110.301635 C773.540078,110.301635 771.950862,102.659531 769.087498,99.7927506 C766.224134,96.9279537 764.634917,91.833218 764.634917,91.833218" id="Stroke-66" stroke="#FFFFFF" stroke-width="1.3842"></path>
                        <path d="M574.439774,271.427017 C574.439774,271.427017 583.663968,273.656956 584.936134,273.656956 C586.2083,273.656956 589.388714,272.700701 589.388714,272.700701 L590.979912,269.83392 C590.979912,269.83392 590.979912,268.56222 598.610926,265.058598 C606.245903,261.554975 615.151065,255.825381 615.151065,255.825381 L618.650512,251.684916 C619.286594,249.454977 622.78406,249.454977 622.147977,248.181294 C621.511894,246.909594 618.012447,242.769129 620.239728,242.4517 C622.465028,242.130303 625.328392,240.858603 625.647424,241.812874 C625.964475,242.769129 628.508806,242.4517 631.053138,244.040829 C633.59747,245.633926 634.869636,248.181294 634.869636,248.181294 L643.138714,248.181294 C646.638161,247.227023 649.818576,247.227023 649.818576,247.227023 C649.818576,247.227023 648.544429,244.679655 650.454659,244.679655 C652.362908,244.679655 653.954106,241.812874 655.226272,243.405971 C656.496456,244.999068 655.862355,247.227023 655.862355,247.227023 L658.723737,250.411232 C658.723737,250.411232 658.723737,257.416494 660.949037,258.690178 C663.176318,259.963862 669.220097,264.421756 670.809313,265.69544 C672.400512,266.969124 674.627793,270.790175 676.853092,270.790175 C679.080373,270.790175 682.577839,270.472746 682.577839,270.472746 L683.532954,268.56222 C686.394336,269.199062 690.210834,266.969124 690.210834,266.969124 L696.890696,263.465501 L700.069129,261.554975 L700.069129,254.232284 C700.069129,254.232284 698.479912,250.728661 700.069129,250.091819 C701.660327,249.454977 705.861249,239.96385 705.603645,238.158472 C705.348023,236.355079 706.376456,233.26213 707.406871,232.230485 C708.435304,231.200825 705.348023,232.488396 710.23853,230.169181 C715.129037,227.849965 714.871433,229.395447 716.161433,228.107876 C717.44747,226.820305 720.279129,222.4378 720.792355,220.376496 C721.307562,218.313207 722.597562,218.055296 721.565166,216.249918 C720.536733,214.446525 718.991111,213.158953 722.337977,215.220258 C725.684843,217.281563 726.972862,218.055296 728.774106,218.569134 C730.577332,219.084956 732.63618,219.860673 732.63618,218.569134 C732.63618,217.281563 731.092539,214.188614 732.63618,214.188614 C734.17982,214.188614 738.043876,217.797385 740.873553,218.827045 C743.705212,219.860673 742.966088,223.146064 746.281249,223.725372" id="Stroke-68" stroke="#FFFFFF" stroke-width="1.3842"></path>
                        <path d="M671.648705,166.638937 C671.648705,166.638937 675.998244,172.689928 676.771055,173.20575 C677.543866,173.721572 678.5723,177.846165 678.5723,177.846165 C678.5723,177.846165 678.057092,185.835457 680.11594,188.414568 C682.17677,190.991695 682.691977,196.145948 682.691977,196.145948 C682.691977,196.145948 680.888751,210.323122 681.40594,211.610693 C681.921147,212.898265 680.373544,215.219464 681.40594,217.280769 C682.434373,219.342074 679.602714,220.891524 678.5723,222.437007 C677.543866,223.982489 677.286263,226.043794 675.485018,226.043794 C675.485018,226.043794 669.562115,228.622905 669.304512,230.684209 C669.048889,232.745514 668.791286,234.294964 668.791286,236.356269 C668.791286,238.417574 668.276078,238.675485 668.276078,238.675485 L665.700041,237.128018 L664.92723,239.189323 L664.671608,242.026345 C664.671608,242.026345 667.760871,239.447234 664.671608,243.829739 C661.582346,248.212243 661.067138,249.757725 661.067138,249.757725 L658.724926,250.412423" id="Stroke-70" stroke="#FFFFFF" stroke-width="1.3842"></path>
                        <path d="M706.891267,231.200031 C706.891267,231.200031 705.347627,228.364994 705.347627,226.301705 C705.347627,224.2404 703.288779,219.086147 703.288779,219.086147 L701.998779,214.447715 C701.998779,214.447715 699.682327,215.477375 698.138687,216.251109 C696.595046,217.022858 695.564631,218.828235 693.761406,218.570324 C691.960161,218.312413 688.613295,217.280769 688.613295,217.280769 L687.067673,215.477375 C687.067673,215.477375 683.97841,214.705626 684.751221,212.898265 C685.524032,211.094871 682.949977,209.8073 682.949977,209.8073 C680.631544,210.323122 681.406336,210.579049 681.406336,210.579049" id="Stroke-72" stroke="#FFFFFF" stroke-width="1.3842"></path>
                        <path d="M762.756392,217.02385 C762.756392,217.02385 760.182336,210.837952 760.43994,208.518736 C760.697544,206.19952 759.411507,203.362499 759.411507,203.362499 L756.577866,199.4978 L750.658926,198.981978 L739.843535,201.817016 L729.287728,203.62041 L722.08077,209.806308 C722.08077,209.806308 718.991507,212.641346 720.277544,214.704634" id="Stroke-74" stroke="#FFFFFF" stroke-width="1.3842"></path>
                        <path d="M765.074627,158.772054 C765.074627,158.772054 759.153705,163.154558 760.182138,164.957952 C761.212553,166.76333 762.240986,168.824634 762.240986,168.824634 L761.983382,171.659672 L763.013797,174.236799 L763.271401,177.329748 L764.04223,180.938519 L768.934719,183.259719 L763.271401,200.785769 L767.133475,205.166289 L760.954949,203.878718" id="Stroke-76" stroke="#FFFFFF" stroke-width="1.3842"></path>
                        <polygon id="Stroke-76-Copy" stroke="#FFFFFF" stroke-width="1.3842" points="799.092587 80.1784148 816.32488 114.451743 817.458459 116.210837 817.458459 133.387763 813.891173 134.535507 810.531212 134.535507 807.396147 135.649287 802.677829 136.431041 800.584862 136.431041 799.092587 137.656464 796.760468 137.656464 793.636531 136.431041 792.754519 132.622405 792.754519 129.407886 791.885978 120.918929 791.885978 114.451743 791.885978 108.91744 793.636531 95.2205899 789.030779 89.1457845 791.674189 82.0155352"></polygon>
                    </g>
                </g>
                <g id="Group-24" transform="translate(80.362622, 548.068841)">
                    <g id="Group-3" transform="translate(141.108100, 66.883691)">
                        <mask id="mask-4" fill="white">
                            <use xlink:href="#path-3"></use>
                        </mask>
                        <g id="Clip-2"></g>
                        <path d="M12.2043368,45.5483263 C12.2043368,45.5483263 13.1823619,44.8542782 13.5275632,44.6233815 C13.8727644,44.3919416 13.7576072,43.4091369 14.1028084,43.4091369 C14.4480097,43.4091369 14.4480097,43.5248568 14.7932109,43.4091369 C15.1384121,43.2936886 14.7932109,42.7153604 14.7932109,42.7153604 C14.7932109,42.7153604 15.541192,41.9061357 15.8288146,41.5016591 C16.1164372,41.0969109 16.5767957,39.8155704 16.864148,39.2999918 C17.1520409,38.7846849 17.382085,38.6111049 17.382085,38.6111049 L17.382085,37.9751884 L18.2452232,37.9751884 L18.7053113,37.9751884 L19.3381352,37.5704402 L20.4886257,36.3564672 L20.8914056,36.3564672 L21.351764,35.8362707 C21.351764,35.8362707 21.6966949,36.1828873 22.0992044,35.8362707 C22.5022546,35.4893825 22.67472,34.911326 23.0199212,34.6220261 C23.3651225,34.3332695 23.8252106,34.2175495 23.8252106,34.2175495 C23.8252106,34.2175495 23.9979463,33.6392214 24.285569,33.6392214 L25.1487072,33.6392214 L25.6087953,33.6392214 L26.0113048,33.6392214 L26.0113048,33.9285213 C26.0113048,33.9285213 26.9317513,34.0439696 27.2772229,33.9863812 C27.6221538,33.9285213 28.4277134,33.6970813 28.6001789,33.6392214 C28.7729147,33.5813614 29.34816,33.3501931 29.34816,33.3501931 L30.4989208,32.5988283 L31.419097,32.0783601 C31.419097,32.0783601 31.7642983,32.4252484 32.281965,32.0783601 C32.7996316,31.7317436 33.3175687,31.1536871 33.6054616,31.211547 C33.8928139,31.2691354 33.9506628,30.9801071 34.9284176,30.2863307 C35.9064427,29.5928258 38.9556752,26.9912999 38.9556752,26.9912999 C38.9556752,26.9912999 39.1281407,26.1818035 39.3581847,25.8349153 C39.5884991,25.488027 40.1061658,24.8523822 39.3581847,24.5052223 C38.610474,24.1583341 38.0352287,24.1425788 38.0352287,24.1425788 C38.0352287,24.1425788 35.3311975,22.7131928 35.3311975,22.2505846 C35.3311975,21.7882481 35.2160403,21.4992198 34.8711094,21.4992198 C34.5256378,21.4992198 33.8928139,21.1523316 34.0655497,20.5742751 C34.2382855,19.9962186 34.1231283,18.7243856 33.7779271,18.2039175 C33.4327258,17.6837209 32.7996316,17.8570292 32.7996316,17.8570292 C32.7996316,17.8570292 32.3973925,17.4547258 32.1673484,17.8293216 C32.0521912,18.0164837 31.9083799,17.9768238 31.793493,17.8898981 C31.6780655,17.8032439 31.5918328,17.6695955 31.5918328,17.6695955 L31.3617888,18.0881975 L31.1317447,18.5508057 C31.1317447,18.5508057 30.614078,17.6839926 30.671116,17.2792444 C30.7286946,16.8742245 30.7286946,14.7928951 30.9014303,14.2726986 C31.0741661,13.7525021 30.4410719,13.2901655 30.4410719,13.2901655 L29.578204,12.5385291 L28.485292,11.3245561 L27.8524682,10.4571997 L26.2416192,9.41680666 L25.976163,8.98516579 L25.4360595,8.98516579 L24.1131035,8.02925374 L22.9047641,7.45119724 L21.5242294,6.69928915 C21.5242294,6.69928915 19.3381352,5.48558781 19.1653994,5.48558781 L17.0368837,4.96539128 C17.0368837,4.96539128 16.5765253,4.50278309 15.3684562,4.96539128 C14.160387,5.42772783 14.5631669,4.75975746 14.5631669,4.75975746 L13.4699846,4.15589486 L12.7222738,3.17309015 L11.226582,2.62165467 C11.226582,2.62165467 10.9962677,2.45160609 10.3631735,1.59837513 C9.73089024,0.745144171 9.3278401,0.86086413 9.3278401,0.86086413 L7.71699112,0.224676003 C7.71699112,0.224676003 6.50919229,-0.237932186 5.93367669,0.224676003 C5.35843141,0.687555836 4.66802894,3.23095013 5.30085282,4.27161482 C5.93367669,5.31200787 6.27887792,6.00605598 6.27887792,6.00605598 C6.27887792,6.00605598 7.54452566,7.74022549 7.54452566,8.02925374 C7.54452566,8.31828199 7.48694707,8.98516579 7.48694707,8.98516579 L7.14174584,9.87914321 L6.4516137,10.0527231 L5.99125528,10.8043596 L5.04864236,12.1916409 L4.55287176,13.058454 L4.55287176,13.868222 L3.69027416,13.8103621 C3.69027416,13.8103621 3.11475856,13.5213338 2.94202278,13.7525021 C2.76955733,13.9836704 1.90668941,15.1976434 1.90668941,15.1976434 C1.90668941,15.1976434 0.698620254,16.1225881 0.526154799,16.238308 C0.353419022,16.3537564 -0.0493608027,17.3368327 0.238261837,17.510141 C0.526154799,17.6837209 -0.0493608027,18.2039175 0.468305885,18.4929457 C0.985972572,18.7822456 0.238261837,19.3600305 0.698620254,19.7069187 C1.15870835,20.0538069 0.755928525,20.6894518 1.3887524,20.9208917 C2.02157627,21.15206 2.53924296,21.6149398 2.53924296,21.6149398 L2.48193469,21.8461081 L2.99960137,22.4817529 C2.99960137,22.4817529 3.34507293,25.3144471 3.11475856,25.4298954 C2.88444419,25.5456154 3.63242525,25.8349153 3.63242525,25.8349153 C3.63242525,25.8349153 3.11475856,26.3553834 3.92004789,26.5286917 C4.72560754,26.7022717 4.3804063,27.2221966 4.3804063,27.2221966 C4.3804063,27.2221966 4.09251334,27.8583847 4.32282771,28.2050013 C4.55287176,28.5518895 4.55287176,28.8409178 4.66802894,29.187806 C4.78318613,29.5349659 5.18569563,30.5753589 5.18569563,30.5753589 C5.18569563,30.5753589 5.53089686,31.3269954 5.30085282,31.7317436 C5.07080877,32.1362201 5.18569563,32.9454449 5.18569563,32.9454449 C5.18569563,32.9454449 5.01295985,33.5237731 4.95592191,33.8128013 C4.89834331,34.1018296 4.55287176,34.6798861 4.72560754,35.0267743 C4.89834331,35.3736625 4.72560754,36.4140556 4.61045035,36.7030838 C4.49529317,36.9923837 3.97762648,38.1487684 4.32282771,38.5532449 C4.66802894,38.9577215 4.55287176,39.9402546 4.78318613,40.1716945 C5.01323018,40.4034061 5.53089686,41.0969109 5.58847546,41.3280791 C5.64578373,41.5592474 6.22129933,42.2530239 6.8541232,42.2530239 C7.48694707,42.2530239 7.65968285,42.6577721 7.65968285,42.6577721 C7.65968285,42.6577721 8.69501622,42.8310804 8.92506027,42.9468003 C9.15537464,43.0625203 10.0758212,43.5827168 10.5934878,43.9296051 C11.1114249,44.2762216 11.6863998,44.9699981 11.6863998,44.9699981 C11.6863998,44.9699981 11.6720727,45.9242803 12.2043368,45.5483263" id="Fill-1" fill="#4484CE" mask="url(#mask-4)"></path>
                    </g>
                    <path d="M128.344602,45.5019839 C128.344602,45.5019839 128.387853,45.6752922 129.121237,45.5019839 C129.854891,45.328404 130.372558,45.2417499 130.372558,45.2417499 L131.580897,44.6780904 L131.882847,44.3746651 L132.573249,44.3746651 C132.573249,44.3746651 132.702463,43.8976598 133.134167,43.9411227 L133.565331,43.984314 C133.565331,43.984314 134.12652,43.5018758 134.557683,43.9384063 C134.989388,44.3746651 135.205105,44.5265136 135.593287,44.6672247 C135.98174,44.8082075 136.887859,45.1792719 137.103576,45.5791306 C137.319293,45.9787176 137.880211,46.4991857 137.880211,46.4991857 C137.880211,46.4991857 138.095928,46.8892652 138.484381,46.846074 C138.872564,46.8026111 139.174513,47.1494993 139.174513,47.1494993 C139.174513,47.1494993 139.304268,48.060047 139.778683,48.060047 C140.253368,48.060047 140.382853,47.7998129 140.382853,47.7998129 L141.245721,48.3634723 C141.245721,48.3634723 142.281324,48.5995301 142.410809,48.7418711 C142.540293,48.8839405 143.661859,49.3609457 143.791613,50.1845676 C143.920827,51.0084611 143.70484,51.832083 143.446142,52.1355083 C143.187173,52.4392053 142.928205,52.8295564 142.928205,52.8295564 C142.928205,52.8295564 142.022356,52.9594018 141.979104,53.3929442 C141.936123,53.8267582 141.720136,54.1301835 141.720136,54.1301835 C141.720136,54.1301835 140.728054,54.0435294 140.598299,54.1301835 C140.469085,54.2168377 140.123884,54.5745916 139.908167,54.5042361 C139.69245,54.4336089 139.347249,54.5132003 139.347249,54.5132003 C139.347249,54.5132003 139.131532,55.2575024 138.829582,55.0839224 C138.527633,54.9106142 138.13891,54.8671513 138.13891,54.8671513 L137.491759,54.9106142 L134.816652,55.6910448 L134.514702,55.9512788 C134.514702,55.9512788 134.12652,56.4000332 133.910803,56.3489643 C133.695086,56.2981671 132.91845,56.3489643 132.91845,56.3489643 L132.227778,56.3489643 L131.753092,56.353039 C131.753092,56.353039 131.149193,56.7317095 130.933476,56.5581295 C130.717759,56.3848212 130.588545,56.16805 130.588545,56.16805 L130.286595,56.3489643 L130.070608,55.734236 C130.070608,55.734236 129.164488,55.8211618 129.293973,55.604119 C129.423187,55.3876194 129.423187,54.9972683 129.423187,54.9972683 L128.948501,54.5042361 L129.293973,54.1733748 C129.293973,54.1733748 129.121237,53.176173 129.164488,53.046056 C129.20774,52.9159389 129.250991,51.3985406 129.035275,51.2252323 C128.819287,51.0516524 128.776306,50.7047641 128.819287,50.4879929 C128.862539,50.2712217 128.90579,49.5774453 128.733054,49.534254 C128.560589,49.4907911 127.826935,49.1873658 127.826935,49.1873658 L127.0503,49.3174828 C127.0503,49.3174828 127.007319,49.8811423 126.618866,49.9243335 C126.230683,49.9677964 125.842231,49.7510252 125.842231,49.7510252 L125.842231,49.4473282 L124.849879,49.1007117 L123.98674,48.7418711 L123.684791,48.7418711 L122.994658,47.7566216 L121.916074,46.8026111 C121.916074,46.8026111 121.786319,45.6752922 121.656835,45.458521 C121.52735,45.2417499 121.052665,44.8513987 121.139438,44.288011 C121.225401,43.7243515 122.045287,42.2501445 122.045287,42.2501445 L122.519973,42.2501445 L122.73569,41.8176887 L122.994658,41.8176887 L123.03764,41.2529427 L123.469344,41.2529427 L123.641809,41.6430221 L124.029992,41.2529427 L124.331942,40.9927086 L124.763375,40.9927086 L124.89286,41.4697139 L125.540011,41.8176887 L125.799249,42.0333733 L126.14418,42.2933357 L126.316646,42.6402239 L126.618866,42.5970327 L126.705369,43.2905375 C126.705369,43.2905375 127.093281,43.5507716 127.223036,43.8976598 C127.35252,44.2445481 127.514172,44.7647446 127.514172,44.7647446 C127.514172,44.7647446 128.036705,45.4270105 128.344602,45.5019839" id="Fill-4" fill="#4484CE"></path>
                    <path d="M122.822004,56.8182821 C122.822004,56.8182821 124.418255,55.517655 124.935922,55.5611179 C125.453859,55.6043091 125.756079,56.1891567 125.756079,56.1891567 C125.756079,56.1891567 126.618947,56.3024319 126.446211,56.6036841 C126.273746,56.9049363 126.014777,56.8182821 126.014777,56.8182821 C126.014777,56.8182821 126.10128,57.2518245 125.885293,57.4254044 C125.669576,57.5987127 125.971526,57.7722927 125.971526,57.7722927 L126.316727,57.7722927 L126.469189,58.3791433 L126.10128,58.7260316 L125.669576,58.5092604 L125.194891,58.7260316 L124.645596,58.9428027 L124.645596,58.2492979 C124.645596,58.2492979 124.116306,58.5959145 123.857337,58.5092604 C123.598639,58.4226062 123.555387,59.0729198 123.296689,58.9428027 C123.037721,58.8126857 122.822004,58.5527233 122.822004,58.5527233 C122.822004,58.5527233 122.520054,58.9773014 122.174582,58.9601879 L121.829381,58.9428027 L121.354696,58.2924892 C121.354696,58.2924892 120.966784,58.1623721 121.354696,57.7722927 C121.743419,57.3819415 122.345426,56.9483992 122.345426,56.9483992 C122.345426,56.9483992 122.350832,57.1822839 122.822004,56.8182821" id="Fill-6" fill="#4484CE"></path>
                    <path d="M115.659524,50.9649439 C115.659524,50.9649439 115.918222,50.4012845 116.608895,50.3580932 C117.299027,50.3146303 116.924902,49.9677421 117.176571,49.7077796 C117.428512,49.4475456 117.860216,48.7418168 117.860216,48.7418168 C117.860216,48.7418168 117.903197,47.9733385 117.601247,47.7131044 C117.299027,47.453142 116.177461,45.8922807 116.177461,45.8922807 C116.177461,45.8922807 114.882889,44.6780361 114.321971,44.6780361 L113.37287,44.6780361 L112.509732,44.6780361 C112.509732,44.6780361 111.646864,44.6348449 111.430877,44.6780361 C111.21543,44.721499 110.352292,44.9382702 110.352292,44.9382702 C110.352292,44.9382702 109.404002,45.3718126 109.619449,45.7187008 C109.834625,46.065589 110.192802,46.7159026 110.596393,46.7159026 C110.999713,46.7159026 111.387895,47.1059821 111.430877,47.2360991 C111.474399,47.3662162 112.380248,48.3655911 112.164531,48.7980469 C111.948814,49.2307744 112.294285,50.2279762 112.294285,50.2279762 C112.294285,50.2279762 112.509732,50.7916356 112.941166,50.9649439 C113.37287,51.1385238 114.149505,50.9649439 114.149505,50.9649439 C114.149505,50.9649439 114.882889,51.1189655 115.271071,51.0420905 L115.659524,50.9649439 Z" id="Fill-8" fill="#4484CE"></path>
                    <path d="M111.905643,36.0932722 C111.905643,36.0932722 112.078379,35.7898469 112.294096,35.6597299 C112.509543,35.5296128 112.337348,35.0094163 112.639297,34.8358364 C112.941247,34.6625281 112.855014,35.0526076 112.855014,35.0526076 L113.243197,35.1827246 L113.415932,35.8409158 L113.415932,36.3198226 L113.724911,36.4890562 C113.724911,36.4890562 114.149586,36.2779895 114.667253,36.4890562 C115.18492,36.7001229 115.098687,36.5814149 115.271153,36.4890562 C115.443888,36.3966976 116.047788,36.6069493 116.047788,36.6069493 L116.73819,36.6069493 C116.73819,36.6069493 117.212876,36.3298734 117.385341,36.3198226 C117.558077,36.3100434 117.989511,36.1131022 118.248209,36.3198226 C118.507178,36.5268146 118.59341,36.2432192 118.938882,36.3198226 C119.283813,36.3966976 119.586033,36.3198226 119.586033,36.3198226 C119.586033,36.3198226 119.974215,36.1478725 120.189932,36.4890562 C120.405649,36.83024 120.189932,36.6580182 120.189932,36.6580182 L120.75085,36.8696282 C120.75085,36.8696282 120.837083,36.960357 120.75085,37.2205911 C120.664618,37.4805535 120.362668,37.8709047 120.362668,37.8709047 C120.362668,37.8709047 119.283813,39.0384267 118.852379,39.3434819 C118.420945,39.6485371 118.636662,39.3434819 118.636662,39.3434819 L118.420945,39.6485371 C118.420945,39.6485371 115.530121,40.5590847 114.451536,40.2988506 L113.372951,40.0388882 L111.669382,39.3434819 L110.911939,39.3434819 C110.911939,39.3434819 110.740826,38.9982235 110.352373,38.9115693 C109.96419,38.8249152 109.187555,38.7379894 109.187555,38.7379894 L108.497153,38.6513353 C108.497153,38.6513353 107.850002,38.7814523 107.569408,38.9115693 C107.289084,39.0416864 106.771147,39.0416864 106.771147,39.0416864 L105.433864,39.0848776 L103.017455,38.9982235 L102.413285,38.9547606 L102.025103,38.7814523 C102.025103,38.7814523 102.154587,38.6513353 102.327052,38.2177929 C102.499788,37.7842505 102.111335,37.6541335 102.629272,37.3507081 C103.146939,37.0470111 103.233172,36.6580182 103.233172,36.6580182 C103.233172,36.6580182 103.880593,36.2665805 103.923574,35.6597299 C103.966556,35.0526076 103.621354,34.7915585 103.621354,34.7915585 L103.923574,34.532411 L104.139291,34.532411 L104.613707,34.8358364 C104.613707,34.8358364 105.174895,34.4889481 105.433864,34.7491822 C105.692562,35.0094163 106.081015,35.2693787 106.081015,35.2693787 L107.569408,35.4429587 C107.569408,35.4429587 107.763769,35.2693787 108.324417,35.4429587 C108.885335,35.616267 109.446253,35.8409158 109.446253,35.8409158 C109.446253,35.8409158 109.748473,35.8919847 110.395624,35.8409158 L111.043046,35.7898469 L111.905643,36.0932722 Z" id="Fill-10" fill="#4484CE"></path>
                    <path d="M76.9134567,21.8719413 L77.6038592,21.134702 C77.6038592,21.134702 78.2942616,20.7878137 78.2942616,20.4409255 C78.2942616,20.0943089 78.2942616,19.920729 78.6394628,19.6173037 C78.9846641,19.3138783 79.5023308,18.836873 79.5885635,18.6632931 C79.6747962,18.4899848 80.1927332,18.2732136 80.1927332,18.2732136 L80.5379345,18.2732136 C80.5379345,18.2732136 80.6241672,17.8828625 81.0988527,17.9263254 C81.5732678,17.9697883 81.6165194,18.1865595 81.7460036,18.2297507 C81.8752175,18.2732136 82.0047018,18.8800643 82.0047018,18.8800643 L83.0403055,20.9613937 C83.0403055,20.9613937 82.9540728,21.4815902 83.3425255,21.4815902 C83.730708,21.4815902 83.5582425,21.6983614 83.730708,21.8719413 C83.9031734,22.0452496 83.730708,22.348675 83.730708,22.348675 C83.730708,22.348675 83.6444752,22.6089091 84.0759092,22.5657178 C84.5073432,22.5222549 84.2483746,23.0859143 84.2916262,23.3461484 C84.3348777,23.6061109 84.5073432,23.3461484 84.8525444,23.3461484 C85.1977456,23.3461484 85.5861984,23.996462 85.5861984,24.3865415 C85.5861984,24.7768926 85.5429469,24.9936638 85.3272299,25.0803179 C85.1115129,25.1669721 84.9387771,25.6874402 84.9387771,25.6874402 C84.9387771,25.6874402 85.2409971,25.6007861 85.3702111,25.9042114 C85.4996953,26.2076368 85.0682614,26.4678708 85.3702111,26.554525 C85.6724311,26.6411791 86.0176323,26.5977162 86.1900978,26.8147591 C86.3628336,27.0315303 86.2333493,27.4216098 86.4058148,27.4650726 C86.5782802,27.5085355 87.0099845,27.5517268 87.0099845,27.8119609 C87.0099845,28.072195 87.3981669,28.1153862 87.3981669,28.1153862 C87.3981669,28.1153862 87.9590852,27.4650726 87.8728524,27.3349556 C87.7866197,27.2048386 87.0099845,27.1181844 87.268953,26.8579503 C87.5276512,26.5977162 87.5457628,26.2076368 87.8817731,26.4678708 C88.2180537,26.7278333 88.2613052,26.8147591 88.6494876,26.684642 C89.0379404,26.554525 89.253387,26.5113337 89.1674246,26.8147591 C89.0809216,27.1181844 88.8652046,27.3349556 88.8652046,27.3349556 C88.8652046,27.3349556 88.3907894,27.7250351 88.5200034,27.7250351 C88.6494876,27.7250351 88.1748021,27.9420779 88.6062361,28.1153862 C89.0379404,28.2889661 89.4261228,28.2889661 89.5556071,28.5923915 C89.6850913,28.8958168 89.5123555,29.5461304 89.5556071,29.8498274 C89.5988586,30.1532527 89.7148267,30.760375 90.282503,30.8902204 C90.8499089,31.0203375 91.5400411,31.5361877 91.4970599,31.8203264 C91.4540787,32.1041934 90.6774435,32.4945445 90.6774435,32.4945445 L89.9440598,33.0150127 C89.9440598,33.0150127 89.8575568,33.2315122 89.4693743,33.0150127 C89.0809216,32.7979699 88.9946889,32.4510816 88.7789719,32.5811987 C88.5632549,32.7113157 87.7433682,32.8414328 87.7433682,32.8414328 L87.0099845,33.318438 C87.0099845,33.318438 86.0176323,33.5784005 85.9311293,33.318438 C85.8448966,33.058204 85.2839783,32.7547786 85.2839783,32.7547786 L84.6798086,32.0610022 C84.6798086,32.0610022 83.6444752,32.14331 83.6877268,31.8203264 C83.730708,31.4973427 83.7739595,31.0203375 83.5582425,31.1072633 C83.3425255,31.1936458 83.2560225,31.6228418 83.2560225,31.8203264 C83.2560225,32.0175393 82.4793873,31.8203264 82.4793873,31.8203264 C82.4793873,31.8203264 81.6165194,31.5408056 81.5302866,31.3237628 C81.4440539,31.1072633 81.0556012,31.3672257 81.0556012,31.3672257 L80.4946829,31.6274598 L79.847532,31.8203264 L78.7256956,32.0610022 C78.7256956,32.0610022 76.9134567,32.5380074 76.9134567,32.1911192 C76.9134567,31.844231 76.611507,31.4538798 76.611507,31.4538798 C76.611507,31.4538798 76.2663057,30.6734492 76.2230542,30.2833697 C76.180073,29.8930186 75.6191548,28.7656998 75.0149851,28.5489286 C74.4110857,28.3321574 74.1521172,28.3321574 74.4110857,27.6818438 C74.6697838,27.0315303 73.8931486,26.424408 73.5049662,26.0775197 C73.1165135,25.7309031 73.2892492,25.5573232 73.2892492,24.6467755 C73.2892492,23.7362279 71.5199915,22.7390261 71.5199915,22.7390261 L73.5911989,22.4356008 C73.5911989,22.4356008 74.3678341,22.6089091 75.0582366,22.478792 C75.7483687,22.348675 76.3095573,22.3054837 76.3095573,22.3054837 C76.3095573,22.3054837 76.9134567,22.6523719 76.9134567,21.8719413" id="Fill-12" fill="#4484CE"></path>
                    <g id="Group-16" transform="translate(24.058661, 0.059490)">
                        <mask id="mask-6" fill="white">
                            <use xlink:href="#path-5"></use>
                        </mask>
                        <g id="Clip-15"></g>
                        <path d="M5.91088854,11.8834346 C5.91088854,11.8834346 6.25608977,11.4498922 6.51505828,11.5365464 C6.77375646,11.6232005 6.81700799,11.8834346 7.07597649,11.8834346 C7.33467467,11.8834346 7.89559288,11.7101263 7.98209593,11.8834346 C8.06805834,12.0570146 9.10393236,11.8834346 9.10393236,11.8834346 L9.83731603,12.447094 L10.1392657,12.447094 C10.1392657,12.447094 10.6139512,12.1436687 10.7864167,12.447094 C10.9591525,12.7505194 11.3473349,12.447094 11.3473349,12.447094 L12.0809889,11.7101263 L12.5124228,11.5251374 L12.9871083,10.972887 C12.9871083,10.972887 13.073341,10.7995787 13.5910077,10.5393446 C14.1089447,10.2791105 13.936209,9.75891398 13.936209,9.75891398 L14.5836302,9.75891398 C14.5836302,9.75891398 14.6695926,9.41202575 14.5836302,8.28470691 C14.4971272,7.15738807 13.9794605,7.5042763 14.3676429,6.76730858 C14.7560957,6.03006922 15.1012969,5.81329804 15.1012969,5.81329804 L15.1012969,5.03286743 L15.4462278,4.6859792 L15.8346806,3.99247438 L15.3170139,2.82169264 L15.0580454,1.95460788 L14.4971272,1.34748557 C14.4971272,1.34748557 13.8499762,0.91394319 13.5477562,0.91394319 L13.073341,0.91394319 L12.7281398,0.567054959 C12.7281398,0.567054959 12.2967059,0.220166728 12.0809889,0.35028377 C11.8652719,0.480400812 11.4338379,0.697172001 11.4338379,0.697172001 L11.0453852,0.321217959 L10.26875,0.523592064 C10.26875,0.523592064 9.83731603,-0.0118164746 9.57834752,0.321217959 L9.31937902,0.653709106 C9.31937902,0.653709106 9.31937902,1.08725148 9.19016509,1.08725148 C9.06068083,1.08725148 8.58599535,1.30402267 8.67222808,0.91394319 C8.75873113,0.523592064 7.85261168,0.827289043 7.85261168,0.827289043 C7.85261168,0.827289043 7.6798759,0.35028377 7.29169347,0.393746665 C6.90324071,0.436937917 6.51505828,0.35028377 6.3423225,0.567054959 C6.16985705,0.783826148 5.91088854,1.13071438 5.91088854,1.13071438 L5.39295153,1.39094846 L4.91853637,1.78102795 L4.27138543,2.21457032 C4.27138543,2.21457032 4.01241692,2.51799566 3.66721569,2.47480441 C3.32201446,2.43161316 3.19253021,2.38815026 2.76109625,2.60492145 C2.32966229,2.82169264 1.85524712,2.82169264 1.8119956,3.21204377 C1.76874407,3.60212325 1.8119956,4.12231977 1.8119956,4.12231977 C1.8119956,4.12231977 1.42354284,4.38255386 1.38056164,4.5126709 C1.33731011,4.64278794 1.51004589,4.90275038 1.38056164,4.98967617 C1.25107739,5.07633032 0.474442195,5.59652685 0.43119067,5.77010678 C0.387939145,5.94341508 -0.000243289827,6.72384569 0.0859894377,6.98407977 C0.172222165,7.24404221 0.21547369,7.76451038 0.43119067,7.80797328 C0.64690765,7.85116453 0.690159175,8.19805276 0.690159175,8.19805276 C0.690159175,8.19805276 1.72576287,9.49867989 2.50239806,9.62879694 C3.27903326,9.75891398 3.49475024,9.62879694 3.66721569,9.75891398 C3.83968115,9.88903102 4.1851527,10.0623393 4.1851527,10.0623393 C4.1851527,10.0623393 4.31436663,10.1492651 4.44385088,10.4526904 C4.57333514,10.7561158 4.74580059,10.6259987 5.0047691,10.9296957 C5.2637376,11.233121 5.2637376,11.5800093 5.52243578,11.5365464 C5.78140429,11.4930835 5.69517156,11.7533176 5.91088854,11.8834346" id="Fill-14" fill="#4484CE" mask="url(#mask-6)"></path>
                    </g>
                    <path d="M15.0407448,10.9891041 C15.0407448,10.9891041 14.5660593,10.3819817 15.0407448,9.77513107 C15.5154303,9.16800876 15.4721787,9.55808824 15.5154303,9.16800876 C15.5586818,8.77765763 15.7311472,9.34158869 15.8606315,9.16800876 C15.9898454,8.99470046 16.2058327,8.47423229 15.8606315,8.21426985 C15.5154303,7.95403577 15.2132102,8.34411525 15.0839963,8.21426985 C14.9545121,8.08415281 14.3073611,8.17080696 14.1346253,8.34411525 C13.9621599,8.51769519 13.8756568,8.90777467 13.8756568,8.90777467 L13.8756568,9.55591509 C13.8756568,9.55591509 13.5307259,9.64501403 13.4442229,9.86178522 C13.3579901,10.0785564 13.0560404,10.0785564 13.0560404,10.0785564 C13.0560404,10.0785564 12.581355,10.0350935 12.5381034,10.1652106 C12.4951222,10.2953276 11.847701,10.5987529 11.847701,10.5987529 C11.847701,10.5987529 11.2438015,10.8155241 11.2870531,10.9891041 C11.3300343,11.1624124 11.1575688,11.3794552 10.984833,11.4658377 C10.8123676,11.5527635 10.1219651,11.8996517 10.1649463,12.203077 C10.2081979,12.5065024 10.3771491,12.7667365 10.1633244,12.8533906 C9.94949967,12.9403164 9.77676389,13.286933 9.77676389,13.286933 L9.77676389,13.5037042 L9.77676389,13.7639383 L9.77676389,14.4577147 L10.0357324,14.9344484 C10.0357324,14.9344484 9.90624814,15.2816082 10.1649463,15.4114536 C10.4239148,15.5415707 10.5104179,15.1514912 10.7691161,15.4114536 C11.0280846,15.6716877 11.0280846,16.1052301 11.2870531,15.7583419 C11.5457513,15.4114536 11.416267,14.8480659 11.416267,14.8480659 L11.7614682,14.2409435 C11.7614682,14.2409435 12.4088895,12.9835077 12.581355,12.8968535 C12.7540907,12.8101994 13.1422732,12.906361 13.3579901,12.641509 C13.5737071,12.3763853 13.4874744,12.4198482 14.0913738,12.2897312 C14.6955436,12.1598858 14.9545121,11.942843 15.0407448,11.7695347 C15.1269775,11.5959547 15.0407448,10.9891041 15.0407448,10.9891041" id="Fill-17" fill="#4484CE"></path>
                    <polygon id="Fill-19" fill="#4484CE" points="14.307253 7.13027808 14.307253 7.65047461 14.6092027 7.65047461 14.9544039 7.65047461 14.9544039 6.95669815 14.6308285 6.95669815 14.307253 6.78338985"></polygon>
                    <g id="Group-23" transform="translate(0.000000, 19.346150)">
                        <mask id="mask-8" fill="white">
                            <use xlink:href="#path-7"></use>
                        </mask>
                        <g id="Clip-22"></g>
                        <path d="M0.154948588,0.444571088 C0.154948588,0.444571088 0.154948588,0.357916941 0.543401345,0.0976828566 C0.93158378,-0.162551228 0.845351052,0.270991151 0.845351052,0.270991151 L1.19055228,0.444571088 L1.19055228,0.921576361 L0.672885597,1.44177289 C0.672885597,1.44177289 0.06871586,1.31165584 0.154948588,1.13834755 C0.241181315,0.965039256 -0.23350417,0.791459319 0.154948588,0.444571088" id="Fill-21" fill="#4484CE" mask="url(#mask-8)"></path>
                    </g>
                </g>
                <polygon id="Path-2" fill="#4484CE" points="682.691977 146.639201 681.281988 144.670789 689.922714 136.666892 704.313818 129.407886 715.135738 129.407886 713.78276 124.455795 731.523728 117.025972 735.510641 108.806544 746.641101 98.9860841 764.498436 95.2205899 768.934719 100.831653 772.228714 108.806544 774.995396 117.025972 776.810958 124.455795 776.810958 129.407886 778.80222 134.537849 779.687745 138.529187 780.607239 141.28143 781.727617 144.670789 781.727617 148.077129 782.628955 152.471349 782.628955 156.067418 782.628955 158.772054 782.628955 161.299023 781.727617 162.955639 782.628955 164.872254 783.417261 165.724864 781.727617 166.638937 779.687745 164.872254 776.810958 162.955639 776.810958 161.299023 773.763743 161.299023 770.80262 161.299023 768.934719 161.299023 766.818926 160.010153 764.498436 158.772054 760.973403 156.067418 758.334396 152.471349 756.78414 151.205903 754.570912 150.313473 750.348266 151.205903 744.526755 152.471349 736.59338 154.074091 730.568013 156.067418 724.681494 157.170658 720.947293 158.007457 718.753391 158.772054 715.135738 160.010153 712.230839 160.010153 709.963144 161.299023 706.891267 161.299023 704.313818 162.955639 702.08302 162.955639 700.267458 162.955639 697.827577 163.882032 695.166315 164.872254 692.706522 164.872254 690.763871 165.724864 689.922714 158.007457 690.763871 158.007457 693.099166 153.637441 691.264235 149.923522 682.691977 151.205903"></polygon>
                <polygon id="Path-3" fill="#4484CE" points="672.449245 165.994818 683.056585 157.629111 688.38812 158.117254 688.38812 161.811965 688.939065 167.876006 701.988728 164.486062 710.669456 162.269628 718.883116 160.180558 725.984598 158.772054 729.441194 157.629111 732.934393 156.611718 735.469152 156.021743 738.039636 155.440258 742.755997 154.312131 745.447714 153.632268 748.696984 152.797226 751.077419 152.312363 752.985516 152.312363 754.967114 151.876689 756.593506 152.312363 757.120605 153.632268 758.146983 154.723796 759.117137 156.021743 760.062152 157.629111 761.634619 158.772054 763.138314 159.461754 760.526247 161.811965 759.551115 163.509894 759.117137 164.486062 760.062152 165.994818 761.634619 169.007061 761.149395 171.9707 762.222333 174.413169 762.756392 177.125593 763.138314 181.219408 768.1519 183.636112 762.756392 200.896776 763.138314 201.83898 765.144509 204.061563 761.149395 203.149224 760.954949 203.878718 760.526247 203.878718 759.551115 202.088878 757.120605 198.981978 756.917965 198.75881 750.659108 198.152146 747.448785 198.981978 740.032215 201.099827 732.934393 202.29354 729.017465 202.924213 723.212353 208.002914 694.086628 220.503666 691.484783 222.048644"></polygon>
                <polygon id="Path-4" fill="#4484CE" points="781.803753 167.52773 780.492303 166.982554 779.517463 166.396382 778.209819 165.283334 776.414317 163.633306 775.760421 163.336708 774.01675 163.05753 772.67382 162.802216 771.351535 162.577645 770.045355 162.33858 768.934719 162.127331 767.766825 162.127331 766.546006 161.349529 764.498436 160.287866 763.563946 160.841096 762.434051 162.127331 760.95144 163.907798 760.732548 164.508607 761.188488 165.283334 763.012689 168.72964 762.714585 171.517458 763.834523 174.131503 763.834523 176.667081 764.23219 178.617221 764.79721 180.538374 765.804115 180.981661 766.546006 181.372831 769.797179 182.906767 769.538462 183.73815 768.934719 185.947264 767.766825 188.9415 765.122986 197.680751 764.23219 200.56109 764.79721 201.337721 768.934719 206.182108 769.968106 216.764153 770.758751 222.614767 774.188843 223.148444 783.187138 202.440169 780.79935 186.536975 778.690963 184.422104 787.398026 175.480981"></polygon>
                <polygon id="Path-5" fill="#4484CE" points="641.697435 324.49555 641.697435 319.115579 643.455601 319.115579 645.586544 318.150537 646.730055 317.262793 647.624951 314.108839 653.913237 310.783309 655.136692 310.783309 656.485954 309.161242 657.674378 307.361158 660.360512 305.482606 664.341004 302.550003 666.128544 299.961137 670.708452 298.474926 673.305194 298.474926 677.494457 295.489035 683.451512 291.413373 689.036159 286.783162 692.2825 283.684839 695.436893 282.890173 698.984852 282.835149 703.161815 282.08034 706.891267 281.191424 709.923904 280.34467 713.712572 279.380214 721.272923 277.679679 725.86688 276.805402 728.507644 275.931711 732.508908 275.082615 735.028439 275.082615 754.760667 265.172197 755.639396 263.731744 762.525341 264.265422 768.1519 266.612413 766.514235 273.27247 771.014373 276.198769 771.014373 278.475487 766.514235 283.684839 774.065287 289.449325 774.188843 297.162972 768.1519 300.956044 771.801055 307.495286 769.157645 314.133521 748.219816 317.262793 748.219816 325.241156 737.46422 322.313452 732.508908 319.115579 723.373118 312.699339 707.943139 317.262793 703.161815 316.49275 702.343055 312.699339 694.086628 310.783309 691.484783 310.783309 690.46811 311.648758 686.823516 311.648758 682.691977 312.699339 676.495312 314.108839 673.305194 314.133521 669.836885 315.631942 664.341004 319.115579 661.268862 320.783063 658.72453 320.783063 655.136692 322.313452 652.637073 322.313452 646.730055 323.580069"></polygon>
                <polygon id="Path-6" fill="#4484CE" points="329.172292 307.865931 376.659966 309.803042 378.570991 350.200117 382.179859 353.003892 388.426563 351.600248 391.877302 355.556451 399.778332 359.050044 403.868209 359.050044 408.735086 358.13829 414.504473 362.09625 414.504473 363.882866 421.028782 362.09625 425.699461 363.882866 432.998605 363.882866 436.218592 363.882866 440.894542 366.443623 446.119846 364.425116 453.895722 364.425116 458.19831 362.09625 461.974972 363.399759 466.622327 366.845919 469.31072 368.458909 471.605175 369.230708 472.241095 368.458909 472.241095 366.845919 471.605175 363.882866 470.699332 360.03441 470.699332 355.556451 470.259497 351.600248 470.699332 347.138979 470.699332 342.020978 470.699332 336.616626 470.259497 332.523396 469.31072 329.197573 469.31072 323.866127 469.31072 319.16594 468.501624 315.701334 467.682864 313.441274 466.622327 309.001487 467.285197 304.745942 467.682864 300.781997 467.682864 300.191565 466.126459 300.566631 463.036929 300.781997 460.714181 301.076967 458.19831 301.076967 455.692981 301.277237 452.025839 301.277237 448.764563 301.478385 446.371389 301.478385 442.684042 301.478385 439.083958 301.478385 432.998605 301.478385 428.155009 301.478385 422.210361 301.277237 417.343777 301.277237 409.016352 301.076967 407.874598 301.076967 405.505875 301.076967 399.39607 300.781997 397.069662 300.781997 393.558161 300.566631 390.9663 300.566631 388.656583 300.379098 386.323293 300.379098 383.908742 300.191565 373.45462 299.872421 369.63828 299.67874 367.076874 299.67874 362.385697 299.319673 359.752253 299.319673 357.408568 299.095645 354.495763 299.095645 347.769985 298.668315 344.28557 298.479757 339.534509 298.181109 337.164761 297.857348 334.73674 297.856753 332.310183 297.586742 331.119819 297.586742 330.040438 297.317666"></polygon>
                <polygon id="Path-7" fill="#4484CE" points="230.319242 287.534466 327.951488 297.317666 327.951488 299.319673 327.951488 306.676025 326.791754 310.780381 325.174733 329.99221 323.637947 357.966128 322.680385 374.91819 321.307586 398.649554 263.185596 395.182898 258.973493 395.182898 257.492345 395.182898 255.653943 397.724332 238.912706 396.534426 228.390041 395.835782 226.022069 406.721613 216.855973 405.69354 216.855973 400.738331 218.048387 386.188333 220.869536 359.002611"></polygon>
                <path d="M798.221286,80.1784148 L816.32488,115.98044 L816.32488,133.48665 C804.255817,135.285614 798.221286,136.561821 798.221286,137.315272 C798.221286,138.068723 796.794159,137.574295 793.939905,135.831989 L792.83417,127.902015 L791.950987,108.91744 L792.83417,100.094988 L793.939905,95.2205899 L789.030779,89.1457845 L791.950987,81.7767599 L798.221286,80.1784148 Z" id="Path-8" fill="#4484CE"></path>
                <path d="M703.288779,219.086147 L706.891267,226 L706.891267,231.200031 L714.5,227.5 L720.300572,217.02385 L725,216 L732.349624,218 L732.349624,214.163817 L739.5,216 L746.281249,220.503666 L750.883636,216.508226 L753.5,219.086147 L752.5,231.200031 L753.5,236 L757,238.5 L762.756392,246 L762.756392,254 L767,254 L771.268014,247.015139 L774.065287,235 C767.875253,226.448195 764.105621,221.143578 762.756392,219.086147 C761.407162,217.028716 760.509083,212.833333 760.062152,206.5 L757,200.5 L750.883636,200.5 L730,205.166289 L720.300572,211.5 L703.288779,219.086147 Z" id="Path-9" fill="#4484CE"></path>
            </g>
        </g>
    </g>
</svg>