<?xml version="1.0" encoding="UTF-8"?>
<svg width="30px" height="30px" viewBox="0 0 30 30" version="1.1" xmlns="http://www.w3.org/2000/svg" xmlns:xlink="http://www.w3.org/1999/xlink">
    <g id="Symbols" stroke="none" stroke-width="1" fill="none" fill-rule="evenodd">
        <g id="contact" fill="#FFFFFF" fill-rule="nonzero" stroke="#FFFFFF">
            <path d="M10.0550459,23.7303922 L18.1788991,23.7303922 L22.6422018,27.9044118 C22.706422,27.9681373 22.7706422,28 22.8669725,28 C22.8990826,28 22.9633028,28 22.9954128,27.9681373 C23.1238532,27.9044118 23.1880734,27.8088235 23.1880734,27.6813725 L23.1880734,23.7303922 L25.4678899,23.7303922 C27.4266055,23.7303922 29,22.1691176 29,20.2254902 L29,10.9852941 C29,9.04166667 27.4266055,7.48039216 25.4678899,7.48039216 L23.4770642,7.48039216 L23.4770642,5.50490196 C23.4770642,3.56127451 21.9036697,2 19.9449541,2 L4.53211009,2 C2.5733945,2 1,3.56127451 1,5.50490196 L1,14.745098 C1,16.6887255 2.5733945,18.25 4.53211009,18.25 L6.52293578,18.25 L6.52293578,20.2254902 C6.52293578,22.1372549 8.12844037,23.7303922 10.0550459,23.7303922 Z M25.4678899,8.08578431 C27.0733945,8.08578431 28.3577982,9.36029412 28.3577982,10.9534314 L28.3577982,20.1936275 C28.3577982,21.7867647 27.0733945,23.0612745 25.4678899,23.0612745 L22.8669725,23.0612745 C22.6743119,23.0612745 22.5458716,23.1887255 22.5458716,23.379902 L22.5458716,26.8848039 L18.5321101,23.1568627 C18.4678899,23.0931373 18.4036697,23.0612745 18.3073394,23.0612745 L10.0550459,23.0612745 C8.44954128,23.0612745 7.16513761,21.7867647 7.16513761,20.1936275 L7.16513761,10.9534314 C7.16513761,9.36029412 8.44954128,8.08578431 10.0550459,8.08578431 L25.4678899,8.08578431 Z M4.53211009,17.5808824 C2.9266055,17.5808824 1.64220183,16.3063725 1.64220183,14.7132353 L1.64220183,5.47303922 C1.64220183,3.87990196 2.9266055,2.60539216 4.53211009,2.60539216 L19.9449541,2.60539216 C21.5504587,2.60539216 22.8348624,3.87990196 22.8348624,5.47303922 L22.8348624,7.44852941 L10.0550459,7.44852941 C8.09633028,7.44852941 6.52293578,9.00980392 6.52293578,10.9534314 L6.52293578,17.5808824 L4.53211009,17.5808824 Z" id="Shape"></path>
        </g>
    </g>
</svg>