<?xml version="1.0" encoding="UTF-8"?>
<svg width="104px" height="104px" viewBox="0 0 104 104" version="1.1" xmlns="http://www.w3.org/2000/svg" xmlns:xlink="http://www.w3.org/1999/xlink">
    <!-- Generator: Sketch 53 (72520) - https://sketchapp.com -->
    <title>benifits-03</title>
    <desc>Created with Sketch.</desc>
    <defs>
        <filter x="-32.4%" y="-31.7%" width="167.6%" height="163.4%" filterUnits="objectBoundingBox" id="filter-1">
            <feOffset dx="0" dy="2" in="SourceAlpha" result="shadowOffsetOuter1"></feOffset>
            <feGaussianBlur stdDeviation="2" in="shadowOffsetOuter1" result="shadowBlurOuter1"></feGaussianBlur>
            <feColorMatrix values="0 0 0 0 0   0 0 0 0 0   0 0 0 0 0  0 0 0 0.0292559003 0" type="matrix" in="shadowBlurOuter1" result="shadowMatrixOuter1"></feColorMatrix>
            <feMerge>
                <feMergeNode in="shadowMatrixOuter1"></feMergeNode>
                <feMergeNode in="SourceGraphic"></feMergeNode>
            </feMerge>
        </filter>
    </defs>
    <g id="benifits-03" stroke="none" stroke-width="1" fill="none" fill-rule="evenodd">
        <circle id="Oval-5-Copy-2" stroke-opacity="0.0535675262" stroke="#2E3B4E" fill="#9E9E9E" fill-rule="nonzero" cx="52" cy="52" r="52"></circle>
        <g id="noun_Worker_1859419" filter="url(#filter-1)" transform="translate(34.000000, 32.000000)" fill="#FFFFFF" fill-rule="nonzero" stroke="#FFFFFF" stroke-width="1.3">
            <g id="Group">
                <path d="M18.7782048,0.394349062 C21.0460165,0.394349062 23.1014983,1.35590566 24.5994211,2.91420896 C26.096181,4.47128631 27.0349169,6.62589847 27.0697173,9.01243152 L27.0709381,9.01240018 C27.0734714,9.18822635 26.9367057,9.33293072 26.7654819,9.3355323 L26.7608732,9.33556364 L26.7574854,9.33556364 L10.7955656,9.33556364 C10.6243108,9.33556364 10.4854703,9.19299116 10.4854703,9.01713315 C10.4854703,9.00531739 10.4861113,8.99365829 10.4873321,8.98218731 C10.5295734,6.60774666 11.4665741,4.46470148 12.9569849,2.91423953 C14.4549309,1.35590439 16.5103817,0.394347789 18.7782012,0.394347789 L18.7782048,0.394349062 Z M24.1585122,3.35951012 C22.7744719,1.91967889 20.8747044,1.03121005 18.7782048,1.03121005 C16.6817051,1.03121005 14.7819764,1.91967889 13.3978973,3.35954197 C12.075783,4.73493879 11.222742,6.61211043 11.1151235,8.69870584 L26.4412705,8.69870584 C26.3336528,6.61211043 25.4805877,4.73490695 24.1584657,3.35951012 L24.1585122,3.35951012 Z" id="Shape"></path>
                <path d="M20.3769008,0.557831277 C20.7632073,0.637563884 21.1388924,0.745097066 21.5019418,0.878236039 C21.8714009,1.01372583 22.233382,1.17883283 22.5852905,1.37114495 L22.5858399,1.37004799 C22.6924809,1.42831202 22.7524246,1.5414241 22.7502578,1.65751271 L22.7502578,5.01193913 C22.7502578,5.40176572 22.595149,5.75592571 22.3453331,6.0124557 C22.0955173,6.26898649 21.7505976,6.42826462 21.3709751,6.42826462 C20.9914139,6.42826462 20.6464632,6.26898649 20.3966481,6.0124557 C20.1468323,5.75592491 19.9917235,5.40170203 19.9917235,5.01193913 L19.9917235,0.866825918 C19.9917235,0.690967902 20.1305639,0.548395425 20.3018187,0.548395425 C20.3277006,0.548395425 20.3528501,0.551686293 20.3769008,0.557829247 L20.3769008,0.557831277 Z M21.2936043,1.47780085 C21.0703722,1.39593635 20.8429592,1.32475997 20.6119134,1.2647406 L20.6119134,5.01194307 C20.6119134,5.22597453 20.6974036,5.42079429 20.8351145,5.56220688 C20.9728263,5.70362027 21.1625457,5.79140758 21.3709746,5.79140758 C21.5794346,5.79140758 21.769154,5.70361948 21.9068657,5.56220688 C22.0445774,5.42079349 22.1300668,5.22597453 22.1300668,5.01194307 L22.1300668,1.84378257 C21.8627624,1.70653744 21.5835542,1.58414868 21.2936004,1.47780722 L21.2936043,1.47780085 Z" id="Shape"></path>
                <path d="M14.981011,1.36449532 C15.3255338,1.17688483 15.6842799,1.01397102 16.0549019,0.878011545 C16.4223771,0.743243004 16.8028539,0.634737814 17.1941375,0.554817333 L17.1940765,0.554503917 C17.3620349,0.520216197 17.5252923,0.632262414 17.5586826,0.804735355 C17.5630776,0.827363981 17.5649699,0.84989859 17.5646342,0.872088419 L17.5646342,5.01193161 C17.5646342,5.4017582 17.4095253,5.75591818 17.1597095,6.01244817 C16.9098937,6.26897896 16.564974,6.4282571 16.1853515,6.4282571 C15.8057903,6.4282571 15.4608396,6.26897896 15.2110245,6.01244817 C14.9612087,5.75591739 14.8060998,5.40169451 14.8060998,5.01193161 L14.8060998,1.65114454 C14.8060998,1.52505721 14.8774889,1.41608234 14.9810168,1.36449421 L14.981011,1.36449532 Z M16.2632394,1.47757556 C15.9762183,1.58288292 15.6967969,1.705774 15.4262846,1.84493051 L15.4262846,5.0119367 C15.4262846,5.22596817 15.5117747,5.42078792 15.6494857,5.56220051 C15.7871974,5.7036139 15.9769168,5.79140121 16.1853458,5.79140121 C16.3938057,5.79140121 16.5835251,5.70361311 16.7212368,5.56220051 C16.8589486,5.42078712 16.944438,5.22596817 16.944438,5.0119367 L16.944438,1.26467055 C16.7135449,1.32459566 16.4862536,1.39577236 16.2632355,1.47757397 L16.2632394,1.47757556 Z" id="Shape"></path>
                <path d="M18.7782048,22.8005913 C20.842563,22.8005913 22.7235542,21.5296237 24.1075093,19.4668469 C25.4725098,17.4322114 26.352281,14.6354125 26.4564187,11.5205334 L11.0999598,11.5205334 C11.2040983,14.6354205 12.0838688,17.4322114 13.4488692,19.4668469 C14.8328243,21.5296237 16.7138155,22.8005913 18.7781738,22.8005913 L18.7782048,22.8005913 Z M24.616236,19.8275888 C23.1176775,22.0611797 21.0585056,23.4374522 18.7782048,23.4374522 C16.4979039,23.4374522 14.438732,22.0611797 12.9401735,19.8275888 C11.4667637,17.6313897 10.5337879,14.5978059 10.4747613,11.2366526 C10.473571,11.2252756 10.4729606,11.2137732 10.4729606,11.2020828 C10.4729606,11.0262248 10.6118011,10.8836523 10.7830558,10.8836523 L26.7704809,10.8836523 L26.7733805,10.8836523 L26.7784775,10.8836837 C26.9497012,10.8865671 27.0862532,11.0314903 27.0834453,11.2073165 L27.082255,11.2072852 C27.0281714,14.5801089 26.0939815,17.6249731 24.6162691,19.8275967 L24.616236,19.8275888 Z" id="Shape"></path>
                <path d="M18.7090535,40.8335489 C15.1871856,40.8301326 11.6692792,40.566205 8.6270821,40.0418288 C5.78989672,39.5527745 3.3561065,38.8350489 1.70157785,37.8879729 C0.93793809,37.4509461 0.699784171,36.6372894 0.697946857,35.7575933 C0.696268195,34.9428093 0.898349006,34.0836679 1.05473934,33.4470298 C1.47562618,31.7335235 2.50321745,29.3503737 4.98904166,27.1823477 C6.74037429,25.6548844 9.21802749,24.2337609 12.7216773,23.2326473 L12.7214331,23.2317071 C12.7679169,23.2184182 12.8149199,23.2167884 12.8594193,23.2250313 C13.2787805,23.2858026 13.6591084,23.6527814 14.1491519,24.1257279 C15.0458001,24.9910389 16.360348,26.2596819 18.7090791,26.2836597 L18.7120397,26.283597 L18.7120397,26.2824374 C18.7184797,26.2825 18.7248586,26.2827821 18.7311764,26.2832522 C21.0659843,26.2515346 22.3751599,24.988283 23.2690016,24.1257264 C23.7660393,23.6460125 24.150207,23.2753339 24.576712,23.2225859 L24.5766815,23.2223038 C24.6272551,23.2160982 24.6764554,23.2227426 24.7211386,23.2397611 C28.2117256,24.2405005 30.6818978,25.6584874 32.4291139,27.1823445 C34.9149459,29.3503706 35.9425317,31.7335203 36.3634162,33.4470266 C36.5198065,34.0836679 36.7218879,34.9428061 36.7202087,35.7575901 C36.7183774,36.6372862 36.4802206,37.4509478 35.7165777,37.8879697 C34.0620568,38.8350537 31.6282666,39.5527721 28.7910735,40.0418256 C25.7488454,40.5662018 22.2309389,40.830129 18.709102,40.8335457 L18.7090535,40.8335489 Z M8.72879333,39.4149331 C11.7423609,39.9343887 15.2247071,40.195809 18.7090535,40.1991931 C22.1933844,40.1958083 25.6757307,39.9343879 28.6893137,39.4149331 C31.4613713,38.9371305 33.8269716,38.2429496 35.4161865,37.3332256 C35.9381295,37.0345402 36.1010822,36.4263276 36.1024551,35.7575917 C36.1039812,35.0239167 35.9115148,34.2075596 35.7625714,33.6012918 C35.3647889,31.9817464 34.3908573,29.7270038 32.0294046,27.6674511 C30.3496419,26.2023922 27.9698393,24.8364925 24.600639,23.8645233 C24.3791163,23.9262975 24.0765292,24.2182446 23.692936,24.5884511 C22.7287413,25.5189846 21.3165909,26.8814293 18.742188,26.9174756 C18.7303457,26.9187606 18.7183204,26.9194188 18.706112,26.9192934 L18.706112,26.9180398 C16.1124521,26.8923083 14.693185,25.5226216 13.7252072,24.58845 C13.3416171,24.2182435 13.03903,23.9262961 12.8175042,23.8645222 C9.4483039,24.8364835 7.06850126,26.2023831 5.38873861,27.66745 C3.02728585,29.7270027 2.05335423,31.9817453 1.65557181,33.6012908 C1.50662841,34.2075625 1.3141616,35.0239188 1.31568805,35.7575906 C1.3170615,36.4263257 1.48001449,37.0345447 2.00195672,37.3332245 C3.5911638,38.2429486 5.95677184,38.9371271 8.72882946,39.414932 L8.72879333,39.4149331 Z" id="Shape"></path>
                <path d="M5.20673162,39.0373621 C5.20673162,39.2132201 5.34557211,39.3557926 5.51682686,39.3557926 C5.6880816,39.3557926 5.8269221,39.2132201 5.8269221,39.0373621 L5.8269221,27.1474859 C5.8269221,26.9716279 5.6880816,26.8290554 5.51682686,26.8290554 C5.34557211,26.8290554 5.20673162,26.9716279 5.20673162,27.1474859 L5.20673162,39.0373621 Z M8.1580708,25.5608264 C8.1580708,25.3849684 8.01923031,25.2423959 7.84797556,25.2423959 C7.67672082,25.2423959 7.53788032,25.3849684 7.53788032,25.5608264 L7.53788032,39.5763057 C7.53788032,39.7521637 7.67672082,39.8947362 7.84797556,39.8947362 C8.01923031,39.8947362 8.1580708,39.7521637 8.1580708,39.5763057 L8.1580708,25.5608264 L8.1580708,25.5608264 Z" id="Shape"></path>
                <path d="M29.260044,39.5762261 C29.260044,39.7520841 29.3988845,39.8946566 29.5701392,39.8946566 C29.741394,39.8946566 29.8802345,39.7520841 29.8802345,39.5762261 L29.8802345,25.5607468 C29.8802345,25.3848888 29.741394,25.2423163 29.5701392,25.2423163 C29.3988845,25.2423163 29.260044,25.3848888 29.260044,25.5607468 L29.260044,39.5762261 L29.260044,39.5762261 Z M32.2113522,27.1474859 C32.2113522,26.9716279 32.0725117,26.8290554 31.9012569,26.8290554 C31.7300022,26.8290554 31.5911617,26.9716279 31.5911617,27.1474859 L31.5911617,39.0373621 C31.5911617,39.2132201 31.7300022,39.3557926 31.9012569,39.3557926 C32.0725117,39.3557926 32.2113522,39.2132201 32.2113522,39.0373621 L32.2113522,27.1474859 Z" id="Shape"></path>
                <path d="M7.53663219,39.5889633 C7.53663219,39.7648213 7.67547268,39.9073938 7.84672743,39.9073938 C8.01798218,39.9073938 8.15682267,39.7648213 8.15682267,39.5889633 L8.15682267,34.0758568 L29.2587261,34.0758568 L29.2587261,39.5889633 C29.2587261,39.7648213 29.3975666,39.9073938 29.5688213,39.9073938 C29.7400761,39.9073938 29.8789166,39.7648213 29.8789166,39.5889633 L29.8789166,33.7574263 C29.8789166,33.5815683 29.7400761,33.4389958 29.5688213,33.4389958 L7.84672743,33.4389958 C7.67547268,33.4389958 7.53663219,33.5815683 7.53663219,33.7574263 L7.53663219,39.5889633 Z" id="Shape"></path>
                <path d="M10.2485701,8.69873768 L27.3078394,8.69873768 C27.6702477,8.69873768 27.9996635,8.85080735 28.2381872,9.09574169 C28.4767101,9.34073893 28.6247992,9.67894555 28.6247992,10.0510969 L28.6247992,10.1682514 C28.6247992,10.540464 28.4767101,10.8786396 28.2381872,11.1235747 C27.9996642,11.3685091 27.6702493,11.5205788 27.3078394,11.5205788 L10.2485701,11.5205788 C9.88610055,11.5205788 9.55677708,11.3685091 9.31819135,11.1235747 C9.07966842,10.8786404 8.93157934,10.5404648 8.93157934,10.1682514 L8.93157934,10.0510969 C8.93157934,9.67888425 9.07966842,9.34064579 9.31822159,9.09574169 C9.55674452,8.85080735 9.886099,8.69873768 10.2485693,8.69873768 L10.2485701,8.69873768 Z M27.3078394,9.33559867 L10.2485701,9.33559867 C10.057263,9.33559867 9.88307867,9.41620935 9.75669083,9.54599445 C9.63027198,9.67577955 9.55177137,9.85464674 9.55177137,10.0510953 L9.55177137,10.1682498 C9.55177137,10.3646991 9.63027198,10.5435337 9.75665982,10.6733196 C9.88307867,10.8031047 10.057263,10.8837154 10.2485701,10.8837154 L27.3078394,10.8837154 C27.4991465,10.8837154 27.6733309,10.8031047 27.7997187,10.6733196 C27.9261065,10.5435345 28.0046071,10.3646991 28.0046071,10.1682498 L28.0046071,10.0510953 C28.0046071,9.85467779 27.9261065,9.6758114 27.7997187,9.54599445 C27.6733309,9.41620935 27.4991457,9.33559867 27.3078394,9.33559867 L27.3078394,9.33559867 Z" id="Shape"></path>
            </g>
        </g>
    </g>
</svg>