<?xml version="1.0" encoding="UTF-8"?>
<svg width="67px" height="67px" viewBox="0 0 67 67" version="1.1" xmlns="http://www.w3.org/2000/svg" xmlns:xlink="http://www.w3.org/1999/xlink">
    <!-- Generator: Sketch 53 (72520) - https://sketchapp.com -->
    <title>p-court</title>
    <desc>Created with Sketch.</desc>
    <g id="p-court" stroke="none" stroke-width="1" fill="none" fill-rule="evenodd" opacity="0.651060268">
        <g id="court" fill="#2E3B4E" fill-rule="nonzero">
            <path d="M0,67 L67,67 L67,63.2952026 C67,60.244035 64.5102302,57.748419 61.4703794,57.748419 L5.53230065,57.748419 C2.48909978,57.7490907 0,60.244035 0,63.2952026 L0,67 L0,67 Z M45.3431569,15.9020105 L45.3304266,15.9315683 C46.0888818,16.4548751 46.3930679,17.4685721 45.99776,18.3391827 L45.99776,18.3391827 C45.602452,19.2097933 44.6436629,19.6491292 43.748525,19.4214001 L33.8423768,41.2874299 C34.600832,41.8100649 34.902338,42.8271208 34.5103802,43.6950443 L34.5103802,43.6950443 C34.1150723,44.5656549 33.1556131,45.0043191 32.2611452,44.7765899 L32.2450649,44.8027888 L31.9375288,44.6630612 L12.552031,35.8313348 L12.2411448,35.6882484 L12.2545451,35.6620494 C11.4960899,35.1360555 11.1919038,34.1216867 11.5865417,33.2510761 L11.5865417,33.2510761 C11.9784996,32.3831526 12.9446589,31.9418014 13.8357767,32.1695306 L23.7466149,10.3068596 C22.9848097,9.78355274 22.6839737,8.76985569 23.0759315,7.8992451 L23.0759315,7.8992451 C23.4712394,7.02863451 24.4340487,6.58997038 25.3285166,6.81702777 L25.3419168,6.79082884 L25.649453,6.93055647 L45.0322706,15.7622829 L45.3431569,15.9020105 L45.3431569,15.9020105 Z M28.5338607,0.183996177 C27.4933299,-0.286912791 26.2558151,0.177278503 25.7854657,1.22053332 L25.1174623,2.69237576 C24.6444329,3.73227174 25.1114322,4.97369795 26.148613,5.44796575 L45.8235565,14.410015 C46.8607372,14.8815958 48.098922,14.4167327 48.5652513,13.3734779 L49.2325847,11.9016354 C49.7062841,10.8617395 49.2459849,9.62031326 48.202104,9.14604545 L28.5338607,0.183996177 L28.5338607,0.183996177 Z M11.7647653,37.185618 C10.7275846,36.7113501 9.48939979,37.179572 9.01637033,38.219468 L8.35171703,39.6906387 C7.87868757,40.7312064 8.34568691,41.9719609 9.37951759,42.4469005 L29.052451,51.4055909 C30.0929819,51.8798587 31.3311666,51.4123086 31.800846,50.3757714 L32.4688494,48.9005702 C32.9385288,47.8606742 32.4782296,46.619248 31.4376988,46.148339 L11.7647653,37.185618 L11.7647653,37.185618 Z M37.5777016,36.0227885 C38.8098562,36.5850579 40.2550751,36.1141489 40.9418388,34.9862514 L67,46.8570536 L67,39.7437083 L43.6192124,29.0914922 C44.0084902,27.8272259 43.4115082,26.4265908 42.1806936,25.8676803 L41.2152043,27.9991984 L38.5445309,33.8939575 L37.5777016,36.0227885 Z" id="Shape"></path>
        </g>
    </g>
</svg>