<?xml version="1.0" encoding="UTF-8"?>
<svg width="14px" height="16px" viewBox="0 0 14 16" version="1.1" xmlns="http://www.w3.org/2000/svg" xmlns:xlink="http://www.w3.org/1999/xlink">
    <!-- Generator: Sketch 53 (72520) - https://sketchapp.com -->
    <title>icon-download</title>
    <desc>Created with Sketch.</desc>
    <g id="icon-download" stroke="none" stroke-width="1" fill="none" fill-rule="evenodd" opacity="0.69609375">
        <g id="noun_back_1144839" transform="translate(7.000000, 8.000000) rotate(-270.000000) translate(-7.000000, -8.000000) translate(-1.000000, 1.000000)" fill="#2E3B4E" fill-rule="nonzero">
            <path d="M14.4,6.3 L3.5,6.3 L8.2,1.6 C8.5,1.3 8.5,0.8 8.2,0.5 C7.9,0.2 7.5,0.2 7.2,0.5 L1.2,6.5 C0.9,6.8 0.9,7.3 1.2,7.6 L7.2,13.6 C7.5,13.9 8,13.9 8.3,13.6 C8.6,13.3 8.6,12.9 8.3,12.6 L3.6,7.8 L14.5,7.8 C14.9,7.8 15.3,7.5 15.3,7 C15.1,6.6 14.8,6.2 14.4,6.3 L14.4,6.3 Z" id="Shape" transform="translate(8.137500, 7.050000) rotate(-180.000000) translate(-8.137500, -7.050000) "></path>
        </g>
    </g>
</svg>