<?xml version="1.0" encoding="UTF-8"?>
<svg width="44px" height="44px" viewBox="0 0 44 44" version="1.1" xmlns="http://www.w3.org/2000/svg" xmlns:xlink="http://www.w3.org/1999/xlink">
    <!-- Generator: Sketch 53 (72520) - https://sketchapp.com -->
    <title>technical</title>
    <desc>Created with Sketch.</desc>
    <g id="Symbols" stroke="none" stroke-width="1" fill="none" fill-rule="evenodd">
        <g id="technical" fill="#4484CE" fill-rule="nonzero">
            <g id="Group" transform="translate(2.000000, 4.000000)">
                <path d="M38.8307692,15.0827586 L36.9846154,14.8344828 C36.8615385,14.4 36.6769231,14.0275862 36.4923077,13.6551724 L37.6,12.1655172 C37.7846154,11.9172414 37.7846154,11.5448276 37.5384615,11.3586207 L35.7538462,9.49655172 C35.5692308,9.31034483 35.2,9.24827586 34.9538462,9.43448276 L33.4769231,10.5517241 C33.1076923,10.3655172 32.7384615,10.1793103 32.3076923,10.0551724 L32.0615385,8.25517241 C32,7.94482759 31.7538462,7.69655172 31.4461538,7.69655172 L28.9230769,7.69655172 C28.6153846,7.69655172 28.3692308,7.94482759 28.3076923,8.25517241 L28.0615385,10.0551724 C27.6923077,10.1793103 27.2615385,10.3655172 26.8923077,10.5517241 L25.4153846,9.43448276 C25.1692308,9.24827586 24.8,9.24827586 24.6153846,9.49655172 L22.7692308,11.3586207 C22.5846154,11.5448276 22.5230769,11.9172414 22.7076923,12.1655172 L23.8153846,13.6551724 C23.6307692,14.0275862 23.4461538,14.4 23.3230769,14.8344828 L21.4769231,15.0827586 C21.1692308,15.1448276 20.9230769,15.3931034 20.9230769,15.7034483 L20.9230769,18.3103448 C20.9230769,18.6206897 21.1692308,18.8689655 21.4769231,18.9310345 L23.3230769,19.1793103 C23.4461538,19.5517241 23.6307692,19.9862069 23.8153846,20.3586207 L22.7692308,21.7862069 C22.5846154,22.0344828 22.5846154,22.4068966 22.8307692,22.5931034 L24.6769231,24.4551724 C24.9230769,24.6413793 25.2307692,24.7034483 25.4769231,24.5172414 L26.9538462,23.4 C27.3230769,23.5862069 27.6923077,23.7724138 28.1230769,23.8965517 L28.3692308,25.7586207 C28.4307692,26.0689655 28.6769231,26.3172414 28.9846154,26.3172414 L31.5692308,26.3172414 C31.8769231,26.3172414 32.1230769,26.0689655 32.1846154,25.7586207 L32.4307692,23.8965517 C32.8615385,23.7724138 33.2307692,23.5862069 33.6,23.4 L35.0769231,24.5172414 C35.3230769,24.7034483 35.6923077,24.7034483 35.8769231,24.4551724 L37.6615385,22.5931034 C37.9076923,22.3448276 37.9076923,22.0344828 37.7230769,21.7862069 L36.6153846,20.2965517 C36.8,19.9241379 36.9846154,19.5517241 37.1076923,19.1172414 L38.9538462,18.8689655 C39.2615385,18.8068966 39.5076923,18.5586207 39.5076923,18.2482759 L39.5076923,15.6413793 C39.3846154,15.3931034 39.1384615,15.1448276 38.8307692,15.0827586 Z M33.1692308,17.0068966 C33.1692308,18.6827586 31.8153846,20.0482759 30.1538462,20.0482759 C28.4923077,20.0482759 27.2,18.6827586 27.2,17.0068966 C27.2,15.3310345 28.5538462,13.9655172 30.1538462,13.9655172 C31.8769231,13.9655172 33.1692308,15.3310345 33.1692308,17.0068966 Z" id="Shape"></path>
                <path d="M22.8307692,27.062069 C23.1384615,27.3724138 23.3230769,27.8689655 23.3230769,28.3655172 C23.3230769,29.0482759 22.9538462,29.6689655 22.4615385,29.9793103 C22.6461538,30.2896552 22.7076923,30.6 22.7076923,30.9103448 C22.7076923,31.6551724 22.2769231,32.337931 21.6,32.6482759 C21.7230769,32.8965517 21.7846154,33.2068966 21.7846154,33.5172414 C21.7846154,34.5724138 20.9230769,35.4413793 19.8769231,35.4413793 C8,35.3793103 8.61538462,35.3793103 8.49230769,35.3793103 L5.23076923,34.6965517 L0.615384615,34.6965517 C0.246153846,34.6965517 0,34.4482759 0,34.0758621 L0,25.6344828 C0,25.262069 0.246153846,25.0137931 0.615384615,25.0137931 L5.84615385,25.0137931 L8.98461538,20.8551724 C9.10769231,20.6689655 9.29230769,20.6068966 9.47692308,20.6068966 L20.2461538,20.6068966 C20.5538462,20.6068966 20.8615385,20.9172414 20.8615385,21.2275862 L20.8615385,21.8482759 C20.8615385,22.5931034 20.6153846,23.2758621 20.2461538,23.8344828 L21.4769231,23.8344828 C22.5230769,23.8344828 23.3846154,24.7034483 23.3846154,25.7586207 C23.3230769,26.2551724 23.1384615,26.6896552 22.8307692,27.062069 Z" id="Shape"></path>
                <path d="M22.7692308,8.06896552 C22.4615385,10.8 20.8615385,13.1586207 18.4615385,14.4 L18.4615385,19.3655172 L11.0769231,19.3655172 L11.0769231,14.4 C8.67692308,13.1586207 7.07692308,10.8 6.76923077,8.06896552 C6.46153846,5.2137931 7.63076923,2.48275862 9.90769231,0.744827586 C10.0923077,0.620689655 10.3384615,0.55862069 10.5230769,0.682758621 C10.7076923,0.806896552 10.8923077,0.993103448 10.8923077,1.24137931 L10.8923077,6.39310345 L14.7692308,8.37931034 L18.5846154,6.39310345 L18.5846154,1.24137931 C18.5846154,0.993103448 18.7076923,0.806896552 18.8923077,0.682758621 C19.0769231,0.55862069 19.3230769,0.620689655 19.5692308,0.744827586 C21.8461538,2.48275862 23.0769231,5.2137931 22.7692308,8.06896552 Z" id="Shape"></path>
            </g>
        </g>
    </g>
</svg>