<?xml version="1.0" encoding="UTF-8"?>
<svg width="104px" height="104px" viewBox="0 0 104 104" version="1.1" xmlns="http://www.w3.org/2000/svg" xmlns:xlink="http://www.w3.org/1999/xlink">
    <!-- Generator: Sketch 53 (72520) - https://sketchapp.com -->
    <title>benifits-02</title>
    <desc>Created with Sketch.</desc>
    <defs>
        <filter x="-37.1%" y="-32.5%" width="174.3%" height="165.0%" filterUnits="objectBoundingBox" id="filter-1">
            <feOffset dx="0" dy="2" in="SourceAlpha" result="shadowOffsetOuter1"></feOffset>
            <feGaussianBlur stdDeviation="2" in="shadowOffsetOuter1" result="shadowBlurOuter1"></feGaussianBlur>
            <feColorMatrix values="0 0 0 0 0   0 0 0 0 0   0 0 0 0 0  0 0 0 0.0292559003 0" type="matrix" in="shadowBlurOuter1" result="shadowMatrixOuter1"></feColorMatrix>
            <feMerge>
                <feMergeNode in="shadowMatrixOuter1"></feMergeNode>
                <feMergeNode in="SourceGraphic"></feMergeNode>
            </feMerge>
        </filter>
    </defs>
    <g id="benifits-02" stroke="none" stroke-width="1" fill="none" fill-rule="evenodd">
        <circle id="Oval-5-Copy" stroke-opacity="0.0510270979" stroke="#2E3B4E" stroke-width="2" fill="#F9CF00" fill-rule="nonzero" cx="52" cy="52" r="52"></circle>
        <g id="noun_medical_996920" filter="url(#filter-1)" transform="translate(35.000000, 32.000000)" fill="#FFFFFF" fill-rule="nonzero" stroke="#FFFFFF">
            <path d="M9.81429554,24.003406 L9.81429554,26.0296412 C9.81429554,27.0960808 10.6735093,28.0025545 11.7475266,28.1091984 L11.7475266,34.561158 C11.7475266,37.5471889 14.2177663,40 17.2250145,40 C20.2322628,40 22.7025025,37.5471889 22.7025025,34.561158 L22.7025025,30.4020436 C22.7025025,28.0025545 24.6894344,26.0296412 27.1059732,26.0296412 C29.4151103,26.0296412 31.2946405,27.8425885 31.5094439,30.0821117 C30.1669224,30.1887557 29.146606,31.3085173 29.146606,32.6415668 L29.146606,33.2281085 C29.146606,34.667802 30.328025,35.8408856 31.7779483,35.8408856 L32.3686577,35.8408856 C33.818581,35.8408856 35,34.667802 35,33.2281085 L35,32.6415668 C35,31.2551953 33.9259828,30.1887557 32.5834612,30.0287897 C32.3686577,27.2027248 30.0058198,24.9632016 27.1059732,24.9632016 C24.0987249,24.9632016 21.6284853,27.4160127 21.6284853,30.4020436 L21.6284853,34.561158 C21.6284853,36.9606471 19.6415534,38.9335604 17.2250145,38.9335604 C14.8084757,38.9335604 12.8215438,36.9606471 12.8215438,34.561158 L12.8215438,28.1091984 C13.8955611,28.0025545 14.701074,27.1494028 14.701074,26.0296412 L14.701074,24.056728 C17.1176128,23.6301521 19.373049,22.4570686 21.1988784,20.6974432 C23.5080154,18.4045981 24.7968361,15.3119232 24.7968361,12.0592824 C24.7968361,8.80664166 23.5080154,5.71396682 21.1988784,3.42112168 C21.1988784,3.42112168 21.1988784,3.42112168 21.1988784,3.42112168 L21.2525792,2.72793594 C21.4136818,1.44820842 20.5007672,0.275124855 19.1582456,0.115158915 C17.8694249,-0.0448070257 16.6880059,0.914988615 16.5269033,2.19471614 L16.4195016,3.31447772 C16.3658008,3.95434148 16.5269033,4.54088326 16.9028094,5.02078108 C17.2787154,5.5006789 17.8694249,5.82061078 18.4601344,5.87393276 C18.5675361,5.87393276 18.621237,5.87393276 18.7286387,5.87393276 C19.2656473,5.87393276 19.7489551,5.71396682 20.178562,5.34071296 C20.4470663,5.12742504 20.6618697,4.86081514 20.8229723,4.54088326 C22.6488017,6.5671185 23.669118,9.17989552 23.669118,11.9526385 C23.669118,14.9386694 22.4876991,17.7647343 20.3933654,19.8442915 C15.9898947,24.2166939 8.84768002,24.2166939 4.4442093,19.8442915 C0.255542035,15.6851771 0.0944394476,9.07325156 3.85349981,4.64752722 C4.28310671,5.34071296 5.03491879,5.7672888 5.84043172,5.7672888 C5.94783345,5.7672888 6.00153431,5.7672888 6.10893604,5.7672888 C6.75334638,5.71396682 7.29035501,5.39403494 7.66626104,4.91413712 C8.04216708,4.4342393 8.25697053,3.79437554 8.14956881,3.20783376 L8.04216708,2.08807218 C7.88106449,0.808344655 6.69964552,-0.0981290057 5.41082482,0.0085149544 C4.12200413,0.168480895 3.20908947,1.34156446 3.31649119,2.62129198 L3.42389292,3.52776564 C-1.19438125,8.32674384 -1.14068039,15.951787 3.5849955,20.6441212 C5.46452569,22.4037466 7.55885932,23.5235082 9.81429554,24.003406 Z M32.3149569,31.0952293 C33.1741707,31.0952293 33.8722819,31.7884151 33.8722819,32.6415668 L33.8722819,33.2281085 C33.8722819,34.0812602 33.1741707,34.774446 32.3149569,34.774446 L31.7242474,34.774446 C30.8650336,34.774446 30.1669224,34.0812602 30.1669224,33.2281085 L30.1669224,32.6415668 C30.1669224,31.7884151 30.8650336,31.0952293 31.7242474,31.0952293 L32.3149569,31.0952293 Z M20.178562,2.56797 L20.0711603,3.68773158 C20.0174594,4.00766346 19.8563568,4.32759534 19.5878525,4.54088326 C19.3193482,4.75417118 18.997143,4.86081514 18.621237,4.80749316 C18.2990318,4.75417118 17.9768266,4.59420524 17.7620232,4.32759534 C17.5472197,4.06098544 17.439818,3.74105356 17.4935189,3.3677997 L17.6009206,2.24803812 C17.6546214,1.60817436 18.2453309,1.12827654 18.8897413,1.12827654 C18.9434421,1.12827654 18.997143,1.12827654 19.0508439,1.12827654 C19.7489551,1.2349205 20.2859637,1.87478426 20.178562,2.56797 Z M10.8883128,24.2166939 C11.4253214,24.2700159 11.9086292,24.3233379 12.4456378,24.3233379 C12.8215438,24.3233379 13.2511507,24.3233379 13.6270568,24.2700159 L13.6270568,26.0296412 C13.6270568,26.562861 13.1974499,27.0427588 12.6067404,27.0427588 L11.9086292,27.0427588 C11.3716205,27.0427588 10.8883128,26.616183 10.8883128,26.0296412 L10.8883128,24.2166939 L10.8883128,24.2166939 Z M5.67932914,1.18159852 C5.73303,1.18159852 5.78673086,1.18159852 5.84043172,1.18159852 C6.10893604,1.18159852 6.43114121,1.28824248 6.64594466,1.44820842 C6.91444897,1.66149634 7.07555156,1.98142822 7.12925242,2.3013601 L7.23665415,3.42112168 C7.29035501,3.74105356 7.18295328,4.11430742 6.96814983,4.38091732 C6.75334638,4.64752722 6.43114121,4.80749316 6.10893604,4.86081514 C5.41082482,4.91413712 4.76641448,4.4342393 4.65901275,3.74105356 L4.55161103,2.56797 C4.4442093,1.87478426 4.98121792,1.2349205 5.67932914,1.18159852 Z" id="Shape"></path>
        </g>
    </g>
</svg>