<?xml version="1.0" encoding="UTF-8"?>
<svg width="44px" height="44px" viewBox="0 0 44 44" version="1.1" xmlns="http://www.w3.org/2000/svg" xmlns:xlink="http://www.w3.org/1999/xlink">
    <!-- Generator: Sketch 53 (72520) - https://sketchapp.com -->
    <title>call</title>
    <desc>Created with Sketch.</desc>
    <g id="Symbols" stroke="none" stroke-width="1" fill="none" fill-rule="evenodd">
        <g id="call" fill="#4484CE" fill-rule="nonzero">
            <g id="noun_call_1975558" transform="translate(8.000000, 8.000000)">
                <path d="M29,22.9034014 C29,23.2741426 28.9313516,23.758165 28.7940264,24.3554687 C28.6567295,24.9527441 28.5125225,25.4230596 28.3615186,25.7663301 C28.0731611,26.4528994 27.2355596,27.1806465 25.8487139,27.9495713 C24.5580156,28.6498477 23.2810244,29 22.0177686,29 C21.6470273,29 21.2865664,28.9759844 20.9364424,28.9279248 C20.58629,28.8798652 20.1915332,28.7940264 19.7521436,28.6704648 C19.3127256,28.546875 18.9866455,28.4473008 18.77379,28.3717988 C18.5609629,28.2962969 18.1799131,28.1555449 17.6306689,27.9495713 C17.0814531,27.7435977 16.7450361,27.6200361 16.6214463,27.5788584 C15.2758066,27.0982627 14.0743174,26.5284014 13.0170352,25.8693311 C11.2594766,24.7845781 9.4435498,23.30504 7.56925488,21.4307451 C5.69495996,19.5564502 4.21542187,17.7405234 3.13066895,15.9829648 C2.47159863,14.9256543 1.90176562,13.7241934 1.42116992,12.3785254 C1.37996387,12.2549355 1.25640234,11.9185186 1.05042871,11.3693027 C0.844455078,10.8200586 0.703703125,10.4390088 0.628172852,10.2261816 C0.552670898,10.0133545 0.453125,9.68724609 0.329535156,9.24782812 C0.205973633,8.80843848 0.120134766,8.41368164 0.0721035156,8.0635293 C0.0239873047,7.71343359 0,7.35300098 0,6.98223145 C0,5.71897559 0.350152344,4.44198437 1.05040039,3.15128613 C1.81935352,1.76444043 2.54712891,0.926838867 3.23366992,0.638481445 C3.57694043,0.487449219 4.04722754,0.343270508 4.64453125,0.205973633 C5.24180664,0.0686484375 5.72585742,0 6.09659863,0 C6.28883691,0 6.43301562,0.0205888672 6.52910645,0.0617949219 C6.77628613,0.144178711 7.14014551,0.665952148 7.62074121,1.62714355 C7.77177344,1.88803027 7.97774707,2.25877148 8.23863379,2.73933887 C8.49952051,3.21993457 8.73981836,3.65589746 8.95952734,4.04722754 C9.17920801,4.43855762 9.39203516,4.80587207 9.59800879,5.1491709 C9.63921484,5.20408398 9.75934961,5.3757334 9.95844141,5.6640625 C10.1575332,5.95241992 10.305167,6.19614453 10.4012861,6.39523633 C10.4974053,6.59432812 10.5454365,6.79002148 10.5454365,6.98223145 C10.5454365,7.25685352 10.3497998,7.60015234 9.95844141,8.01207129 C9.56711133,8.42401855 9.14145703,8.80161328 8.68147852,9.14488379 C8.22147168,9.4881543 7.79581738,9.85204199 7.4044873,10.2365186 C7.01312891,10.6209668 6.81746387,10.9367949 6.81746387,11.1839463 C6.81746387,11.3075361 6.85178809,11.4619951 6.92046484,11.6473799 C6.98911328,11.8327363 7.04745312,11.9734883 7.0955127,12.0696074 C7.14357227,12.1657266 7.23969141,12.3304941 7.38387012,12.5639102 C7.52804883,12.7973545 7.60703418,12.9277979 7.62074121,12.9552686 C8.66428809,14.836417 9.85889551,16.4497969 11.2045352,17.7954648 C12.5502031,19.1411045 14.163583,20.3357119 16.0447598,21.3792588 C16.0722305,21.3929941 16.2026455,21.4719512 16.4360898,21.6161299 C16.6695059,21.7602803 16.8342734,21.8564277 16.9303926,21.9044873 C17.0265117,21.9525469 17.1672637,22.0108867 17.3526484,22.0795352 C17.5380049,22.1482119 17.6924922,22.1825361 17.8160537,22.1825361 C18.0632051,22.1825361 18.3790332,21.9868428 18.7634814,21.5955127 C19.147958,21.2041826 19.5118457,20.7785283 19.8551162,20.3185498 C20.1983867,19.858543 20.5759814,19.4328887 20.9879287,19.0415586 C21.3998477,18.6502002 21.7431465,18.4545352 22.0177686,18.4545352 C22.2099785,18.4545352 22.4056719,18.5025947 22.6047637,18.5987139 C22.8038555,18.694833 23.0475801,18.8424385 23.3359375,19.0415586 C23.6242949,19.2406504 23.795916,19.3607852 23.8508574,19.4019912 C24.1941279,19.6079648 24.5614141,19.820792 24.9527725,20.0404727 C25.3441025,20.2601816 25.7800654,20.5004795 26.2606611,20.7613662 C26.7412568,21.0222529 27.1119697,21.2282266 27.3728564,21.3792588 C28.3340479,21.8598545 28.8558213,22.2237139 28.9382051,22.4708936 C28.9794111,22.5669844 29,22.7111631 29,22.9034014 Z" id="Shape"></path>
            </g>
        </g>
    </g>
</svg>