<?xml version="1.0" encoding="UTF-8"?>
<svg width="24px" height="25px" viewBox="0 0 24 25" version="1.1" xmlns="http://www.w3.org/2000/svg" xmlns:xlink="http://www.w3.org/1999/xlink">
    <!-- Generator: Sketch 53 (72520) - https://sketchapp.com -->
    <title>fax</title>
    <desc>Created with Sketch.</desc>
    <g id="fax" stroke="none" stroke-width="1" fill="none" fill-rule="evenodd" opacity="0.801641555">
        <g id="noun_fax_567877" fill="#2E3B4E" fill-rule="nonzero">
            <g id="Group">
                <path d="M8.28571429,0.106523529 L4.28571429,4.22417059 L4.28571429,13.0477 L19.7142857,13.0477 L19.7142857,0.106523529 L8.28571429,0.106523529 Z M9.63392857,3.63593529 C9.64285592,3.63572008 9.65178694,3.63572008 9.66071429,3.63593529 C9.67856161,3.63507323 9.69643839,3.63507323 9.71428571,3.63593529 L16.8571429,3.63593529 C17.0632205,3.63293512 17.2549036,3.74439135 17.358793,3.92762521 C17.4626823,4.11085906 17.4626823,4.33748212 17.358793,4.52071597 C17.2549036,4.70394983 17.0632205,4.81540605 16.8571429,4.81240588 L9.71428571,4.81240588 C9.51013395,4.82718249 9.31383195,4.72871963 9.19932477,4.5541073 C9.08481759,4.37949497 9.06950161,4.15526094 9.1591462,3.96587201 C9.24879079,3.77648307 9.42977681,3.6507119 9.63392857,3.63593529 L9.63392857,3.63593529 Z M7.0625,8.34181765 C7.07142735,8.34160244 7.08035837,8.34160244 7.08928571,8.34181765 C7.10713304,8.34095559 7.12500982,8.34095559 7.14285714,8.34181765 L16.8571429,8.34181765 C17.0632205,8.33881748 17.2549036,8.4502737 17.358793,8.63350756 C17.4626823,8.81674141 17.4626823,9.04336447 17.358793,9.22659832 C17.2549036,9.40983218 17.0632205,9.52128841 16.8571429,9.51828824 L7.14285714,9.51828824 C6.82726586,9.54113089 6.55344001,9.29628662 6.53125,8.97141324 C6.50905999,8.64653985 6.74690871,8.36466031 7.0625,8.34181765 Z M1.42857143,8.93005294 C0.637123714,8.93005294 0,9.58591471 0,10.4006412 L0,23.3418176 C0,24.1565529 0.637123714,24.8124059 1.42857143,24.8124059 L22.5714286,24.8124059 C23.362876,24.8124059 24,24.1565529 24,23.3418176 L24,10.4006412 C24,9.58591471 23.362876,8.93005294 22.5714286,8.93005294 L20.8571429,8.93005294 L20.8571429,13.0477 L20.8571429,13.6359353 C20.8571113,13.9607952 20.6012925,14.2241381 20.2857143,14.2241706 L19.7142857,14.2241706 L4.28571429,14.2241706 L3.71428571,14.2241706 C3.3987075,14.2241381 3.1428887,13.9607952 3.14285714,13.6359353 L3.14285714,13.0477 L3.14285714,8.93005294 L1.42857143,8.93005294 Z M8,16.2829941 C8.63117143,16.2829941 9.14285714,16.8097294 9.14285714,17.4594647 C9.14285714,18.1092294 8.63117143,18.6359353 8,18.6359353 C7.36882857,18.6359353 6.85714286,18.1092294 6.85714286,17.4594647 C6.85714286,16.8097294 7.36882857,16.2829941 8,16.2829941 Z M12,16.2829941 C12.6311714,16.2829941 13.1428571,16.8097294 13.1428571,17.4594647 C13.1428571,18.1092294 12.6311714,18.6359353 12,18.6359353 C11.3688286,18.6359353 10.8571429,18.1092294 10.8571429,17.4594647 C10.8571429,16.8097294 11.3688286,16.2829941 12,16.2829941 Z M16,16.2829941 C16.6311714,16.2829941 17.1428571,16.8097294 17.1428571,17.4594647 C17.1428571,18.1092294 16.6311714,18.6359353 16,18.6359353 C15.3688286,18.6359353 14.8571429,18.1092294 14.8571429,17.4594647 C14.8571429,16.8097294 15.3688286,16.2829941 16,16.2829941 Z M8,20.4006412 C8.63117143,20.4006412 9.14285714,20.9273471 9.14285714,21.5771118 C9.14285714,22.2268471 8.63117143,22.7535824 8,22.7535824 C7.36882857,22.7535824 6.85714286,22.2268471 6.85714286,21.5771118 C6.85714286,20.9273471 7.36882857,20.4006412 8,20.4006412 Z M12,20.4006412 C12.6311714,20.4006412 13.1428571,20.9273471 13.1428571,21.5771118 C13.1428571,22.2268471 12.6311714,22.7535824 12,22.7535824 C11.3688286,22.7535824 10.8571429,22.2268471 10.8571429,21.5771118 C10.8571429,20.9273471 11.3688286,20.4006412 12,20.4006412 Z M16,20.4006412 C16.6311714,20.4006412 17.1428571,20.9273471 17.1428571,21.5771118 C17.1428571,22.2268471 16.6311714,22.7535824 16,22.7535824 C15.3688286,22.7535824 14.8571429,22.2268471 14.8571429,21.5771118 C14.8571429,20.9273471 15.3688286,20.4006412 16,20.4006412 Z" id="Shape"></path>
            </g>
        </g>
    </g>
</svg>