<?xml version="1.0" encoding="UTF-8"?>
<svg width="104px" height="104px" viewBox="0 0 104 104" version="1.1" xmlns="http://www.w3.org/2000/svg" xmlns:xlink="http://www.w3.org/1999/xlink">
    <!-- Generator: Sketch 53 (72520) - https://sketchapp.com -->
    <title>benifits-01</title>
    <desc>Created with Sketch.</desc>
    <defs>
        <filter x="-30.2%" y="-36.1%" width="160.5%" height="172.2%" filterUnits="objectBoundingBox" id="filter-1">
            <feOffset dx="0" dy="2" in="SourceAlpha" result="shadowOffsetOuter1"></feOffset>
            <feGaussianBlur stdDeviation="2" in="shadowOffsetOuter1" result="shadowBlurOuter1"></feGaussianBlur>
            <feColorMatrix values="0 0 0 0 0   0 0 0 0 0   0 0 0 0 0  0 0 0 0.0261964598 0" type="matrix" in="shadowBlurOuter1" result="shadowMatrixOuter1"></feColorMatrix>
            <feMerge>
                <feMergeNode in="shadowMatrixOuter1"></feMergeNode>
                <feMergeNode in="SourceGraphic"></feMergeNode>
            </feMerge>
        </filter>
    </defs>
    <g id="benifits-01" stroke="none" stroke-width="1" fill="none" fill-rule="evenodd">
        <circle id="Oval-5" stroke-opacity="0.0506993007" stroke="#2E3B4E" stroke-width="2" fill="#4484CE" fill-rule="nonzero" cx="52" cy="52" r="52"></circle>
        <g id="noun_cutlery_1893618" filter="url(#filter-1)" transform="translate(31.000000, 34.000000)" fill="#FFFFFF" stroke="#FFFFFF" stroke-width="0.5">
            <path d="M29.3985248,18.466301 L26.3869686,21.5675118 L35.7084521,30.3072879 C38.4331934,32.8446422 33.9875628,37.9193508 30.9760066,35.2410324 L21.941338,26.078364 L13.1934843,35.1000683 C10.3253355,38.060315 5.01926033,32.8446422 8.17422397,30.0253596 L17.4957074,21.5675118 L15.4880033,19.594014 C13.1934843,19.3120857 10.3253355,19.4530499 8.46103884,17.7614803 L0,9.30363255 L9.46489091,0 L17.9259298,8.45784777 C19.7902264,10.2903815 19.646819,13.109664 19.9336339,15.6470184 L21.941338,17.4795521 L25.0963017,14.5193053 C23.6622273,10.9952021 25.0963017,6.76627822 27.821043,4.08795976 C31.2628215,0.704820648 37.2859339,-0.563856518 40.8711198,2.96024672 C44.4563058,6.48434996 43.1656388,12.2638793 39.5804529,15.6470184 C36.999119,18.1843727 32.9837107,19.7349781 29.3985248,18.466301 Z M25.6699314,22.4132966 L22.6583752,25.3735433 L31.5496364,34.5362117 C33.7007479,36.2277813 36.8557116,32.7036781 34.9914149,31.0121085 L25.6699314,22.4132966 Z M18.2127446,20.8626912 L21.2243008,18.1843727 L18.9297818,16.0699108 C18.6429669,13.8144847 18.9297818,10.7132738 17.2088926,9.16266842 L9.46489091,1.4096413 L8.31763141,2.53735433 L14.7709661,8.88074016 C15.3445959,9.44459668 14.1973364,10.5723097 13.4802992,10.0084532 L7.1703719,3.66506737 L6.0231124,4.7927804 L12.3330397,10.9952021 C13.0500769,11.7000228 11.7594099,12.8277358 11.1857802,12.2638793 L4.87585289,5.92049344 L3.72859339,7.04820648 L10.0385207,13.3915923 C10.7555579,13.9554488 9.46489091,15.0831619 8.89126116,14.5193053 L2.43792645,8.17591951 L1.43407438,9.30363255 L9.17807603,17.0566597 C10.7555579,18.6072651 13.7671141,18.3253368 16.0616331,18.6072651 L18.2127446,20.8626912 Z M34.8480074,3.38313911 C30.115562,6.06145757 28.2512653,9.02170429 28.1078579,11.981951 C25.9567463,7.89399125 31.1194141,3.8060315 34.8480074,3.38313911 Z M40.0106752,3.66506737 C42.878824,6.48434996 42.4486017,11.5590586 38.8634157,14.9421977 C35.9952669,17.7614803 32.1232661,18.6072651 29.1117099,17.3385879 L12.4764471,34.3952476 C10.468743,36.3687454 6.88355703,32.5627139 8.89126116,30.8711444 L26.3869686,14.8012336 C24.8094868,11.981951 25.526524,7.75302713 28.5380802,4.7927804 C32.1232661,1.4096413 37.2859339,0.845784777 40.0106752,3.66506737 Z" id="Shape"></path>
        </g>
    </g>
</svg>