<?xml version="1.0" encoding="UTF-8"?>
<svg width="481px" height="334px" viewBox="0 0 481 334" version="1.1" xmlns="http://www.w3.org/2000/svg" xmlns:xlink="http://www.w3.org/1999/xlink">
    <!-- Generator: Sketch 53 (72520) - https://sketchapp.com -->
    <title>Group 4</title>
    <desc>Created with Sketch.</desc>
    <defs>
        <linearGradient x1="0%" y1="50%" x2="100%" y2="50%" id="linearGradient-1">
            <stop stop-color="#F9CF00" offset="0%"></stop>
            <stop stop-color="#F19F4D" offset="100%"></stop>
        </linearGradient>
        <linearGradient x1="0%" y1="50%" x2="100%" y2="50%" id="linearGradient-2">
            <stop stop-color="#F9CF00" offset="0%"></stop>
            <stop stop-color="#F19F4D" offset="100%"></stop>
        </linearGradient>
        <polygon id="path-3" points="0 251.45 281.736 251.45 281.736 -2.84217094e-14 0 -2.84217094e-14"></polygon>
    </defs>
    <g id="Page-1" stroke="none" stroke-width="1" fill="none" fill-rule="evenodd">
        <g id="1" transform="translate(-794.000000, -951.000000)">
            <g id="Group-4" transform="translate(794.000000, 951.000000)">
                <g id="Group-34" fill-rule="nonzero">
                    <path d="M273.715737,334 C362.476588,334 434.431475,262.127781 434.431475,173.468905 C434.431475,84.81003 532.614452,13 443.853601,13 C355.09275,13 113,84.81003 113,173.468905 C113,262.127781 184.954887,334 273.715737,334 Z" id="Oval-Copy" fill="url(#linearGradient-1)" opacity="0.0834263393"></path>
                    <path d="M342.75269,333 C431.534618,333 415.420417,249.162928 415.420417,160.491545 C415.420417,71.8201611 513.626708,0 424.84478,0 C336.062852,0 0,48.6911164 0,137.3625 C0,226.033884 253.970763,333 342.75269,333 Z" id="Oval-Copy-2" fill="url(#linearGradient-2)" opacity="0.0752790179"></path>
                </g>
                <g id="Group-206" transform="translate(26.000000, 77.000000)">
                    <path d="M134.1976,0.0348 L51.5096,12.2178 C49.7556,12.4758 48.5436,14.1068 48.8016,15.8608 L53.9756,50.9738 C54.2336,52.7278 55.8646,53.9398 57.6186,53.6818 L140.3066,41.4988 C142.0596,41.2408 143.2726,39.6098 143.0136,37.8558 L137.8406,2.7418 C137.5816,0.9888 135.9506,-0.2232 134.1976,0.0348" id="Fill-1" fill="#E1FAFF"></path>
                    <polygon id="Fill-3" fill="#73C8F0" points="79.7064 41.1246 59.3194 44.1286 55.7734 20.0596 76.1604 17.0566"></polygon>
                    <polygon id="Fill-5" fill="#73C8F0" points="110.2933 14.3864 83.4273 18.3444 83.0863 16.0354 109.9533 12.0774"></polygon>
                    <polygon id="Fill-7" fill="#73C8F0" points="125.6175 19.42 84.4785 25.481 84.1385 23.172 125.2775 17.111"></polygon>
                    <polygon id="Fill-9" fill="#73C8F0" points="126.6688 26.5563 85.5298 32.6173 85.1898 30.3083 126.3288 24.2473"></polygon>
                    <polygon id="Fill-11" fill="#73C8F0" points="127.72 33.6925 86.581 39.7535 86.241 37.4445 127.38 31.3835"></polygon>
                    <path d="M59.1263,43.9674 C59.6903,44.3474 59.9733,44.5984 60.9133,43.5874 C66.2023,38.1244 70.1723,15.0054 69.9773,16.0054 C70.2743,14.4844 72.5423,14.7564 72.4803,16.2974 C70.5433,65.6184 52.4193,54.6534 43.6973,34.9454 C42.7113,32.7184 43.7183,30.1154 45.9443,29.1304 C48.2763,28.0974 51.0043,29.2534 51.8763,31.6684 C53.1493,35.1964 56.3523,42.0834 59.1263,43.9674" id="Fill-13" fill="#FA968C"></path>
                    <path d="M56.9612,40.8341 C56.9542,40.8231 56.9452,40.8131 56.9392,40.8021 C55.9292,39.3251 54.9932,37.7811 54.1292,36.1981 C53.2742,34.6531 52.4022,32.9371 51.7922,31.4771 L51.7622,31.4031 C51.7122,31.2871 51.6582,31.1711 51.5982,31.0571 C50.4632,28.9011 47.7962,28.0741 45.6402,29.2091 C43.4852,30.3431 42.6572,33.0111 43.7922,35.1661 C44.8562,37.1881 45.8862,38.8411 47.0642,40.5821 C47.8602,41.7301 48.7072,42.8441 49.5802,43.9411 C50.2302,43.2481 55.4082,41.3911 56.9612,40.8341" id="Fill-15" fill="#96DBBF"></path>
                    <path d="M52.6414,71.4679 C48.8044,75.8709 26.6524,77.7089 26.6524,77.7089 C25.0184,75.8119 27.4084,67.1879 27.9844,58.4339 C28.6074,48.9689 28.9664,38.5219 29.1304,32.8779 C29.1984,30.5479 31.1054,28.6999 33.4354,28.6999 L47.4934,28.6999 C49.6594,28.6999 51.4634,30.3529 51.6414,32.5129 C52.0104,36.9819 52.6524,44.7499 53.2854,52.3649 C53.9274,60.0929 55.9584,67.6619 52.6414,71.4679" id="Fill-17" fill="#FAB9AF"></path>
                    <path d="M39.8631,145.0538 L39.8951,153.7668 L39.1381,158.0098 C39.0081,158.7438 39.5511,159.4238 40.2971,159.4468 C43.8631,159.5558 52.9961,159.7968 53.2401,159.4018 C54.3891,157.5438 49.1981,156.8278 45.4011,155.3588 C41.6041,153.8888 44.2241,139.4708 44.2241,139.4708 L39.8631,145.0538 Z" id="Fill-19" fill="#FA968C"></path>
                    <path d="M45.4012,155.3585 C45.3802,155.3505 45.3632,155.3375 45.3432,155.3295 C44.4392,155.6675 43.4202,155.8655 42.2722,155.8655 C41.2882,155.8655 40.3962,155.7225 39.5912,155.4705 L39.1382,158.0095 C39.0072,158.7445 39.5512,159.4235 40.2972,159.4465 C43.8632,159.5555 52.9962,159.7965 53.2402,159.4005 C54.3892,157.5445 49.1982,156.8285 45.4012,155.3585" id="Fill-21" fill="#695A6E"></path>
                    <path d="M52.636,74.6432 C52.773,80.6982 50.391,119.1162 45.687,119.2232 C40.983,119.3302 35.737,81.0852 35.599,75.0292 C35.462,68.9742 39.164,63.9782 43.869,63.8722 C48.574,63.7652 52.498,68.5872 52.636,74.6432" id="Fill-23" fill="#0091C8"></path>
                    <path d="M39.1893,111.2423 C38.7223,114.5753 38.6473,135.9323 39.3973,146.7813 L43.6793,146.7813 C45.9793,136.2573 48.4383,115.8603 48.8943,112.6023 C48.8993,112.5603 48.9023,112.5193 48.9073,112.4783 C51.4673,101.1553 52.7373,79.1083 52.6363,74.6433 C52.4983,68.5873 48.5733,63.7653 43.8693,63.8723 C39.1643,63.9783 35.4623,68.9743 35.5993,75.0293 C35.6863,78.8313 39.4103,109.6643 39.1893,111.2423" id="Fill-25" fill="#695A6E"></path>
                    <path d="M46.8636,84.192 C48.4626,82.143 50.3576,80.311 52.4626,78.759 C52.4926,78.73 52.5246,78.7 52.5546,78.67 C52.6266,76.86 52.6546,75.457 52.6356,74.643 C52.4986,68.588 48.5736,63.765 43.8686,63.872 C39.1646,63.979 35.4626,68.974 35.5996,75.029 C35.6436,76.99 36.6556,86.136 37.5946,94.754 C40.2646,90.984 43.5096,87.51 46.8636,84.192" id="Fill-27" fill="#5C4F61"></path>
                    <path d="M29.5848,145.0538 L29.6168,153.7668 L28.8598,158.0098 C28.7288,158.7438 29.2728,159.4238 30.0188,159.4468 C33.5848,159.5558 42.7178,159.7968 42.9618,159.4018 C44.1108,157.5438 38.9198,156.8278 35.1228,155.3588 C31.3258,153.8888 33.9458,139.4708 33.9458,139.4708 L29.5848,145.0538 Z" id="Fill-29" fill="#FA968C"></path>
                    <path d="M35.1229,155.3585 C35.1019,155.3505 35.0849,155.3375 35.0649,155.3295 C34.1609,155.6675 33.1419,155.8655 31.9939,155.8655 C31.0099,155.8655 30.1179,155.7225 29.3129,155.4705 L28.8599,158.0095 C28.7289,158.7445 29.2729,159.4235 30.0189,159.4465 C33.5849,159.5555 42.7179,159.7965 42.9619,159.4005 C44.1109,157.5445 38.9199,156.8285 35.1229,155.3585" id="Fill-31" fill="#695A6E"></path>
                    <path d="M42.3572,74.6432 C42.4952,80.6982 40.1132,119.1162 35.4082,119.2232 C30.7042,119.3302 26.4762,80.9442 26.3382,74.8882 C26.2012,68.8332 28.8862,63.9782 33.5902,63.8722 C38.2952,63.7652 42.2202,68.5872 42.3572,74.6432" id="Fill-33" fill="#0091C8"></path>
                    <path d="M28.9109,111.2423 C28.4439,114.5753 28.3689,135.9323 29.1189,146.7813 L33.4009,146.7813 C35.7009,136.2573 38.1589,115.8603 38.6159,112.6023 C38.6209,112.5603 38.6239,112.5193 38.6289,112.4783 C41.1889,101.1553 43.4759,78.9673 43.3749,74.5023 C43.2379,68.4463 38.2949,63.7653 33.5909,63.8723 C28.8859,63.9783 26.2019,68.8333 26.3389,74.8883 C26.4249,78.6903 29.1319,109.6643 28.9109,111.2423" id="Fill-35" fill="#828291"></path>
                    <path d="M47.6263,28.7003 L45.3423,28.7003 C44.5473,30.5413 42.8643,31.9643 40.2533,31.9643 C37.6383,31.9643 35.9563,30.5413 35.1623,28.7003 L33.0783,28.7003 C30.9473,28.7003 29.2023,30.3853 29.1413,32.5153 C28.9823,38.0663 28.6213,48.7623 27.9843,58.4343 C27.4083,67.1873 25.0183,75.3223 26.6523,77.7093 C26.6523,77.7093 48.8043,75.8713 52.6413,71.4683 C55.9593,67.6613 53.9273,60.0923 53.2853,52.3653 C52.6463,44.6763 51.9983,36.8303 51.6303,32.3833 C51.4593,30.2983 49.7173,28.7003 47.6263,28.7003" id="Fill-37" fill="#55C7A6"></path>
                    <path d="M73.8152,13.8336 C73.8152,13.8336 73.9072,16.9476 72.8662,17.5216 C71.8252,18.0966 71.0212,18.2916 70.1282,16.8076 C69.2352,15.3226 68.7182,12.8616 68.7042,11.3236 C68.6992,10.8106 68.5762,10.2436 68.9192,9.6526 C69.6042,8.4716 70.6812,8.3196 70.9192,8.3496 C71.8332,8.4636 72.1562,9.1756 71.2272,9.3336 C70.8672,9.3946 70.8212,9.9716 70.8012,10.4056 C70.7382,11.7626 70.8022,13.3016 71.4632,13.1466 C72.1252,12.9926 73.2212,9.8676 74.0032,10.1126 C75.0472,10.4386 73.8152,13.8336 73.8152,13.8336" id="Fill-39" fill="#FA968C"></path>
                    <path d="M35.3802,30.6193 C35.5922,30.8903 35.9772,31.3463 36.3032,31.7163 C36.6372,32.1113 36.9882,32.5063 37.3462,32.8953 C46.8642,43.4323 60.0902,50.7203 74.2212,49.3833 C76.4352,49.2593 78.6212,48.8023 80.8402,48.3533 L80.8932,48.3433 C82.3592,48.0473 83.0212,50.1093 81.6752,50.7313 C61.4382,60.0943 39.3482,50.0103 28.3772,35.9643 C26.8792,34.0473 27.2192,31.2793 29.1362,29.7813 C31.0532,28.2843 33.8212,28.6243 35.3192,30.5413 L35.3802,30.6193 Z" id="Fill-41" fill="#FAB9AF"></path>
                    <path d="M42.1483,37.4 C39.1893,34.744 35.1673,29.832 35.1673,29.832 C35.1673,29.832 33.3833,27.724 29.7123,29.261 C26.7803,30.489 27.3743,33.953 27.3743,33.953 C27.4453,34.435 29.2233,39.356 35.9643,44.409 C35.9643,44.409 42.6453,37.846 42.1483,37.4" id="Fill-43" fill="#96DBBF"></path>
                    <path d="M39.6478,23.5841 L39.3848,23.6431 C37.3778,24.0891 35.3898,22.8241 34.9428,20.8171 L33.7488,15.4481 L37.6458,14.5811 L39.6478,23.5841 Z" id="Fill-45" fill="#CD5014"></path>
                    <polygon id="Fill-47" fill="#FAB9AF" points="43.1287 28.7003 35.7797 28.7003 37.8987 21.3723 42.9087 21.9923"></polygon>
                    <path d="M42.9085,21.9923 L37.8985,21.3723 L36.9105,24.7873 C38.0325,26.0523 39.6965,28.0143 41.5195,28.0143 C42.0975,28.0143 42.6245,27.8513 43.0985,27.5503 L42.9085,21.9923 Z" id="Fill-49" fill="#FA968C"></path>
                    <path d="M43.6668,25.8868 L43.6668,25.8868 C40.3668,26.6208 37.0968,24.5408 36.3628,21.2408 L34.8828,14.5848 L45.1308,12.3058 C45.1308,12.3058 46.2868,17.5018 46.3198,21.1748 C46.3448,23.9298 45.3488,25.5128 43.6668,25.8868" id="Fill-51" fill="#FAB9AF"></path>
                    <polygon id="Fill-53" fill="#CD5014" points="36.8299 16.8312 34.9039 17.2592 35.0989 18.1322 37.0239 17.7042"></polygon>
                    <path d="M37.8206,19.5953 C38.1096,20.8943 37.7216,22.0853 36.9556,22.2563 C36.1886,22.4263 34.9646,20.9123 34.6756,19.6133 C34.3866,18.3143 35.1426,17.7233 35.9096,17.5533 C36.6756,17.3823 37.5316,18.2963 37.8206,19.5953" id="Fill-55" fill="#FAB9AF"></path>
                    <path d="M46.4505,14.8849 C46.5065,14.0029 46.3625,13.1189 46.0305,12.3009 C45.2055,10.2669 42.9295,9.3929 40.8585,10.1139 C40.6465,10.1879 40.4225,10.2519 40.1855,10.3039 L36.7265,11.0719 C34.6475,11.5339 33.3365,13.5929 33.7985,15.6719 L33.9785,16.4779 L36.0285,17.6669 L36.8645,19.1229 L37.0005,19.0929 C37.6595,18.9459 38.0855,18.3119 37.9825,17.6539 C37.8125,16.5669 38.3525,15.5049 39.4265,15.2659 L42.4955,14.5839 C44.3645,14.1679 45.5595,14.9559 45.8695,16.3529 L46.0375,17.5569 L46.4505,14.8849 Z" id="Fill-57" fill="#CD5014"></path>
                    <path d="M84.261,47.3829 C84.261,47.3829 80.573,47.6429 80.279,48.7949 C79.985,49.9469 79.998,50.7749 81.659,51.2649 C83.32,51.7559 85.833,51.6369 87.325,51.2639 C88.817,50.8919 91.054,49.2119 91.175,48.8729 C91.615,47.6429 88.983,48.6019 87.685,49.0039 C86.388,49.4059 84.883,49.7309 84.866,49.0519 C84.849,48.3729 87.391,47.7899 87.629,47.0049 C87.867,46.2209 84.261,47.3829 84.261,47.3829" id="Fill-59" fill="#FAB9AF"></path>
                    <path d="M36.6483,54.382 L1.1013,248.39" id="Stroke-61" stroke="#82C8E6" stroke-width="2.203" stroke-linecap="round"></path>
                    <path d="M43.1512,248.3898 L78.6982,54.3818" id="Stroke-63" stroke="#82C8E6" stroke-width="2.203" stroke-linecap="round"></path>
                    <path d="M75.348,66.9171 L34.246,66.9171" id="Stroke-65" stroke="#82C8E6" stroke-width="2.203" stroke-linecap="round"></path>
                    <path d="M72.6155,85.7457 L30.9405,85.7457" id="Stroke-67" stroke="#82C8E6" stroke-width="2.203" stroke-linecap="round"></path>
                    <path d="M68.8167,104.5748 L27.5137,104.5748" id="Stroke-69" stroke="#82C8E6" stroke-width="2.203" stroke-linecap="round"></path>
                    <path d="M65.1439,123.4034 L24.0869,123.4034" id="Stroke-71" stroke="#82C8E6" stroke-width="2.203" stroke-linecap="round"></path>
                    <path d="M62.1927,142.2325 L20.6607,142.2325" id="Stroke-73" stroke="#82C8E6" stroke-width="2.203" stroke-linecap="round"></path>
                    <path d="M59.4041,160.7257 L17.2951,160.7257" id="Stroke-75" stroke="#82C8E6" stroke-width="2.203" stroke-linecap="round"></path>
                    <path d="M55.2713,179.8898 L13.8073,179.8898" id="Stroke-77" stroke="#82C8E6" stroke-width="2.203" stroke-linecap="round"></path>
                    <path d="M52.4305,198.7189 L10.8535,198.7189" id="Stroke-79" stroke="#82C8E6" stroke-width="2.203" stroke-linecap="round"></path>
                    <path d="M48.3235,217.4464 L6.7465,217.4464" id="Stroke-81" stroke="#82C8E6" stroke-width="2.203" stroke-linecap="round"></path>
                    <path d="M78.6981,54.382 L113.9501,248.883" id="Stroke-83" stroke="#FFFFFF" stroke-width="2.203" stroke-linecap="round"></path>
                    <path d="M71.9002,248.8829 L36.6482,54.3819" id="Stroke-85" stroke="#FFFFFF" stroke-width="2.203" stroke-linecap="round"></path>
                    <path d="M39.9984,66.9171 L80.9794,66.9171" id="Stroke-87" stroke="#FFFFFF" stroke-width="2.203" stroke-linecap="round"></path>
                    <path d="M42.7308,85.7457 L84.4058,85.7457" id="Stroke-89" stroke="#FFFFFF" stroke-width="2.203" stroke-linecap="round"></path>
                    <path d="M46.5296,104.5748 L87.8326,104.5748" id="Stroke-91" stroke="#FFFFFF" stroke-width="2.203" stroke-linecap="round"></path>
                    <path d="M50.2029,123.4034 L91.2589,123.4034" id="Stroke-93" stroke="#FFFFFF" stroke-width="2.203" stroke-linecap="round"></path>
                    <path d="M53.1536,142.2325 L94.6856,142.2325" id="Stroke-95" stroke="#FFFFFF" stroke-width="2.203" stroke-linecap="round"></path>
                    <path d="M55.9422,160.7257 L98.0512,160.7257" id="Stroke-97" stroke="#FFFFFF" stroke-width="2.203" stroke-linecap="round"></path>
                    <path d="M60.075,179.8898 L101.539,179.8898" id="Stroke-99" stroke="#FFFFFF" stroke-width="2.203" stroke-linecap="round"></path>
                    <path d="M62.9158,198.7189 L104.4928,198.7189" id="Stroke-101" stroke="#FFFFFF" stroke-width="2.203" stroke-linecap="round"></path>
                    <path d="M66.5301,217.4464 L108.1071,217.4464" id="Stroke-103" stroke="#FFFFFF" stroke-width="2.203" stroke-linecap="round"></path>
                    <path d="M36.1014,12.4586 C35.8664,14.3566 42.6904,16.7626 44.4904,16.9856 C46.2904,17.2076 47.9394,15.8486 48.1734,13.9496 C48.4084,12.0506 47.1394,10.3316 45.3394,10.1086 C43.5394,9.8866 36.3354,10.5596 36.1014,12.4586" id="Fill-105" fill="#CD5014"></path>
                    <path d="M268.3201,183.379 C268.3201,183.379 265.8351,184.622 264.4621,184.194 C263.0881,183.767 264.0521,183.21 264.3391,183.379 C264.6251,183.548 266.1691,182.792 266.1691,182.792 C266.1691,182.792 267.2161,182.752 268.3201,183.379" id="Fill-107" fill="#FAB9AF"></path>
                    <path d="M100.4197,117.0519 C100.4197,117.0519 100.1057,120.6709 98.9687,120.9419 C97.8327,121.2119 97.0197,121.1849 96.5647,119.5459 C96.1097,117.9059 96.2667,115.4399 96.6557,113.9799 C97.0457,112.5199 98.7327,110.3489 99.0667,110.2359 C100.2827,109.8239 99.2987,112.3939 98.8827,113.6619 C98.4667,114.9299 98.1237,116.4039 98.7897,116.4309 C99.4567,116.4589 100.0707,113.9699 100.8447,113.7489 C101.6187,113.5289 100.4197,117.0519 100.4197,117.0519" id="Fill-109" fill="#FA968C"></path>
                    <path d="M218.9598,244.0597 L218.9598,58.7137 C218.9598,55.1947 216.1058,52.3417 212.5878,52.3417 L114.0488,52.3417 C110.5298,52.3417 107.6768,55.1947 107.6768,58.7137 L107.6768,244.0597 L218.9598,244.0597 Z" id="Fill-111" fill="#46738C"></path>
                    <path d="M218.9598,244.5031 C218.9598,248.0221 216.1058,250.8751 212.5878,250.8751 L114.0488,250.8751 C110.5298,250.8751 107.6768,248.0221 107.6768,244.5031 L107.6768,227.1991 L218.9598,227.1991 L218.9598,244.5031 Z" id="Fill-113" fill="#3C5A73"></path>
                    <mask id="mask-4" fill="white">
                        <use xlink:href="#path-3"></use>
                    </mask>
                    <g id="Clip-116"></g>
                    <polygon id="Fill-115" fill="#C8E6EB" mask="url(#mask-4)" points="114.65 227.199 211.986 227.199 211.986 65.495 114.65 65.495"></polygon>
                    <polygon id="Fill-117" fill="#3C5A73" mask="url(#mask-4)" points="114.637 76.072 211.973 76.072 211.973 65.464 114.637 65.464"></polygon>
                    <path d="M170.2938,239.0822 C170.2938,242.9352 167.1708,246.0582 163.3178,246.0582 C159.4658,246.0582 156.3428,242.9352 156.3428,239.0822 C156.3428,235.2292 159.4658,232.1062 163.3178,232.1062 C167.1708,232.1062 170.2938,235.2292 170.2938,239.0822" id="Fill-118" fill="#6C9BAA" mask="url(#mask-4)"></path>
                    <polygon id="Fill-119" fill="#46738C" mask="url(#mask-4)" points="121.344 71.436 158.26 71.436 158.26 70.164 121.344 70.164"></polygon>
                    <polygon id="Fill-120" fill="#46738C" mask="url(#mask-4)" points="206.102 72.497 209.284 72.497 209.284 69.527 206.102 69.527"></polygon>
                    <polygon id="Fill-121" fill="#46738C" mask="url(#mask-4)" points="199.737 72.497 202.919 72.497 202.919 69.527 199.737 69.527"></polygon>
                    <polygon id="Fill-122" fill="#46738C" mask="url(#mask-4)" points="193.373 72.497 196.555 72.497 196.555 69.527 193.373 69.527"></polygon>
                    <polygon id="Fill-123" fill="#FF8291" mask="url(#mask-4)" points="196.497 119.49 207.693 119.49 207.693 90.214 196.497 90.214"></polygon>
                    <polygon id="Fill-124" fill="#FF8291" mask="url(#mask-4)" points="186.913 139.982 198.108 139.982 198.108 90.214 186.913 90.214"></polygon>
                    <path d="M185.4861,85.9689 L101.9051,85.9689 C100.1321,85.9689 98.6961,87.4059 98.6961,89.1779 L98.6961,124.6709 C98.6961,126.4439 100.1321,127.8809 101.9051,127.8809 L185.4861,127.8809 C187.2581,127.8809 188.6951,126.4439 188.6951,124.6709 L188.6951,89.1779 C188.6951,87.4059 187.2581,85.9689 185.4861,85.9689" id="Fill-125" fill="#000000" mask="url(#mask-4)"></path>
                    <path d="M185.4861,84.6959 L101.9051,84.6959 C100.1321,84.6959 98.6961,86.1329 98.6961,87.9049 L98.6961,123.3989 C98.6961,125.1709 100.1321,126.6079 101.9051,126.6079 L185.4861,126.6079 C187.2581,126.6079 188.6951,125.1709 188.6951,123.3989 L188.6951,87.9049 C188.6951,86.1329 187.2581,84.6959 185.4861,84.6959" id="Fill-126" fill="#FFFFFF" mask="url(#mask-4)"></path>
                    <path d="M275.0613,242.0577 L275.0983,242.5857 C275.1823,243.7817 274.8193,246.4907 274.1143,247.4217 C275.1133,247.3357 278.9613,246.6827 280.8393,241.0697 C280.5093,240.7517 280.1653,240.4177 279.8803,240.1367 C279.5363,239.7957 279.0243,239.4767 278.5473,239.2217 C277.7033,238.7697 276.9903,238.1097 276.4963,237.2887 L272.0863,229.9707 L271.2903,234.8707 L274.0403,239.0427 C274.6343,239.9437 274.9863,240.9817 275.0613,242.0577" id="Fill-127" fill="#FAB9AF" mask="url(#mask-4)"></path>
                    <path d="M276.5994,249.8409 C277.3714,249.5839 281.5734,242.8299 281.5734,242.8299 C281.8274,242.4639 281.7804,241.9699 281.4574,241.6619 C281.0934,241.3149 280.6254,240.8629 280.2034,240.4509 C279.1674,243.8629 276.9304,247.5309 274.0384,247.2619 C272.8644,247.1529 270.7824,248.2069 270.8094,249.9199 C271.9154,250.0589 274.7254,250.1469 276.5994,249.8409" id="Fill-128" fill="#965028" mask="url(#mask-4)"></path>
                    <path d="M85.7928,138.1007 C91.7698,136.3617 97.3678,119.2437 97.0028,120.2437 C97.5218,118.8207 99.6558,119.4147 99.3918,120.8877 C98.6808,124.8617 97.8218,128.8427 96.3718,132.7777 C93.6488,140.7807 87.9198,146.9817 79.8038,143.8387 C73.9178,141.4847 68.6638,134.5097 65.8218,129.2607 C64.6828,127.1577 65.4648,124.5287 67.5678,123.3897 C69.7878,122.1877 72.5708,123.1277 73.5968,125.4557 C75.4828,129.7357 81.2098,139.5517 85.7928,138.1007" id="Fill-129" fill="#FA968C" mask="url(#mask-4)"></path>
                    <path d="M79.1785,134.2609 C79.1715,134.2499 74.2435,126.9919 73.6435,125.5579 L73.6145,125.4859 C73.5665,125.3709 73.5125,125.2579 73.4535,125.1459 C72.3385,123.0279 69.7185,122.2149 67.6005,123.3299 C65.4825,124.4449 64.6695,127.0649 65.7845,129.1829 C66.8295,131.1689 67.8425,132.7929 68.9985,134.5029 C69.7815,135.6309 70.6135,136.7259 71.4705,137.8039 C72.1095,137.1219 77.6525,134.8079 79.1785,134.2609" id="Fill-130" fill="#FFDC64" mask="url(#mask-4)"></path>
                    <path d="M74.4783,164.8468 C70.7083,169.1718 48.9463,170.9778 48.9463,170.9778 C47.3403,169.1148 49.6883,160.6418 50.2543,152.0418 C50.8663,142.7428 51.2193,132.4798 51.3803,126.9338 C51.4473,124.6458 53.3213,122.8298 55.6103,122.8298 L69.4203,122.8298 C71.5493,122.8298 73.3213,124.4538 73.4963,126.5758 C73.8583,130.9658 74.4883,138.5978 75.1103,146.0788 C75.7423,153.6708 77.7373,161.1078 74.4783,164.8468" id="Fill-131" fill="#FAB9AF" mask="url(#mask-4)"></path>
                    <path d="M46.8338,236.799 L44.1348,245.699 L43.3918,249.868 C43.2628,250.59 43.7968,251.257 44.5298,251.279 C48.0338,251.388 57.0058,251.624 57.2458,251.236 C58.3748,249.41 53.2748,248.708 49.5438,247.264 C47.7918,246.586 50.9368,237.731 50.9368,237.731 C51.0608,233.773 48.3878,231.655 48.3878,231.655 L46.8338,236.799 Z" id="Fill-132" fill="#FA968C" mask="url(#mask-4)"></path>
                    <path d="M49.5443,247.2638 C49.5243,247.2558 49.5063,247.2428 49.4873,247.2348 C48.5983,247.5668 47.5983,247.7618 46.4703,247.7618 C45.5033,247.7618 44.6273,247.6218 43.8363,247.3738 L43.3913,249.8678 C43.2623,250.5898 43.7963,251.2568 44.5293,251.2798 C48.0333,251.3878 57.0053,251.6238 57.2463,251.2358 C58.3743,249.4098 53.2743,248.7078 49.5443,247.2638" id="Fill-133" fill="#46738C" mask="url(#mask-4)"></path>
                    <path d="M54.1194,200.7335 C52.9054,204.0255 48.0934,225.7595 46.4514,236.9765 L50.8134,237.9255 C55.4894,227.7165 62.5154,207.4875 63.7024,204.2695 C63.7174,204.2285 63.7284,204.1875 63.7444,204.1465 C68.8604,193.1815 75.0424,171.0085 75.9294,166.4385 C77.1324,160.2405 74.2034,154.4595 69.3884,153.5245 C64.5734,152.5895 59.6944,156.8565 58.4924,163.0545 C57.7374,166.9465 54.6944,199.1745 54.1194,200.7335" id="Fill-134" fill="#0073AA" mask="url(#mask-4)"></path>
                    <path d="M66.1727,176.4894 C68.6917,174.0074 71.6887,171.9844 74.9487,170.5404 C75.4267,168.7034 75.7677,167.2744 75.9297,166.4384 C77.1317,160.2404 74.2037,154.4594 69.3877,153.5244 C64.5727,152.5904 59.6947,156.8564 58.4917,163.0544 C58.1397,164.8694 57.2907,172.8414 56.4267,180.9944 C59.5247,179.1804 62.8757,177.8794 66.1727,176.4894" id="Fill-135" fill="#195FA0" mask="url(#mask-4)"></path>
                    <path d="M71.6204,236.4943 L73.4984,245.6993 L72.7554,249.8683 C72.6264,250.5903 73.1604,251.2573 73.8934,251.2793 C77.3974,251.3883 86.3694,251.6243 86.6094,251.2353 C87.7374,249.4103 82.6384,248.7083 78.9074,247.2643 C75.4914,243.7343 75.4914,234.2663 75.4914,234.2663 L71.6204,236.4943 Z" id="Fill-136" fill="#FA968C" mask="url(#mask-4)"></path>
                    <path d="M78.9075,247.2638 C78.8875,247.2558 78.8705,247.2428 78.8505,247.2348 C77.9625,247.5668 76.9615,247.7618 75.8335,247.7618 C74.8665,247.7618 73.9905,247.6218 73.1995,247.3738 L72.7555,249.8678 C72.6265,250.5898 73.1605,251.2568 73.8935,251.2798 C77.3975,251.3878 86.3695,251.6238 86.6095,251.2358 C87.7375,249.4098 82.6385,248.7078 78.9075,247.2638" id="Fill-137" fill="#46738C" mask="url(#mask-4)"></path>
                    <path d="M61.9446,205.3302 C62.4246,208.6012 68.2506,228.7582 71.9536,238.7802 L75.9906,237.5982 C75.2536,227.0402 71.9396,207.1302 71.4696,203.9322 C71.4636,203.8912 71.4546,203.8512 71.4486,203.8112 C70.7356,192.4292 66.7656,170.8782 65.4366,166.6952 C63.6356,161.0242 57.6826,157.9762 53.2766,159.3752 C48.8706,160.7742 47.6796,166.0932 49.4816,171.7642 C50.6116,175.3242 61.7166,203.7802 61.9446,205.3302" id="Fill-138" fill="#0091C8" mask="url(#mask-4)"></path>
                    <path d="M69.5516,122.8297 L67.3076,122.8297 C66.5266,124.6387 64.8736,126.0367 62.3076,126.0367 C59.7386,126.0367 58.0866,124.6387 57.3066,122.8297 L55.2586,122.8297 C53.1646,122.8297 51.4516,124.4857 51.3906,126.5787 C51.2346,132.0317 50.8806,142.5397 50.2546,152.0417 C49.6886,160.6417 47.3406,168.6327 48.9466,170.9777 C48.9466,170.9777 71.9046,169.4727 76.0736,165.5307 C77.4226,164.2547 75.7416,153.6707 75.1106,146.0797 C74.4826,138.5257 73.8456,130.8177 73.4856,126.4487 C73.3166,124.4007 71.6056,122.8297 69.5516,122.8297" id="Fill-139" fill="#FAC855" mask="url(#mask-4)"></path>
                    <path d="M89.0213,134.0509 C98.7143,129.6369 100.1373,125.0189 101.8083,127.0619 C102.1873,127.5249 102.1753,128.1779 101.8163,128.6269 C83.7903,151.1519 61.2223,144.7759 50.5263,129.8099 C47.2333,125.2029 54.1573,120.1119 57.5673,124.7789 C66.0953,136.4479 77.8973,138.9879 89.0213,134.0509" id="Fill-140" fill="#FAB9AF" mask="url(#mask-4)"></path>
                    <path d="M64.1697,131.2618 C61.2617,128.6528 57.3117,123.9428 57.3117,123.9428 C57.3117,123.9428 55.5587,121.8708 51.9527,123.3818 C49.0717,124.5878 49.6547,127.9908 49.6547,127.9908 C49.7247,128.4648 51.6007,133.1558 58.2227,138.1188 C58.2227,138.1188 64.6577,131.6988 64.1697,131.2618" id="Fill-141" fill="#FFDC64" mask="url(#mask-4)"></path>
                    <path d="M61.7132,117.8038 L61.4542,117.8618 C59.4832,118.2998 57.5292,117.0568 57.0912,115.0858 L55.9182,109.8108 L59.7462,108.9588 L61.7132,117.8038 Z" id="Fill-142" fill="#1E2D64" mask="url(#mask-4)"></path>
                    <polygon id="Fill-143" fill="#FAB9AF" mask="url(#mask-4)" points="65.1331 122.8297 57.9131 122.8297 59.9941 115.6307 64.9161 116.2397"></polygon>
                    <path d="M64.9163,116.2399 L59.9943,115.6309 L59.0243,118.9859 C60.1263,120.2279 61.7603,122.1569 63.5513,122.1569 C64.1203,122.1569 64.6373,121.9959 65.1033,121.6999 L64.9163,116.2399 Z" id="Fill-144" fill="#FA968C" mask="url(#mask-4)"></path>
                    <path d="M65.6614,120.0665 L65.6614,120.0665 C62.4194,120.7875 59.2064,118.7435 58.4864,115.5015 L57.0324,108.9625 L67.0994,106.7235 C67.0994,106.7235 68.2354,111.8285 68.2674,115.4365 C68.2924,118.1435 67.3144,119.6985 65.6614,120.0665" id="Fill-145" fill="#FAB9AF" mask="url(#mask-4)"></path>
                    <polygon id="Fill-146" fill="#1E2D64" mask="url(#mask-4)" points="58.9446 111.1691 57.0526 111.5901 57.2436 112.4481 59.1356 112.0271"></polygon>
                    <path d="M59.9183,113.8854 C60.2023,115.1614 59.8213,116.3314 59.0673,116.4994 C58.3143,116.6664 57.1113,115.1784 56.8283,113.9034 C56.5443,112.6274 57.2873,112.0464 58.0403,111.8784 C58.7933,111.7114 59.6343,112.6094 59.9183,113.8854" id="Fill-147" fill="#FAB9AF" mask="url(#mask-4)"></path>
                    <path d="M68.3963,109.2574 C68.4513,108.3904 68.3103,107.5234 67.9833,106.7184 C67.1733,104.7204 64.9383,103.8614 62.9023,104.5704 C62.6943,104.6424 62.4743,104.7054 62.2413,104.7574 L58.8423,105.5114 C56.8003,105.9654 55.5133,107.9884 55.9673,110.0304 L56.1433,110.8224 L58.1573,111.9904 L58.9793,113.4214 L59.1123,113.3914 C59.7603,113.2474 60.1783,112.6244 60.0773,111.9774 C59.9103,110.9094 60.4403,109.8664 61.4953,109.6324 L64.5113,108.9614 C66.3473,108.5534 67.5213,109.3264 67.8263,110.6994 L67.9903,111.8824 L68.3963,109.2574 Z" id="Fill-148" fill="#1E2D64" mask="url(#mask-4)"></path>
                    <path d="M58.2288,106.8737 C57.9988,108.7387 64.7028,111.1027 66.4708,111.3207 C68.2388,111.5397 69.8588,110.2047 70.0888,108.3387 C70.3198,106.4737 69.0728,104.7837 67.3048,104.5657 C65.5368,104.3477 58.4588,105.0077 58.2288,106.8737" id="Fill-149" fill="#1E2D64" mask="url(#mask-4)"></path>
                    <path d="M237.0184,108.7521 C237.0184,108.7521 238.1534,111.3111 237.3124,113.9201 C236.4724,116.5301 236.9924,119.7611 239.1644,122.1261 C239.1644,122.1261 239.5844,118.4321 240.3204,116.6631 C241.0554,114.8941 240.5724,109.6871 237.0184,108.7521" id="Fill-150" fill="#FFFFFF" mask="url(#mask-4)"></path>
                    <path d="M242.7078,107.6383 C242.7078,107.6383 238.8148,110.0873 239.2888,113.3883 C239.2888,113.3883 237.2098,111.9153 236.7388,106.8443 C236.4128,103.3303 242.7078,107.6383 242.7078,107.6383" id="Fill-151" fill="#FFFFFF" mask="url(#mask-4)"></path>
                    <path d="M264.0203,123.0158 C262.0753,122.1548 260.4583,120.6828 259.6803,118.7028 C258.4193,115.4958 256.0973,112.9738 253.2333,111.7398 C251.8133,111.1278 250.8743,109.7588 250.8743,108.2128 L247.0273,108.2128 L247.0273,111.1478 C241.7403,112.3438 237.7483,117.7418 237.7483,124.2268 C237.7483,131.3338 242.5443,137.1248 248.5833,137.5198 C249.4403,143.9008 254.1823,148.7878 259.9213,148.7878 C266.2673,148.7878 271.4113,142.8198 271.4113,135.4568 C271.4113,129.7718 268.3403,124.9278 264.0203,123.0158" id="Fill-152" fill="#FFFFFF" mask="url(#mask-4)"></path>
                    <path d="M239.7664,134.1984 C232.5764,146.7444 217.3684,140.7014 205.4954,131.6724 C204.3374,130.7924 205.4394,128.9764 206.7534,129.5964 C217.4934,134.6684 232.3924,139.4434 233.3974,127.6494 C233.4084,127.5474 233.4204,127.3444 233.4064,127.4074 C233.9314,120.8924 246.7054,122.1754 239.7664,134.1984" id="Fill-153" fill="#FAB9AF" mask="url(#mask-4)"></path>
                    <path d="M232.9647,164.5148 C236.6627,168.7588 258.0127,170.5308 258.0127,170.5308 C259.5887,168.7018 252.2457,147.8278 252.2457,147.8278 C252.2457,147.8278 255.7827,132.7608 255.6247,127.3208 C255.5597,125.0748 253.7217,123.2938 251.4757,123.2938 L237.9267,123.2938 C235.8387,123.2938 234.0997,124.8878 233.9287,126.9688 C233.5727,131.2768 239.1997,147.3558 239.1997,147.3558 C239.1997,147.3558 229.7677,160.8458 232.9647,164.5148" id="Fill-154" fill="#FAB9AF" mask="url(#mask-4)"></path>
                    <path d="M245.5184,248.8302 C248.0914,248.7562 249.3164,248.3402 250.6454,247.7182 L250.1294,244.7592 C250.0904,244.5332 250.0764,244.3032 250.0854,244.0732 L250.4044,236.8632 C250.4504,235.8342 249.9554,234.8542 249.0994,234.2792 C248.0574,233.5802 246.6694,234.3752 246.7434,235.6292 C246.9624,239.3552 246.9444,245.1922 244.7574,245.9332 C244.1224,246.1472 240.1384,247.5072 239.4664,247.7032 C241.0374,248.3562 244.1394,248.8692 245.5184,248.8302" id="Fill-155" fill="#FA968C" mask="url(#mask-4)"></path>
                    <path d="M244.6102,248.0079 C243.0382,248.0079 241.5162,247.8559 240.0422,247.5869 C239.8402,247.5499 239.6312,247.5639 239.4372,247.6309 C237.7202,248.2219 236.6082,248.8549 237.1862,249.7989 C237.4212,250.1809 246.2232,249.9839 249.6622,249.8919 C250.3812,249.8729 250.9072,249.2199 250.7842,248.5119 L250.5582,247.2209 C248.6152,247.7159 246.6222,248.0079 244.6102,248.0079" id="Fill-156" fill="#965028" mask="url(#mask-4)"></path>
                    <path d="M251.2322,208.2316 C253.7742,211.9046 274.3682,240.1166 275.3922,238.9916 C276.2812,238.0146 261.5412,206.5296 258.9992,202.8566 C256.4572,199.1836 252.4812,198.5026 250.3362,199.9866 C248.1922,201.4706 248.6902,204.5586 251.2322,208.2316" id="Fill-157" fill="#FAB9AF" mask="url(#mask-4)"></path>
                    <path d="M240.534,207.0079 C241.054,209.9279 244.846,225.9329 247.384,236.2279 C248.667,241.4359 249.224,245.2339 249.695,245.0329 C250.91,244.5169 250.615,209.7519 249.833,205.3549 C249.051,200.9569 246.336,197.7619 243.767,198.2189 C241.2,198.6749 239.752,202.6109 240.534,207.0079" id="Fill-158" fill="#FA968C" mask="url(#mask-4)"></path>
                    <path d="M233.368,168.1437 C233.702,173.9727 238.945,210.6997 243.472,210.4397 C248.001,210.1807 250.099,173.0337 249.765,167.2057 C249.432,161.3767 245.491,156.8627 240.963,157.1217 C236.435,157.3807 233.035,162.3157 233.368,168.1437" id="Fill-159" fill="#FA968C" mask="url(#mask-4)"></path>
                    <path d="M246.8035,236.92 C247.2575,237.255 250.0485,237.334 250.5435,236.896 C250.8185,226.204 250.3775,208.419 249.8325,205.355 C249.7745,205.024 249.7035,204.7 249.6245,204.385 C248.5285,200.047 247.9495,195.591 248.4175,191.142 C249.4845,181.028 249.9345,170.142 249.7655,167.205 C249.4325,161.377 245.4915,156.862 240.9625,157.121 C236.4355,157.381 233.2265,161.825 233.2175,167.663 C233.1955,181.754 246.7495,236.692 246.8035,236.92" id="Fill-160" fill="#6544AA" mask="url(#mask-4)"></path>
                    <path d="M241.8065,177.0079 C244.3055,180.8619 246.6025,184.8279 248.6415,188.9049 C249.5455,179.4729 249.9215,169.9259 249.7655,167.2049 C249.4325,161.3769 245.4915,156.8619 240.9625,157.1209 C236.4355,157.3809 233.2265,161.8249 233.2175,167.6629 C233.2165,168.1599 233.2375,168.7209 233.2685,169.3159 C236.2965,171.1159 238.9075,173.5289 240.9965,176.3649 C241.3025,176.4669 241.5875,176.6699 241.8065,177.0079" id="Fill-161" fill="#57388C" mask="url(#mask-4)"></path>
                    <path d="M240.3309,166.7638 C240.4309,172.6008 246.9789,205.8638 251.5149,205.7848 C256.0499,205.7068 257.6679,172.1868 257.5669,166.3498 C257.4669,160.5128 252.8939,155.9758 248.3599,156.0538 C243.8249,156.1318 240.2299,160.9268 240.3309,166.7638" id="Fill-162" fill="#FAB9AF" mask="url(#mask-4)"></path>
                    <path d="M274.5975,233.7726 C270.8765,224.5846 260.9545,205.6826 258.9985,202.8566 C257.7465,201.0476 257.6405,170.5986 257.5675,166.3496 C257.4665,160.5126 252.8945,155.9756 248.3605,156.0536 C243.8255,156.1316 239.5825,160.8196 239.6825,166.6576 C239.7655,171.4846 244.4365,197.0156 251.2325,208.2316 C253.0145,211.1726 265.8445,228.6676 272.0315,235.9946 C272.7465,235.7726 274.1835,234.8026 274.5975,233.7726" id="Fill-163" fill="#7450C8" mask="url(#mask-4)"></path>
                    <path d="M252.2459,147.8273 C252.2459,147.8273 255.7679,132.3213 255.6139,126.9713 C255.5559,124.9183 253.8739,123.2943 251.8199,123.2943 L249.8109,123.2943 C249.0469,125.0683 247.4249,126.4393 244.9039,126.4393 C242.3879,126.4393 240.7669,125.0683 239.9999,123.2943 L238.1129,123.2943 C240.1639,127.6833 234.8599,128.6813 235.8989,136.8513 C237.3969,142.1463 239.1999,147.3553 239.1999,147.3553 C239.1999,147.3553 229.7669,160.8463 232.9649,164.5143 C236.6629,168.7593 258.0129,170.5303 258.0129,170.5303 C259.5889,168.2293 252.2459,147.8273 252.2459,147.8273" id="Fill-164" fill="#FA735F" mask="url(#mask-4)"></path>
                    <polygon id="Fill-165" fill="#FAB9AF" mask="url(#mask-4)" points="242.7078 124.2267 248.8538 123.5807 246.9088 116.8547 242.9338 117.3477"></polygon>
                    <path d="M242.9334,117.3473 L246.9094,116.8553 L247.5164,118.9553 C246.6264,119.9583 245.4834,122.1253 244.0364,122.1253 C243.5774,122.1253 243.1594,121.9963 242.7834,121.7573 L242.9334,117.3473 Z" id="Fill-166" fill="#FA968C" mask="url(#mask-4)"></path>
                    <path d="M242.7967,120.5988 C244.1467,120.5988 245.6067,119.9228 247.6167,118.1658 C248.7717,117.1578 249.6277,115.3988 249.6277,114.2098 L249.6277,107.6388 L239.5087,107.6388 C239.5087,107.6388 238.7497,111.1278 239.4857,114.5908 C240.0387,117.1878 241.7347,120.5988 242.7967,120.5988" id="Fill-167" fill="#FAB9AF" mask="url(#mask-4)"></path>
                    <polygon id="Fill-168" fill="#FFFFFF" mask="url(#mask-4)" points="248.265 111.021 250.166 111.021 250.166 110.159 248.265 110.159"></polygon>
                    <path d="M247.9119,112.9674 C247.9119,114.2494 248.5249,115.2894 249.2829,115.2894 C250.0399,115.2894 250.8749,113.6084 250.8749,112.3254 C250.8749,111.0434 250.0399,110.6454 249.2829,110.6454 C248.5249,110.6454 247.9119,111.6854 247.9119,112.9674" id="Fill-169" fill="#FAB9AF" mask="url(#mask-4)"></path>
                    <path d="M247.158,104.7194 L243.743,104.7204 C242.813,104.7204 241.909,104.4894 241.108,104.0594 C239.816,103.3684 238.188,103.5674 237.353,104.7714 C236.527,105.9634 236.238,107.5214 238.418,108.9674 C239.539,109.7104 241.176,108.8874 242.267,109.2434 C242.335,109.2404 242.394,109.2304 242.465,109.2304 L245.495,109.2304 C246.555,109.2304 247.286,110.1154 247.353,111.1744 C247.394,111.8154 247.927,112.3224 248.579,112.3224 L248.713,112.3224 L249.194,110.7784 L250.875,109.2304 L250.875,108.4344 C250.875,106.3824 249.211,104.7184 247.158,104.7194" id="Fill-170" fill="#FFFFFF" mask="url(#mask-4)"></path>
                    <path d="M202.8875,128.3253 C202.8875,128.3253 204.2145,131.6343 205.3585,131.5633 C206.5025,131.4933 207.2575,131.2363 207.2175,129.5673 C207.1775,127.8993 206.3275,125.6283 205.5455,124.3693 C204.7635,123.1103 202.5625,121.5523 202.2165,121.5413 C200.9575,121.5013 202.6145,123.6333 203.3655,124.7053 C204.1165,125.7773 204.8595,127.0623 204.2415,127.2783 C203.6225,127.4933 202.3375,125.3333 201.5475,125.3463 C200.7585,125.3593 202.8875,128.3253 202.8875,128.3253" id="Fill-171" fill="#FAB9AF" mask="url(#mask-4)"></path>
                    <path d="M240.0106,108.3776 C240.6146,109.7326 240.3416,110.6256 245.1446,111.7726 C249.9466,112.9186 251.1126,111.6206 252.9766,113.6846 C252.9766,113.6846 251.5346,109.8516 248.8536,109.0856 C246.1726,108.3186 241.8386,108.4656 239.8336,105.6356 C239.8336,105.6356 239.5976,107.4516 240.0106,108.3776" id="Fill-172" fill="#FFFFFF" mask="url(#mask-4)"></path>
                    <path d="M257.367,125.42 C262.56,134.53 267.864,153.195 267.506,175.735 C267.496,176.409 266.94,176.946 266.267,176.936 C265.719,176.927 265.209,176.554 265.085,175.932 C258.663,143.703 249.981,129.607 249.981,129.607 C247.22,124.709 254.633,120.57 257.367,125.42" id="Fill-173" fill="#FAB9AF" mask="url(#mask-4)"></path>
                    <path d="M103.3397,125.2272 C103.3397,125.2272 99.8007,126.0482 99.6937,127.2112 C99.5857,128.3742 99.7267,129.1752 101.4137,129.3952 C103.1017,129.6152 105.5207,129.1122 106.9107,128.5202 C108.3017,127.9292 110.2137,125.9542 110.2777,125.6072 C110.5147,124.3452 108.1087,125.6822 106.9117,126.2712 C105.7157,126.8622 104.3057,127.4102 104.1837,126.7532 C104.0627,126.0972 106.4397,125.1392 106.5497,124.3412 C106.6597,123.5432 103.3397,125.2272 103.3397,125.2272" id="Fill-174" fill="#FAB9AF" mask="url(#mask-4)"></path>
                    <path d="M68.264,114.5958 C68.273,115.2038 68.232,115.7508 68.145,116.2378 C67.978,117.1718 66.905,117.5798 66.108,117.0628 C65.79,116.8568 65.445,116.7728 65.109,116.8468 C64.782,116.9198 64.51,117.1338 64.31,117.4418 C63.594,118.5478 62.001,118.6618 61.014,117.7898 C60.735,117.5428 60.476,117.2678 60.243,116.9688 C59.897,116.5238 59.344,116.2948 58.794,116.4168 L58.763,116.4238 L59.594,120.4438 C60.315,123.6848 63.364,125.7648 66.405,125.0888 C67.955,124.7438 68.855,123.2068 68.796,120.5078 C68.728,117.3968 68.495,115.6868 68.264,114.5958" id="Fill-175" fill="#1E2D64" mask="url(#mask-4)"></path>
                    <path d="M100.845,113.7491 C100.071,113.9701 99.457,116.4581 98.79,116.4311 C98.407,116.4151 98.363,115.9181 98.468,115.2631 C97.888,116.1701 97.153,116.9701 96.301,117.6261 C96.327,118.3141 96.408,118.9791 96.565,119.5451 C97.02,121.1851 97.832,121.2111 98.969,120.9411 C100.105,120.6711 100.42,117.0521 100.42,117.0521 C100.42,117.0521 101.619,113.5281 100.845,113.7491" id="Fill-176" fill="#FA968C" mask="url(#mask-4)"></path>
                    <polygon id="Fill-177" fill="#FFDCD7" mask="url(#mask-4)" points="104.981 117.404 125.588 117.404 125.588 93.075 104.981 93.075"></polygon>
                    <polygon id="Fill-178" fill="#FFDCD7" mask="url(#mask-4)" points="132.589 95.41 159.745 95.41 159.745 93.076 132.589 93.076"></polygon>
                    <polygon id="Fill-179" fill="#FFDCD7" mask="url(#mask-4)" points="132.589 102.623 174.172 102.623 174.172 100.29 132.589 100.29"></polygon>
                    <polygon id="Fill-180" fill="#FFDCD7" mask="url(#mask-4)" points="132.589 109.837 174.172 109.837 174.172 107.504 132.589 107.504"></polygon>
                    <polygon id="Fill-181" fill="#FFDCD7" mask="url(#mask-4)" points="132.589 117.05 174.172 117.05 174.172 114.717 132.589 114.717"></polygon>
                    <polygon id="Fill-182" fill="#FFEBB4" mask="url(#mask-4)" points="257.639 209.856 274.002 209.856 274.002 189.04 257.639 189.04"></polygon>
                    <polygon id="Fill-183" fill="#FFDC8C" mask="url(#mask-4)" points="257.639 193.891 274.002 193.891 274.002 189.039 257.639 189.039"></polygon>
                    <path d="M275.4315,192.3283 L256.2085,192.3283 L256.2085,190.6963 C256.2085,189.7813 256.9515,189.0393 257.8675,189.0393 L273.7635,189.0393 C274.6845,189.0393 275.4315,189.7853 275.4315,190.7063 L275.4315,192.3283 Z" id="Fill-184" fill="#FFFAD7" mask="url(#mask-4)"></path>
                    <path d="M258.7449,189.0392 C258.7449,185.2572 261.8099,182.1912 265.5929,182.1912 C269.3749,182.1912 272.4399,185.2572 272.4399,189.0392" id="Stroke-185" stroke="#0091C8" stroke-width="1.159" mask="url(#mask-4)"></path>
                    <path d="M270.3318,199.4474 L270.3318,199.4474 C269.5628,199.4474 268.9388,198.8244 268.9388,198.0544 L268.9388,189.0394 L271.7248,189.0394 L271.7248,198.0544 C271.7248,198.8244 271.1018,199.4474 270.3318,199.4474" id="Fill-186" fill="#FF8291" mask="url(#mask-4)"></path>
                    <path d="M267.9051,193.4064 L267.9051,193.4064 C267.3341,193.4064 266.8711,192.9434 266.8711,192.3724 L266.8711,189.0394 L268.9391,189.0394 L268.9391,192.3724 C268.9391,192.9434 268.4761,193.4064 267.9051,193.4064" id="Fill-187" fill="#FF8291" mask="url(#mask-4)"></path>
                    <path d="M264.3074,183.5997 C265.0494,183.3297 265.4814,180.8537 266.1354,180.8347 C266.4554,180.8267 266.5634,181.1727 266.5504,181.6787 C266.5504,181.6787 267.6734,181.9077 268.5124,182.1917 C268.6754,180.7397 268.5774,178.9797 268.1014,177.6347 C267.5434,176.0617 266.7464,176.0907 265.6534,176.4327 C264.5594,176.7747 264.4974,180.3377 264.4974,180.3377 C264.4974,180.3377 263.5644,183.8687 264.3074,183.5997" id="Fill-188" fill="#FAB9AF" mask="url(#mask-4)"></path>
                    <path d="M192.3983,105.5182 L211.8643,105.5182 C213.4743,105.5182 214.7813,106.8242 214.7813,108.4352 L214.7813,110.8442 C214.7813,112.4552 213.4743,113.7612 211.8643,113.7612 L206.3353,113.7612 C204.7743,113.7612 203.5093,115.0262 203.5093,116.5852 L203.5093,128.5062" id="Stroke-189" stroke="#C8E6EB" stroke-width="1.273" mask="url(#mask-4)"></path>
                    <path d="M211.4656,109.5802 L195.5546,109.5802 C194.8956,109.5802 194.3606,109.0452 194.3606,108.3872 L194.3606,102.6492 C194.3606,101.9902 194.8956,101.4562 195.5546,101.4562 L211.4656,101.4562 C212.1246,101.4562 212.6586,101.9902 212.6586,102.6492 L212.6586,108.3872 C212.6586,109.0452 212.1246,109.5802 211.4656,109.5802" id="Fill-190" fill="#FAB9AF" mask="url(#mask-4)"></path>
                    <path d="M203.5096,119.9142 L203.5096,129.0372" id="Stroke-191" stroke="#87AFB9" stroke-width="2.546" mask="url(#mask-4)"></path>
                    <path d="M202.0955,125.5812 C202.0955,125.5812 205.2795,126.8312 205.3595,127.8802 C205.4385,128.9312 203.5095,129.6402 203.5095,129.6402 C203.5095,129.6402 201.1565,126.9232 202.0955,125.5812" id="Fill-192" fill="#FAB9AF" mask="url(#mask-4)"></path>
                    <polygon id="Fill-193" fill="#A5C8CD" mask="url(#mask-4)" points="123.568 161.702 203.065 161.702 203.065 148.788 123.568 148.788"></polygon>
                    <polygon id="Fill-194" fill="#87AFB9" mask="url(#mask-4)" points="123.568 180.584 203.065 180.584 203.065 167.67 123.568 167.67"></polygon>
                    <polygon id="Fill-195" fill="#A5C8CD" mask="url(#mask-4)" points="123.568 199.466 203.065 199.466 203.065 186.553 123.568 186.553"></polygon>
                    <polygon id="Fill-196" fill="#87AFB9" mask="url(#mask-4)" points="123.568 218.349 203.065 218.349 203.065 205.435 123.568 205.435"></polygon>
                    <polygon id="Fill-197" fill="#DCBE82" mask="url(#mask-4)" points="187.378 250.875 235.389 250.875 235.389 218.349 187.378 218.349"></polygon>
                    <polygon id="Fill-198" fill="#C8A06E" mask="url(#mask-4)" points="177.644 250.875 187.378 250.875 187.378 218.349 177.644 218.349"></polygon>
                    <polygon id="Fill-199" fill="#E6CA93" mask="url(#mask-4)" points="187.378 222.97 236.015 222.97 236.015 218.349 187.378 218.349"></polygon>
                    <polygon id="Fill-200" fill="#DCBE82" mask="url(#mask-4)" points="176.824 222.97 187.379 222.97 187.379 218.349 176.824 218.349"></polygon>
                    <polygon id="Fill-201" fill="#E1FAFF" mask="url(#mask-4)" points="184.19 218.349 232.303 218.349 232.303 215.751 184.19 215.751"></polygon>
                    <polygon id="Fill-202" fill="#A0EBFF" mask="url(#mask-4)" points="182.512 215.77 230.625 215.77 230.625 213.172 182.512 213.172"></polygon>
                    <polygon id="Fill-203" fill="#A0EBFF" mask="url(#mask-4)" points="182.102 210.611 230.215 210.611 230.215 208.013 182.102 208.013"></polygon>
                    <polygon id="Fill-204" fill="#6EE1FF" mask="url(#mask-4)" points="184.648 208.032 232.761 208.032 232.761 205.434 184.648 205.434"></polygon>
                    <polygon id="Fill-205" fill="#E1FAFF" mask="url(#mask-4)" points="186.037 213.191 234.15 213.191 234.15 210.593 186.037 210.593"></polygon>
                </g>
            </g>
        </g>
    </g>
</svg>