<?xml version="1.0" encoding="UTF-8"?>
<svg width="67px" height="67px" viewBox="0 0 67 67" version="1.1" xmlns="http://www.w3.org/2000/svg" xmlns:xlink="http://www.w3.org/1999/xlink">
    <!-- Generator: Sketch 53 (72520) - https://sketchapp.com -->
    <title>p-apps</title>
    <desc>Created with Sketch.</desc>
    <g id="p-apps" stroke="none" stroke-width="1" fill="none" fill-rule="evenodd" opacity="0.653515625">
        <g transform="translate(5.000000, 5.000000)" id="Group" stroke="#2E3B4E">
            <g>
                <g transform="translate(5.043478, 15.130435)" stroke-width="1.44">
                    <polygon id="Rectangle-path" transform="translate(10.717391, 9.456522) rotate(-180.000000) translate(-10.717391, -9.456522) " points="1.20085453e-09 -8.0987661e-10 21.4347826 -8.0987661e-10 21.4347826 18.9130435 1.20085453e-09 18.9130435"></polygon>
                    <path d="M21.4347826,18.9130435 L0,0" id="Shape"></path>
                    <path d="M0,18.9130435 L21.4347826,0" id="Shape"></path>
                </g>
                <g transform="translate(31.521739, 15.130435)" stroke-width="1.44">
                    <polygon id="Rectangle-path" transform="translate(10.717391, 9.456522) rotate(-180.000000) translate(-10.717391, -9.456522) " points="1.20085275e-09 -3.44835658e-09 21.4347826 -3.44835658e-09 21.4347826 18.9130435 1.20085275e-09 18.9130435"></polygon>
                    <path d="M21.4347826,18.9130435 L0,0" id="Shape"></path>
                    <path d="M0,18.9130435 L21.4347826,0" id="Shape"></path>
                </g>
                <rect id="Rectangle-path" stroke-width="2.16" x="0" y="0" width="58" height="58"></rect>
                <path d="M0,10.0869565 L58,10.0869565" id="Shape" stroke-width="1.44"></path>
                <path d="M54.2173913,5.04347826 L51.6956522,5.04347826" id="Shape" stroke-width="1.44"></path>
                <path d="M49.173913,5.04347826 L46.6521739,5.04347826" id="Shape" stroke-width="1.44"></path>
                <path d="M44.1304348,5.04347826 L41.6086957,5.04347826" id="Shape" stroke-width="1.44"></path>
                <path d="M35.3043478,5.04347826 L5.04347826,5.04347826" id="Shape" stroke-width="1.44"></path>
                <polygon id="Rectangle-path" stroke-width="1.44" points="5.04347826 39.0869565 17.6521739 39.0869565 17.6521739 52.9565217 5.04347826 52.9565217"></polygon>
                <polygon id="Rectangle-path" stroke-width="1.44" points="22.6956522 39.0869565 35.3043478 39.0869565 35.3043478 52.9565217 22.6956522 52.9565217"></polygon>
                <polygon id="Rectangle-path" stroke-width="1.44" points="40.3478261 39.0869565 52.9565217 39.0869565 52.9565217 52.9565217 40.3478261 52.9565217"></polygon>
            </g>
        </g>
    </g>
</svg>