<?xml version="1.0" encoding="UTF-8"?>
<svg width="66px" height="66px" viewBox="0 0 66 66" version="1.1" xmlns="http://www.w3.org/2000/svg" xmlns:xlink="http://www.w3.org/1999/xlink">
    <title>logo</title>
    <g id="Design" stroke="none" stroke-width="1" fill="none" fill-rule="evenodd">
        <g id="Apple-TV" transform="translate(-64.000000, -33.000000)" fill-rule="nonzero">
            <g id="logo" transform="translate(64.000000, 33.000000)">
                <path d="M65.8577708,0.737770837 L0.737770837,0.737770837 L0.737770837,65.8577708 L65.8577708,65.8577708 L65.8577708,0.737770837 Z M62.361991,4.23355065 L62.361991,62.361991 L4.23355065,62.361991 L4.23355065,4.23355065 L62.361991,4.23355065 Z" id="Rectangle" fill="#263238"></path>
                <polygon id="Line" fill="#263238" opacity="0.400251116" points="53.4895561 11.3480653 55.2474764 13.0882288 13.1059855 55.6597349 11.3480653 53.9195713"></polygon>
                <path d="M17.7936317,32.7164864 C19.2084126,32.7164864 20.4496826,32.4876291 21.5174418,32.0299143 C22.5852009,31.5721995 23.4727757,30.957554 24.1801662,30.1859777 C24.8875566,29.4144014 25.4214362,28.5185882 25.7818049,27.4985381 C26.1421736,26.4784881 26.322358,25.4192054 26.322358,24.3206899 L26.322358,24.3206899 L26.322358,4.23355065 L21.277196,4.23355065 L21.277196,22.8690803 C21.277196,24.5430085 21.0169297,25.8573038 20.4963971,26.811966 C19.9758645,27.7666282 18.9948608,28.2439593 17.5533859,28.2439593 C16.6724846,28.2439593 15.9317267,27.9693305 15.3311122,27.4200728 C14.7304976,26.870815 14.3501084,26.1384714 14.1899446,25.2230419 L14.1899446,25.2230419 L9.46511029,26.3215573 C9.91890793,28.5447433 10.8598707,30.1663613 12.2879986,31.1864114 C13.7161264,32.2064614 15.5513375,32.7164864 17.7936317,32.7164864 Z" id="J" fill="#FDB7B7"></path>
                <polygon id="T" fill="#B3DCD7" points="50.8961562 62.361991 50.8961562 38.9529784 59.455569 38.9529784 59.455569 34.4603396 37.3667617 34.4603396 37.3667617 38.9529784 45.9261745 38.9529784 45.9261745 62.361991"></polygon>
            </g>
        </g>
    </g>
</svg>