<?xml version="1.0" encoding="UTF-8"?>
<svg width="105px" height="118px" viewBox="0 0 105 118" version="1.1" xmlns="http://www.w3.org/2000/svg" xmlns:xlink="http://www.w3.org/1999/xlink">
    <title>text-d</title>
    <defs>
        <linearGradient x1="50%" y1="0%" x2="50%" y2="100%" id="linearGradient-1">
            <stop stop-color="#FDB7B7" offset="0%"></stop>
            <stop stop-color="#B8DFDC" offset="100%"></stop>
        </linearGradient>
    </defs>
    <g id="Design" stroke="none" stroke-width="1" fill="none" fill-rule="evenodd" opacity="0.794317336">
        <g id="Apple-TV" transform="translate(-908.000000, -4558.000000)" fill-rule="nonzero" stroke="url(#linearGradient-1)" stroke-width="2">
            <path d="M953.280374,4559 L954.15484,4559.00477 C962.583026,4559.09696 970.286604,4560.52599 977.265576,4563.29184 C984.485202,4566.15307 990.661994,4570.13739 995.79595,4575.24481 C1000.92991,4580.35224 1004.91407,4586.46243 1007.74844,4593.57538 C1010.58281,4600.68834 1012,4608.49654 1012,4617 C1012,4625.50346 1010.58281,4633.31166 1007.74844,4640.42462 C1004.91407,4647.53757 1000.92991,4653.66113 995.79595,4658.7953 C990.661994,4663.92946 984.485202,4667.91379 977.265576,4670.74827 C970.04595,4673.58276 962.050883,4675 953.280374,4675 L953.280374,4675 L909,4675 L909,4559 L953.280374,4559 Z M953.280374,4576.16736 L930.739097,4576.16736 L930.739097,4657.83264 L953.280374,4657.83264 C958.949117,4657.83264 964.042965,4656.89673 968.561916,4655.0249 C973.080867,4653.15307 976.917965,4650.46565 980.073209,4646.96266 C983.228453,4643.45966 985.661734,4639.18119 987.373053,4634.12725 C989.084372,4629.07331 989.940031,4623.36422 989.940031,4617 C989.940031,4610.63578 989.084372,4604.92669 987.373053,4599.87275 C985.661734,4594.81881 983.228453,4590.54034 980.073209,4587.03734 C976.917965,4583.53435 973.080867,4580.84693 968.561916,4578.9751 C964.042965,4577.10327 958.949117,4576.16736 953.280374,4576.16736 L953.280374,4576.16736 Z" id="text-d"></path>
        </g>
    </g>
</svg>