<?xml version="1.0" encoding="UTF-8"?>
<svg width="98px" height="119px" viewBox="0 0 98 119" version="1.1" xmlns="http://www.w3.org/2000/svg" xmlns:xlink="http://www.w3.org/1999/xlink">
    <title>text-u</title>
    <defs>
        <linearGradient x1="50%" y1="0%" x2="50%" y2="100%" id="linearGradient-1">
            <stop stop-color="#FDB7B7" offset="0%"></stop>
            <stop stop-color="#B8DFDC" offset="100%"></stop>
        </linearGradient>
    </defs>
    <g id="Design" stroke="none" stroke-width="1" fill="none" fill-rule="evenodd" opacity="0.794317336">
        <g id="Apple-TV" transform="translate(-1191.000000, -4557.000000)" fill-rule="nonzero" stroke="url(#linearGradient-1)" stroke-width="2">
            <path d="M1239.95997,4675 C1247.37948,4675 1254.05171,4673.81293 1259.97665,4671.43878 C1265.90158,4669.06464 1270.94579,4665.75684 1275.10926,4661.51539 C1279.27273,4657.27394 1282.46205,4652.23222 1284.67723,4646.39022 C1286.89241,4640.54822 1288,4634.18605 1288,4627.30369 L1288,4627.30369 L1288,4558 L1266.46205,4558 L1266.46205,4627.30369 C1266.46205,4631.73187 1265.86155,4635.73324 1264.66055,4639.3078 C1263.45955,4642.88235 1261.72477,4645.92339 1259.45621,4648.43092 C1257.18766,4650.93844 1254.41201,4652.88577 1251.12927,4654.27291 C1247.84654,4655.66005 1244.12344,4656.35363 1239.95997,4656.35363 C1235.7965,4656.35363 1232.07339,4655.66005 1228.79066,4654.27291 C1225.50792,4652.88577 1222.74562,4650.9251 1220.50375,4648.3909 C1218.26188,4645.8567 1216.54045,4642.80233 1215.33945,4639.22777 C1214.13845,4635.65321 1213.53795,4631.65185 1213.53795,4627.22367 L1213.53795,4627.22367 L1213.53795,4558 L1192,4558 L1192,4627.30369 C1192,4634.18605 1193.10759,4640.54822 1195.32277,4646.39022 C1197.53795,4652.23222 1200.71393,4657.27394 1204.85071,4661.51539 C1208.98749,4665.75684 1214.01835,4669.06464 1219.94329,4671.43878 C1225.86822,4673.81293 1232.54045,4675 1239.95997,4675 Z" id="text-u"></path>
        </g>
    </g>
</svg>