<?xml version="1.0" encoding="UTF-8"?>
<svg width="85px" height="118px" viewBox="0 0 85 118" version="1.1" xmlns="http://www.w3.org/2000/svg" xmlns:xlink="http://www.w3.org/1999/xlink">
    <title>text-p</title>
    <defs>
        <linearGradient x1="50%" y1="0%" x2="50%" y2="100%" id="linearGradient-1">
            <stop stop-color="#FDB7B7" offset="0%"></stop>
            <stop stop-color="#B8DFDC" offset="100%"></stop>
        </linearGradient>
    </defs>
    <g id="Design" stroke="none" stroke-width="1" fill="none" fill-rule="evenodd" opacity="0.794317336">
        <g id="Apple-TV" transform="translate(-83.000000, -4558.000000)" fill-rule="nonzero" stroke="url(#linearGradient-1)" stroke-width="2">
            <path d="M121.880814,4559 L122.7098,4559.00348 C130.134671,4559.0661 136.587348,4559.97412 142.067829,4561.72752 C147.751292,4563.54587 152.442829,4566.08621 156.142442,4569.34855 C159.842054,4572.61088 162.57655,4576.51498 164.34593,4581.06086 C166.11531,4585.60673 167,4590.58045 167,4595.98202 C167,4601.59751 166.061693,4606.74504 164.185078,4611.42462 C162.308463,4616.1042 159.49354,4620.12863 155.74031,4623.49793 C151.98708,4626.86722 147.295543,4629.48778 141.665698,4631.35961 C136.035853,4633.23144 129.440891,4634.16736 121.880814,4634.16736 L121.880814,4634.16736 L105.63469,4634.16736 L105.63469,4675 L84,4675 L84,4559 L121.880814,4559 Z M121.880814,4575.68603 L105.63469,4575.68603 L105.63469,4617.32089 L121.880814,4617.32089 C125.848514,4617.32089 129.306848,4616.82619 132.255814,4615.83679 C135.20478,4614.8474 137.64438,4613.43015 139.574612,4611.58506 C141.504845,4609.73997 142.952519,4607.49378 143.917636,4604.84647 C144.882752,4602.19917 145.36531,4599.24435 145.36531,4595.98202 C145.36531,4592.88013 144.882752,4590.07238 143.917636,4587.55878 C142.952519,4585.04518 141.504845,4582.90595 139.574612,4581.14108 C137.64438,4579.37621 135.20478,4578.02582 132.255814,4577.0899 C129.306848,4576.15399 125.848514,4575.68603 121.880814,4575.68603 L121.880814,4575.68603 Z" id="text-p"></path>
        </g>
    </g>
</svg>