<?xml version="1.0" encoding="UTF-8"?>
<svg width="101px" height="120px" viewBox="0 0 101 120" version="1.1" xmlns="http://www.w3.org/2000/svg" xmlns:xlink="http://www.w3.org/1999/xlink">
    <title>text-c</title>
    <defs>
        <linearGradient x1="50%" y1="0%" x2="50%" y2="100%" id="linearGradient-1">
            <stop stop-color="#FDB7B7" offset="0%"></stop>
            <stop stop-color="#B8DFDC" offset="100%"></stop>
        </linearGradient>
    </defs>
    <g id="Design" stroke="none" stroke-width="1" fill="none" fill-rule="evenodd" opacity="0.794317336">
        <g id="Apple-TV" transform="translate(-1466.000000, -4556.000000)" fill-rule="nonzero" stroke="url(#linearGradient-1)" stroke-width="2">
            <path d="M1522.53333,4675 C1532.09431,4675 1540.28753,4673.45647 1547.11301,4670.36942 C1553.93848,4667.28236 1559.68835,4662.83807 1564.3626,4657.03654 L1564.3626,4657.03654 L1555.91707,4647.85521 C1555.06721,4646.95038 1554.05799,4646.49797 1552.88943,4646.49797 C1552.19892,4646.49797 1551.56152,4646.64434 1550.97724,4646.93708 C1550.39295,4647.22982 1549.83523,4647.6157 1549.30407,4648.09472 C1547.55122,4649.69147 1545.78509,4651.03541 1544.00569,4652.12652 C1542.22629,4653.21764 1540.34065,4654.10916 1538.34878,4654.80108 C1536.35691,4655.49301 1534.17913,4655.99865 1531.81545,4656.318 C1529.45176,4656.63735 1526.80921,4656.79702 1523.8878,4656.79702 C1519.00108,4656.79702 1514.43306,4655.87889 1510.18374,4654.04263 C1505.93442,4652.20636 1502.24282,4649.55841 1499.10894,4646.09878 C1495.97507,4642.63915 1493.49187,4638.38115 1491.65935,4633.32476 C1489.82683,4628.26838 1488.91057,4622.49346 1488.91057,4616 C1488.91057,4609.71944 1489.82683,4604.06428 1491.65935,4599.03451 C1493.49187,4594.00474 1496.04146,4589.73342 1499.30813,4586.22057 C1502.5748,4582.70771 1506.47886,4580.00654 1511.02033,4578.11705 C1515.56179,4576.22756 1520.54146,4575.28281 1525.95935,4575.28281 C1530.58049,4575.28281 1534.3916,4575.76184 1537.39268,4576.71989 C1540.39377,4577.67794 1542.87696,4578.71583 1544.84228,4579.83356 C1546.80759,4580.95129 1548.42764,4581.98917 1549.70244,4582.94723 C1550.97724,4583.90528 1552.22547,4584.3843 1553.44715,4584.3843 C1554.61572,4584.3843 1555.53198,4584.14479 1556.19593,4583.66576 C1556.85989,4583.18674 1557.40434,4582.62788 1557.82927,4581.98917 L1557.82927,4581.98917 L1565,4572.00947 C1560.43198,4567.48534 1554.9477,4563.85273 1548.54715,4561.11164 C1542.14661,4558.37055 1534.67046,4557 1526.1187,4557 C1517.35447,4557 1509.34715,4558.45038 1502.09675,4561.35115 C1494.84634,4564.25192 1488.61843,4568.31033 1483.41301,4573.52639 C1478.20759,4578.74244 1474.17073,4584.95647 1471.30244,4592.16847 C1468.43415,4599.38047 1467,4607.32431 1467,4616 C1467,4624.56924 1468.28808,4632.47316 1470.86423,4639.71177 C1473.44038,4646.95038 1477.14526,4653.17772 1481.97886,4658.39378 C1486.81247,4663.60983 1492.64201,4667.68155 1499.46748,4670.60893 C1506.29295,4673.53631 1513.98157,4675 1522.53333,4675 Z" id="text-c"></path>
        </g>
    </g>
</svg>