<?xml version="1.0" encoding="UTF-8"?>
<svg width="93px" height="118px" viewBox="0 0 93 118" version="1.1" xmlns="http://www.w3.org/2000/svg" xmlns:xlink="http://www.w3.org/1999/xlink">
    <title>text-r</title>
    <defs>
        <linearGradient x1="50%" y1="0%" x2="50%" y2="100%" id="linearGradient-1">
            <stop stop-color="#FDB7B7" offset="0%"></stop>
            <stop stop-color="#B8DFDC" offset="100%"></stop>
        </linearGradient>
    </defs>
    <g id="Design" stroke="none" stroke-width="1" fill="none" fill-rule="evenodd" opacity="0.794317336">
        <g id="Apple-TV" transform="translate(-357.000000, -4558.000000)" fill-rule="nonzero" stroke="url(#linearGradient-1)" stroke-width="2">
            <path d="M393.155004,4559 L393.993401,4559.00312 C401.500078,4559.0593 407.956662,4559.87384 413.363153,4561.44675 C418.969885,4563.07792 423.566873,4565.36422 427.154119,4568.30567 C430.741364,4571.24712 433.372011,4574.76349 435.046058,4578.85477 C436.720106,4582.94606 437.55713,4587.45182 437.55713,4592.37206 C437.55713,4596.27616 436.985828,4599.96634 435.843224,4603.4426 C434.70062,4606.91886 433.053144,4610.07423 430.900797,4612.90871 C428.74845,4615.7432 426.091231,4618.23006 422.929141,4620.36929 C419.76705,4622.50853 416.166519,4624.21992 412.127547,4625.50346 C414.83791,4627.0544 417.176262,4629.27386 419.142604,4632.16183 L419.142604,4632.16183 L448,4675 L428.708592,4675 L428.314279,4674.99427 C426.624098,4674.94461 425.174491,4674.57215 423.965456,4673.8769 C422.663419,4673.12817 421.560673,4672.05855 420.657219,4670.66805 L420.657219,4670.66805 L396.423384,4633.52559 L396.213243,4633.21182 C395.366078,4631.98524 394.439668,4631.10044 393.434012,4630.5574 C392.344553,4629.96911 390.736935,4629.67497 388.61116,4629.67497 L388.61116,4629.67497 L379.443756,4629.67497 L379.443756,4675 L358,4675 L358,4559 L393.155004,4559 Z M393.155004,4575.68603 L379.443756,4575.68603 L379.443756,4614.19225 L392.836138,4614.19225 C396.875111,4614.19225 400.395926,4613.68419 403.398583,4612.66805 C406.40124,4611.65191 408.872453,4610.24804 410.812223,4608.45643 C412.751993,4606.66482 414.200177,4604.53896 415.156776,4602.07884 C416.113375,4599.61872 416.591674,4596.91793 416.591674,4593.97649 C416.591674,4588.09359 414.66519,4583.57446 410.812223,4580.41909 C406.959256,4577.26372 401.073516,4575.68603 393.155004,4575.68603 L393.155004,4575.68603 Z" id="text-r"></path>
        </g>
    </g>
</svg>