<?xml version="1.0" encoding="UTF-8"?>
<svg width="119px" height="120px" viewBox="0 0 119 120" version="1.1" xmlns="http://www.w3.org/2000/svg" xmlns:xlink="http://www.w3.org/1999/xlink">
    <title>text-o</title>
    <defs>
        <linearGradient x1="50%" y1="0%" x2="50%" y2="100%" id="linearGradient-1">
            <stop stop-color="#FDB7B7" offset="0%"></stop>
            <stop stop-color="#B8DFDC" offset="100%"></stop>
        </linearGradient>
    </defs>
    <g id="Design" stroke="none" stroke-width="1" fill="none" fill-rule="evenodd" opacity="0.794317336">
        <g id="Apple-TV" transform="translate(-623.000000, -4556.000000)" fill-rule="nonzero" stroke="url(#linearGradient-1)" stroke-width="2">
            <path d="M682.579809,4557 C691.305593,4557 699.259891,4558.4903 706.442701,4561.47091 C713.625512,4564.45151 719.770805,4568.56315 724.878581,4573.80582 C729.986357,4579.04849 733.950205,4585.27582 736.770123,4592.48782 C739.590041,4599.69982 741,4607.53721 741,4616 C741,4624.46279 739.590041,4632.30018 736.770123,4639.51218 C733.950205,4646.72418 729.986357,4652.96482 724.878581,4658.2341 C719.770805,4663.50338 713.625512,4667.61502 706.442701,4670.56901 C699.259891,4673.523 691.305593,4675 682.579809,4675 C673.854025,4675 665.886426,4673.523 658.677012,4670.56901 C651.467599,4667.61502 645.295703,4663.50338 640.161323,4658.2341 C635.026944,4652.96482 631.049795,4646.72418 628.229877,4639.51218 C625.409959,4632.30018 624,4624.46279 624,4616 C624,4607.53721 625.409959,4599.69982 628.229877,4592.48782 C631.049795,4585.27582 635.026944,4579.03518 640.161323,4573.7659 C645.295703,4568.49662 651.467599,4564.38498 658.677012,4561.43099 C665.886426,4558.477 673.854025,4557 682.579809,4557 Z M682.579809,4575.28281 C676.939973,4575.28281 671.858799,4576.21425 667.336289,4578.07713 C662.813779,4579.94001 658.969645,4582.62788 655.803888,4586.14073 C652.638131,4589.65359 650.203956,4593.9249 648.501364,4598.95467 C646.798772,4603.98444 645.947476,4609.66622 645.947476,4616 C645.947476,4622.33378 646.798772,4628.01556 648.501364,4633.04533 C650.203956,4638.0751 652.638131,4642.33311 655.803888,4645.81935 C658.969645,4649.30559 662.813779,4651.98015 667.336289,4653.84303 C671.858799,4655.70591 676.939973,4656.63735 682.579809,4656.63735 C688.219645,4656.63735 693.287517,4655.70591 697.783424,4653.84303 C702.279332,4651.98015 706.096862,4649.30559 709.236016,4645.81935 C712.375171,4642.33311 714.782742,4638.0751 716.458731,4633.04533 C718.13472,4628.01556 718.972715,4622.33378 718.972715,4616 C718.972715,4609.66622 718.13472,4603.98444 716.458731,4598.95467 C714.782742,4593.9249 712.375171,4589.65359 709.236016,4586.14073 C706.096862,4582.62788 702.279332,4579.94001 697.783424,4578.07713 C693.287517,4576.21425 688.219645,4575.28281 682.579809,4575.28281 Z" id="text-o"></path>
        </g>
    </g>
</svg>