<?xml version="1.0" encoding="UTF-8"?>
<svg width="24px" height="24px" viewBox="0 0 24 24" version="1.1" xmlns="http://www.w3.org/2000/svg" xmlns:xlink="http://www.w3.org/1999/xlink">
    <!-- Generator: Sketch 53 (72520) - https://sketchapp.com -->
    <title>back</title>
    <desc>Created with Sketch.</desc>
    <g id="V1" stroke="none" stroke-width="1" fill="none" fill-rule="evenodd">
        <g id="9" transform="translate(-1328.000000, -1228.000000)" fill="#FFFFFF" fill-rule="nonzero">
            <path d="M1350.49215,1238.67159 L1332.23037,1238.67159 L1340.10471,1230.34686 C1340.60733,1229.8155 1340.60733,1228.92989 1340.10471,1228.39852 C1339.60209,1227.86716 1338.93194,1227.86716 1338.42932,1228.39852 L1328.37696,1239.02583 C1327.87435,1239.5572 1327.87435,1240.4428 1328.37696,1240.97417 L1338.42932,1251.60148 C1338.93194,1252.13284 1339.76963,1252.13284 1340.27225,1251.60148 C1340.77487,1251.07011 1340.77487,1250.36162 1340.27225,1249.83026 L1332.39791,1241.32841 L1350.65969,1241.32841 C1351.32984,1241.32841 1352,1240.79705 1352,1239.91144 C1351.66492,1239.20295 1351.1623,1238.49446 1350.49215,1238.67159 L1350.49215,1238.67159 Z" id="back" transform="translate(1340.000000, 1240.000000) rotate(-360.000000) translate(-1340.000000, -1240.000000) "></path>
        </g>
    </g>
</svg>