<?xml version="1.0" encoding="UTF-8"?>
<svg width="104px" height="104px" viewBox="0 0 104 104" version="1.1" xmlns="http://www.w3.org/2000/svg" xmlns:xlink="http://www.w3.org/1999/xlink">
    <!-- Generator: Sketch 53 (72520) - https://sketchapp.com -->
    <title>benifits-05</title>
    <desc>Created with Sketch.</desc>
    <defs>
        <filter x="-26.1%" y="-34.3%" width="152.2%" height="171.4%" filterUnits="objectBoundingBox" id="filter-1">
            <feOffset dx="0" dy="2" in="SourceAlpha" result="shadowOffsetOuter1"></feOffset>
            <feGaussianBlur stdDeviation="2" in="shadowOffsetOuter1" result="shadowBlurOuter1"></feGaussianBlur>
            <feColorMatrix values="0 0 0 0 0   0 0 0 0 0   0 0 0 0 0  0 0 0 0.0292559003 0" type="matrix" in="shadowBlurOuter1" result="shadowMatrixOuter1"></feColorMatrix>
            <feMerge>
                <feMergeNode in="shadowMatrixOuter1"></feMergeNode>
                <feMergeNode in="SourceGraphic"></feMergeNode>
            </feMerge>
        </filter>
    </defs>
    <g id="benifits-05" stroke="none" stroke-width="1" fill="none" fill-rule="evenodd">
        <circle id="Oval-5-Copy-4" stroke-opacity="0.0487871503" stroke="#2E3B4E" fill="#2E3B4E" fill-rule="nonzero" cx="52" cy="52" r="52"></circle>
        <g id="noun_health-insurance_1238989" filter="url(#filter-1)" transform="translate(29.000000, 33.000000)" fill="#FFFFFF" fill-rule="nonzero">
            <g id="Group">
                <path d="M23.6229167,34.7635135 L43.7958333,29.3243243 C44.8979167,29.0405405 45.6645833,28.0472973 45.6645833,26.9121622 C45.6645833,26.1554054 45.28125,25.3986486 44.6583333,24.9256757 C44.0354167,24.4527027 43.2208333,24.3108108 42.4541667,24.5 L29.4208333,28.1891892 L28.6541667,27.9054054 C29.8520833,28.0472973 31.05,27.4324324 31.625,26.2972973 C32.1041667,25.5405405 32.1041667,24.5945946 31.7208333,23.7905405 C31.3375,22.9391892 30.5708333,22.3716216 29.6604167,22.1824324 L16.1,19.4391892 C13.7041667,18.5405405 3.78541667,22.5135135 0.71875,23.7432432 L0.2875,23.9324324 L0.2875,34.3378378 L9.4875,31.027027 L19.1666667,33.9594595 C20.3166667,34.527027 21.5145833,34.8581081 22.7604167,34.8581081 C23.0479167,34.8108108 23.3354167,34.8108108 23.6229167,34.7635135 Z M9.4875,29.5608108 L1.77291667,32.3513514 L1.77291667,24.8783784 C7.66666667,22.4662162 14.51875,20.2432432 15.6208333,20.7635135 L15.7166667,20.8108108 L29.4208333,23.5540541 C29.9,23.6486486 30.2833333,23.9797297 30.475,24.4054054 C30.6666667,24.8310811 30.6666667,25.3040541 30.475,25.7297297 C30.1395833,26.3918919 29.3729167,26.722973 28.6541667,26.4864865 L15.95625,24.5945946 L29.46875,29.7027027 L42.9333333,25.8716216 C43.26875,25.777027 43.6041667,25.8716216 43.84375,26.0608108 C44.13125,26.25 44.275,26.5810811 44.275,26.9121622 C44.275,27.3851351 43.9395833,27.8108108 43.4604167,27.9527027 L23.3833333,33.3918919 C22.1375,33.5337838 20.8916667,33.25 19.7416667,32.6824324 L9.4875,29.5608108 Z" id="Shape" stroke="#FFFFFF" stroke-width="0.5"></path>
                <path d="M37.6145833,9.41216216 C37.6145833,4.30405405 33.4458333,0.189189189 28.2708333,0.189189189 C23.0958333,0.189189189 18.9270833,4.30405405 18.9270833,9.41216216 C18.9270833,14.5202703 23.0958333,18.6351351 28.2708333,18.6351351 C33.4458333,18.6351351 37.6145833,14.472973 37.6145833,9.41216216 Z M20.3645833,9.41216216 C20.3645833,5.10810811 23.9104167,1.60810811 28.2708333,1.60810811 C32.63125,1.60810811 36.1770833,5.10810811 36.1770833,9.41216216 C36.1770833,13.7162162 32.63125,17.2162162 28.2708333,17.2162162 C23.9104167,17.2162162 20.3645833,13.7162162 20.3645833,9.41216216 Z" id="Shape"></path>
                <polygon id="Shape" stroke="#FFFFFF" stroke-width="0.5" points="28.9895833 15.0878378 28.9895833 10.1216216 34.0208333 10.1216216 34.0208333 8.7027027 28.9895833 8.7027027 28.9895833 3.73648649 27.5520833 3.73648649 27.5520833 8.7027027 22.5208333 8.7027027 22.5208333 10.1216216 27.5520833 10.1216216 27.5520833 15.0878378"></polygon>
            </g>
        </g>
    </g>
</svg>