<?xml version="1.0" encoding="UTF-8"?>
<svg width="104px" height="104px" viewBox="0 0 104 104" version="1.1" xmlns="http://www.w3.org/2000/svg" xmlns:xlink="http://www.w3.org/1999/xlink">
    <!-- Generator: Sketch 53 (72520) - https://sketchapp.com -->
    <title>benifits-06</title>
    <desc>Created with Sketch.</desc>
    <defs>
        <filter x="-23.1%" y="-23.1%" width="146.2%" height="146.2%" filterUnits="objectBoundingBox" id="filter-1">
            <feOffset dx="0" dy="2" in="SourceAlpha" result="shadowOffsetOuter1"></feOffset>
            <feGaussianBlur stdDeviation="2" in="shadowOffsetOuter1" result="shadowBlurOuter1"></feGaussianBlur>
            <feColorMatrix values="0 0 0 0 0   0 0 0 0 0   0 0 0 0 0  0 0 0 0.0292559003 0" type="matrix" in="shadowBlurOuter1" result="shadowMatrixOuter1"></feColorMatrix>
            <feMerge>
                <feMergeNode in="shadowMatrixOuter1"></feMergeNode>
                <feMergeNode in="SourceGraphic"></feMergeNode>
            </feMerge>
        </filter>
    </defs>
    <g id="benifits-06" stroke="none" stroke-width="1" fill="none" fill-rule="evenodd">
        <circle id="Oval-5-Copy-5" stroke-opacity="0.0504261364" stroke="#2E3B4E" fill="#F19F4D" fill-rule="nonzero" cx="52" cy="52" r="52"></circle>
        <g id="noun_Pay-Per-Click_2034198" filter="url(#filter-1)" transform="translate(26.000000, 25.000000)" fill-rule="nonzero">
            <g id="Group">
                <g fill="#FFFFFF" id="Shape">
                    <path d="M22.34375,28.35625 L20.9625,29.98125 C22.34375,31.2 23.8875,31.85 25.59375,32.0125 L25.59375,33.39375 L26.8125,33.39375 L26.8125,32.0125 C29.16875,31.93125 31.0375,30.55 31.0375,28.19375 C31.0375,25.5125 29.25,25.10625 26.8125,24.29375 L26.8125,20.8 C27.7875,20.9625 28.68125,21.2875 29.49375,21.85625 L30.7125,20.15 C29.49375,19.3375 28.19375,18.85 26.8125,18.76875 L26.8125,17.875 L25.59375,17.875 L25.59375,18.85 C23.31875,18.93125 21.53125,20.3125 21.53125,22.5875 C21.53125,24.94375 23.15625,25.75625 25.59375,26.325 L25.59375,29.98125 C24.45625,29.81875 23.4,29.33125 22.34375,28.35625 Z M26.8125,26.73125 C27.95,27.05625 28.7625,27.38125 28.7625,28.51875 C28.7625,29.49375 27.7875,30.0625 26.8125,30.14375 L26.8125,26.73125 Z M23.80625,22.425 C23.80625,21.45 24.61875,20.9625 25.59375,20.88125 L25.59375,24.13125 C24.5375,23.725 23.80625,23.4 23.80625,22.425 Z"></path>
                    <path d="M26,44.3625 C36.31875,44.3625 44.6875,35.99375 44.6875,25.675 C44.6875,15.35625 36.31875,6.9875 26,6.9875 C15.68125,6.9875 7.3125,15.35625 7.3125,25.675 C7.3125,35.99375 15.68125,44.3625 26,44.3625 Z M26,8.6125 C35.425,8.6125 43.0625,16.25 43.0625,25.675 C43.0625,35.1 35.425,42.7375 26,42.7375 C16.575,42.7375 8.9375,35.1 8.9375,25.675 C8.9375,16.25 16.575,8.6125 26,8.6125 Z" stroke="#FFFFFF" stroke-width="0.5"></path>
                    <path d="M26,39.89375 C33.8,39.89375 40.21875,33.55625 40.21875,25.675 C40.21875,17.875 33.88125,11.45625 26,11.45625 C18.2,11.45625 11.78125,17.79375 11.78125,25.675 C11.78125,33.475 18.2,39.89375 26,39.89375 Z M25.1875,13.1625 L25.1875,15.19375 C25.1875,15.68125 25.5125,16.00625 26,16.00625 C26.4875,16.00625 26.8125,15.68125 26.8125,15.19375 L26.8125,13.1625 C33.39375,13.56875 38.59375,19.0125 38.59375,25.675 C38.59375,32.3375 33.39375,37.78125 26.8125,38.1875 L26.8125,36.15625 C26.8125,35.66875 26.4875,35.34375 26,35.34375 C25.5125,35.34375 25.1875,35.66875 25.1875,36.15625 L25.1875,38.1875 C18.60625,37.78125 13.40625,32.3375 13.40625,25.675 C13.40625,19.0125 18.60625,13.56875 25.1875,13.1625 Z" stroke="#FFFFFF" stroke-width="0.5"></path>
                    <path d="M41.51875,41.51875 C41.19375,41.84375 41.19375,42.33125 41.51875,42.65625 L43.225,44.3625 C43.55,44.6875 44.0375,44.6875 44.3625,44.3625 C44.6875,44.0375 44.6875,43.55 44.3625,43.225 L42.65625,41.51875 C42.33125,41.19375 41.84375,41.19375 41.51875,41.51875 Z"></path>
                    <path d="M10.48125,10.48125 C10.80625,10.15625 10.80625,9.66875 10.48125,9.34375 L8.775,7.6375 C8.45,7.3125 7.9625,7.3125 7.6375,7.6375 C7.3125,7.9625 7.3125,8.45 7.6375,8.775 L9.34375,10.48125 C9.66875,10.80625 10.15625,10.80625 10.48125,10.48125 Z"></path>
                    <path d="M25.1875,48.75 L25.1875,51.1875 C25.1875,51.675 25.5125,52 26,52 C26.4875,52 26.8125,51.675 26.8125,51.1875 L26.8125,48.75 C26.8125,48.2625 26.4875,47.9375 26,47.9375 C25.5125,47.9375 25.1875,48.2625 25.1875,48.75 Z"></path>
                    <path d="M26.8125,3.25 L26.8125,0.8125 C26.8125,0.325 26.4875,0 26,0 C25.5125,0 25.1875,0.325 25.1875,0.8125 L25.1875,3.25 C25.1875,3.7375 25.5125,4.0625 26,4.0625 C26.4875,4.0625 26.8125,3.7375 26.8125,3.25 Z"></path>
                    <path d="M9.34375,41.51875 L7.6375,43.225 C7.3125,43.55 7.3125,44.0375 7.6375,44.3625 C7.9625,44.6875 8.45,44.6875 8.775,44.3625 L10.48125,42.65625 C10.80625,42.33125 10.80625,41.84375 10.48125,41.51875 C10.15625,41.19375 9.66875,41.19375 9.34375,41.51875 Z"></path>
                    <path d="M42.65625,10.48125 L44.3625,8.775 C44.6875,8.45 44.6875,7.9625 44.3625,7.6375 C44.0375,7.3125 43.55,7.3125 43.225,7.6375 L41.51875,9.34375 C41.19375,9.66875 41.19375,10.15625 41.51875,10.48125 C41.84375,10.80625 42.33125,10.80625 42.65625,10.48125 Z"></path>
                    <path d="M0.8125,26.8125 L3.25,26.8125 C3.7375,26.8125 4.0625,26.4875 4.0625,26 C4.0625,25.5125 3.7375,25.1875 3.25,25.1875 L0.8125,25.1875 C0.325,25.1875 0,25.5125 0,26 C0,26.4875 0.325,26.8125 0.8125,26.8125 Z"></path>
                </g>
                <path d="M48.75,26.8125 L51.1875,26.8125 C51.675,26.8125 52,26.4875 52,26 C52,25.5125 51.675,25.1875 51.1875,25.1875 L48.75,25.1875 C48.2625,25.1875 47.9375,25.5125 47.9375,26 C47.9375,26.4875 48.2625,26.8125 48.75,26.8125 Z" id="Shape" fill="#E0E2E5"></path>
            </g>
        </g>
    </g>
</svg>