<?xml version="1.0" encoding="UTF-8"?>
<svg width="104px" height="104px" viewBox="0 0 104 104" version="1.1" xmlns="http://www.w3.org/2000/svg" xmlns:xlink="http://www.w3.org/1999/xlink">
    <!-- Generator: Sketch 53 (72520) - https://sketchapp.com -->
    <title>benifits-04</title>
    <desc>Created with Sketch.</desc>
    <defs>
        <filter x="-40.6%" y="-28.6%" width="181.2%" height="157.1%" filterUnits="objectBoundingBox" id="filter-1">
            <feOffset dx="0" dy="2" in="SourceAlpha" result="shadowOffsetOuter1"></feOffset>
            <feGaussianBlur stdDeviation="2" in="shadowOffsetOuter1" result="shadowBlurOuter1"></feGaussianBlur>
            <feColorMatrix values="0 0 0 0 0   0 0 0 0 0   0 0 0 0 0  0 0 0 0.0292559003 0" type="matrix" in="shadowBlurOuter1" result="shadowMatrixOuter1"></feColorMatrix>
            <feMerge>
                <feMergeNode in="shadowMatrixOuter1"></feMergeNode>
                <feMergeNode in="SourceGraphic"></feMergeNode>
            </feMerge>
        </filter>
    </defs>
    <g id="benifits-04" stroke="none" stroke-width="1" fill="none" fill-rule="evenodd">
        <circle id="Oval-5-Copy-3" stroke-opacity="0.0540865385" stroke="#2E3B4E" fill="#67BACA" fill-rule="nonzero" cx="52" cy="52" r="52"></circle>
        <g id="noun_blood_115457_000000-copy" filter="url(#filter-1)" transform="translate(38.000000, 28.000000)">
            <g id="Group">
                <path d="M9.94782609,20.7245902 C9.94782609,16.3868852 12.5913043,12.6 16.3478261,10.8786885 C14.6782609,7.36721311 13.1478261,4.26885246 12.3130435,2.6852459 C9.94782609,7.36721311 1.46086957,24.2360656 1.46086957,29.4688525 C1.46086957,35.3901639 6.33043478,40.2098361 12.3130435,40.2098361 C17.6,40.2098361 21.9826087,36.4229508 22.9565217,31.4655738 C22.3304348,31.6032787 21.6347826,31.6721311 20.9391304,31.6721311 C14.8869565,31.6032787 9.94782609,26.7147541 9.94782609,20.7245902 Z" id="Shape"></path>
                <path d="M20.9391304,9.9147541 C19.826087,9.9147541 18.7130435,10.1213115 17.6695652,10.3967213 C15.1652174,5.16393443 12.9391304,0.895081967 12.9391304,0.826229508 C12.8,0.619672131 12.5913043,0.481967213 12.3130435,0.481967213 C12.0347826,0.481967213 11.826087,0.619672131 11.6869565,0.826229508 C11.2,1.72131148 0.0695652174,23.0655738 0.0695652174,29.4 C0.0695652174,36.0786885 5.56521739,41.5180328 12.3130435,41.5180328 C18.5043478,41.5180328 23.6521739,36.904918 24.4173913,30.9836066 C28.7304348,29.5377049 31.8608696,25.4754098 31.8608696,20.7245902 C31.8608696,14.8032787 26.9913043,9.9147541 20.9391304,9.9147541 Z M12.3130435,40.1409836 C6.33043478,40.1409836 1.46086957,35.3213115 1.46086957,29.4 C1.46086957,24.1672131 9.87826087,7.29836066 12.3130435,2.61639344 C13.1478261,4.2 14.6782609,7.29836066 16.3478261,10.8098361 C12.5913043,12.5311475 9.94782609,16.3180328 9.94782609,20.6557377 C9.94782609,26.6459016 14.8869565,31.5344262 20.9391304,31.5344262 C21.6347826,31.5344262 22.3304348,31.4655738 22.9565217,31.3278689 C22.0521739,36.3540984 17.6,40.1409836 12.3130435,40.1409836 Z M20.9391304,30.2262295 C15.6521739,30.2262295 11.3391304,25.957377 11.3391304,20.7245902 C11.3391304,15.4918033 15.6521739,11.2229508 20.9391304,11.2229508 C26.226087,11.2229508 30.5391304,15.4918033 30.5391304,20.7245902 C30.4695652,25.957377 26.226087,30.2262295 20.9391304,30.2262295 Z" id="Shape" stroke="#FFFFFF" stroke-width="0.5" fill="#FFFFFF" fill-rule="nonzero"></path>
            </g>
            <path d="M23.3548387,28 L20.6451613,28 C20.1935484,28 19.8924731,27.721393 19.8924731,27.3034826 L19.8924731,22.9850746 L15.7526882,22.9850746 C15.3010753,22.9850746 15,22.7064677 15,22.2885572 L15,19.7114428 C15,19.2935323 15.3010753,19.0149254 15.7526882,19.0149254 L19.8924731,19.0149254 L19.8924731,14.6965174 C19.8924731,14.278607 20.1935484,14 20.6451613,14 L23.3548387,14 C23.8064516,14 24.1075269,14.278607 24.1075269,14.6965174 L24.1075269,19.0149254 L28.2473118,19.0149254 C28.6989247,19.0149254 29,19.2935323 29,19.7114428 L29,22.2885572 C29,22.7064677 28.6989247,22.9850746 28.2473118,22.9850746 L24.1075269,22.9850746 L24.1075269,27.3034826 C24.1075269,27.6517413 23.8064516,28 23.3548387,28 Z M21.3978495,26.6069652 L22.6021505,26.6069652 L22.6021505,22.2885572 C22.6021505,21.8706468 22.9032258,21.5920398 23.3548387,21.5920398 L27.4946237,21.5920398 L27.4946237,20.4079602 L23.3548387,20.4079602 C22.9032258,20.4079602 22.6021505,20.1293532 22.6021505,19.7114428 L22.6021505,15.3930348 L21.3978495,15.3930348 L21.3978495,19.7114428 C21.3978495,20.1293532 21.0967742,20.4079602 20.6451613,20.4079602 L16.5053763,20.4079602 L16.5053763,21.5920398 L20.6451613,21.5920398 C21.0967742,21.5920398 21.3978495,21.8706468 21.3978495,22.2885572 L21.3978495,26.6069652 L21.3978495,26.6069652 Z" id="Shape" fill="#FFFFFF" fill-rule="nonzero"></path>
        </g>
    </g>
</svg>