<?xml version="1.0" encoding="UTF-8"?>
<svg width="16px" height="19px" viewBox="0 0 16 19" version="1.1" xmlns="http://www.w3.org/2000/svg" xmlns:xlink="http://www.w3.org/1999/xlink">
    <!-- Generator: Sketch 53 (72520) - https://sketchapp.com -->
    <title>icon-pdf</title>
    <desc>Created with Sketch.</desc>
    <g id="icon-pdf" stroke="none" stroke-width="1" fill="none" fill-rule="evenodd">
        <g id="noun_PDF_117327" fill="#2E3B4E" fill-rule="nonzero">
            <path d="M12.8562634,12.3959855 C12.6120937,12.464266 12.2537695,12.4719847 11.8693588,12.4191415 C11.4569834,12.36234 11.0362602,12.2427996 10.6228413,12.0666556 C11.3601503,11.9649274 11.9321751,11.996198 12.4213492,12.160665 C12.537382,12.1996542 12.7277091,12.3037573 12.8562634,12.3959855 L12.8562634,12.3959855 Z M8.74252622,11.7545442 C8.71247457,11.7622629 8.68304899,11.7695857 8.65362342,11.7773044 C8.4551573,11.8285643 8.26211718,11.8784388 8.07617259,11.9229696 L7.82532478,11.9833335 C7.32070747,12.1044572 6.80482079,12.2281539 6.29540356,12.3754023 C6.48906976,11.9324695 6.66896228,11.4847866 6.84509835,11.0469995 C6.97553086,10.7230133 7.10867637,10.3919022 7.24641311,10.0651452 C7.31632493,10.1745919 7.38915845,10.2840387 7.46512235,10.3938813 C7.81071634,10.8932199 8.24521313,11.3549546 8.74252622,11.7545442 L8.74252622,11.7545442 Z M7.45907028,6.76056499 C7.49183492,7.30700722 7.36745448,7.83266841 7.18505765,8.33695482 C6.96050503,7.7133259 6.85574164,7.02478099 7.1366411,6.46883887 C7.20863985,6.32634035 7.26769969,6.25014323 7.30589033,6.21036239 C7.36495017,6.29704899 7.4427923,6.49060947 7.45907028,6.76056499 L7.45907028,6.76056499 Z M4.82495957,13.6828262 C4.69870089,13.8969698 4.56993791,14.0974573 4.43783586,14.2866637 C4.11916314,14.7420652 3.59805916,15.2297268 3.3303073,15.2297268 C3.3040121,15.2297268 3.27208222,15.2257685 3.2255439,15.1790606 C3.19549225,15.1491755 3.19069234,15.1278008 3.19215318,15.0987073 C3.20112694,14.9312715 3.43507069,14.6330142 3.77398654,14.3565275 C4.08159858,14.1055718 4.42927949,13.88272 4.82495957,13.6828262 L4.82495957,13.6828262 Z M13.708979,12.4195373 C13.6680753,11.8618139 12.6780404,11.5039843 12.6682319,11.5006198 C12.2854907,11.3719753 11.8697762,11.3094343 11.3972974,11.3094343 C10.891428,11.3094343 10.3461157,11.3789023 9.64574529,11.5340674 C9.02259091,11.1150821 8.48416549,10.5906084 8.08201596,10.009927 C7.90441905,9.75342965 7.74476966,9.49732815 7.60557208,9.24716409 C7.94532269,8.47668253 8.2512652,7.648212 8.19575312,6.72038833 C8.15088433,5.97642733 7.79715135,5.47669295 7.31611624,5.47669295 C6.98617415,5.47669295 6.70193562,5.70845095 6.47091355,6.16622744 C6.0587468,6.98203144 6.16705796,8.02583306 6.79271665,9.27130967 C6.56732926,9.77322111 6.35801117,10.2935386 6.15537121,10.7974292 C5.90327125,11.4238289 5.64344968,12.0700201 5.35065477,12.6847429 C4.52945166,12.9928959 3.85495904,13.3665587 3.29274273,13.8253247 C2.92440131,14.1253633 2.48051338,14.5839314 2.45505296,15.0626868 C2.44274013,15.2881116 2.52413002,15.4949323 2.68983148,15.6605869 C2.86575886,15.836533 3.0869724,15.929157 3.33009861,15.9293549 C4.13314551,15.9293549 4.90593207,14.8829804 5.05243387,14.6731909 C5.34752439,14.2514349 5.62362394,13.7809919 5.89429749,13.23831 C6.57588564,13.0047708 7.30234257,12.830408 8.00626076,12.6617848 L8.25836072,12.601025 C8.44785308,12.5553067 8.64485835,12.5048385 8.84687223,12.4523911 C9.06078155,12.3975688 9.28074294,12.3407673 9.5042521,12.2867366 C10.2271613,12.7227425 11.0045391,13.0071458 11.7627172,13.1114468 C12.4013148,13.1995188 12.9685397,13.1484568 13.3523243,12.9586567 C13.6979183,12.7880543 13.717118,12.5248279 13.708979,12.4195373 L13.708979,12.4195373 Z M15.2641519,17.215404 C15.2641519,18.2368413 14.3148119,18.2997781 14.1232326,18.3019552 L1.8757239,18.3019552 C0.802629519,18.3019552 0.737934992,17.3955063 0.735848072,17.215404 L0.735848072,1.78459599 C0.735848072,0.762169144 1.68685762,0.700221873 1.8757239,0.698044812 L10.1493191,0.698044812 L10.1537017,0.702201019 L10.1537017,3.76413787 C10.1537017,4.37866272 10.5454166,5.54200477 12.0290082,5.54200477 L15.2366046,5.54200477 L15.2641519,5.5681295 L15.2641519,17.215404 L15.2641519,17.215404 Z M14.5036782,4.84395996 L12.0292169,4.84395996 C10.9563312,4.84395996 10.891428,3.94245893 10.8899671,3.76413787 L10.8899671,1.40281872 L14.5036782,4.84395996 Z M16,17.215404 L16,5.27996583 L10.8899671,0.413641525 L10.8899671,0.39107926 L10.8655502,0.39107926 L10.4552616,0 L1.8757239,0 C1.2269004,0 0,0.373069031 0,1.78459599 L0,17.2156019 C0,17.8326997 0.392132311,19 1.8757239,19 L14.1244848,19 C14.7730996,18.9998021 16,18.626931 16,17.215404 L16,17.215404 Z" id="Shape"></path>
        </g>
    </g>
</svg>