<?xml version="1.0" encoding="UTF-8"?>
<svg width="67px" height="67px" viewBox="0 0 67 67" version="1.1" xmlns="http://www.w3.org/2000/svg" xmlns:xlink="http://www.w3.org/1999/xlink">
    <!-- Generator: Sketch 53 (72520) - https://sketchapp.com -->
    <title>p-human</title>
    <desc>Created with Sketch.</desc>
    <g id="p-human" stroke="none" stroke-width="1" fill="none" fill-rule="evenodd" opacity="0.651841518">
        <g fill="#2E3B4E" fill-rule="nonzero" id="Group">
            <g>
                <path d="M65.0857143,59.1377551 L51.9591837,46.0112245 C55.5826531,41.2255102 57.7704082,35.277551 57.7704082,28.7826531 C57.7704082,13.0581633 44.9173469,0.205102041 29.1928571,0.205102041 C13.4683673,0.205102041 0.615306122,12.9897959 0.615306122,28.7826531 C0.615306122,44.5755102 13.4683673,57.3602041 29.1928571,57.3602041 C35.277551,57.3602041 40.8836735,55.4459184 45.5326531,52.2326531 L58.7959184,65.4959184 C59.6846939,66.3846939 60.8469388,66.794898 61.9408163,66.794898 C63.1030612,66.794898 64.2653061,66.3846939 65.0857143,65.4959184 C66.8632653,63.7183673 66.8632653,60.8469388 65.0857143,59.1377551 Z M1.98265306,28.7826531 C1.98265306,13.8102041 14.2204082,1.57244898 29.1928571,1.57244898 C44.1653061,1.57244898 56.4030612,13.8102041 56.4030612,28.7826531 C56.4030612,43.755102 44.1653061,55.9928571 29.1928571,55.9928571 C14.2204082,55.9928571 1.98265306,43.755102 1.98265306,28.7826531 Z M64.1285714,64.5387755 C62.8979592,65.7693878 60.9153061,65.7693878 59.6846939,64.5387755 L46.6265306,51.4122449 C48.2673469,50.1132653 49.7714286,48.677551 51.1387755,47.105102 L64.1969388,60.1632653 C65.3591837,61.3255102 65.3591837,63.3081633 64.1285714,64.5387755 Z" id="Shape" stroke="#2D3B4F" stroke-width="0.8"></path>
                <path d="M29.1928571,4.78571429 C15.9295918,4.78571429 5.19591837,15.5877551 5.19591837,28.7826531 C5.19591837,41.977551 15.9295918,52.7795918 29.1928571,52.7795918 C42.4561224,52.7795918 53.1897959,42.0459184 53.1897959,28.7826531 C53.1897959,15.5193878 42.3877551,4.78571429 29.1928571,4.78571429 Z M29.1928571,6.15306122 C41.6357143,6.15306122 51.822449,16.2714286 51.822449,28.7826531 C51.822449,34.1153061 49.9765306,38.9693878 46.9,42.7979592 L46.4214286,40.3367347 C46.0112245,38.2857143 44.5071429,36.5765306 42.5244898,35.8928571 L34.6622449,33.294898 C37.6020408,30.7653061 39.5163265,26.4581633 39.5163265,22.3561224 C39.5163265,15.9979592 34.8673469,10.8020408 29.1928571,10.8020408 C23.5183673,10.8020408 18.8693878,15.9979592 18.8693878,22.3561224 C18.8693878,26.3897959 20.7836735,30.7653061 23.7234694,33.294898 L15.8612245,35.8928571 C13.8785714,36.5765306 12.3744898,38.2857143 11.9642857,40.3367347 L11.4857143,42.8663265 C8.40918367,39.0377551 6.56326531,34.1153061 6.56326531,28.8510204 C6.56326531,16.3397959 16.6816327,6.15306122 29.1928571,6.15306122 Z M20.2367347,22.3561224 C20.2367347,16.75 24.2704082,12.1693878 29.1928571,12.1693878 C34.1153061,12.1693878 38.1489796,16.75 38.1489796,22.3561224 C38.1489796,27.7571429 34.2520408,34.0469388 29.1928571,34.0469388 C24.1336735,34.0469388 20.2367347,27.7571429 20.2367347,22.3561224 Z M12.5795918,44.1653061 L13.2632653,40.6102041 C13.5367347,39.0377551 14.6989796,37.7387755 16.2714286,37.1918367 L24.4755102,34.4571429 L26.8,38.422449 L25.5693878,51.0704082 C20.4418367,50.25 15.9295918,47.7887755 12.5795918,44.1653061 Z M26.8683673,51.2755102 L28.1673469,38.0806122 L26.2530612,34.8673469 C27.1418367,35.2091837 28.0989796,35.4142857 29.1244898,35.4142857 C30.15,35.4142857 31.1071429,35.2091837 31.9959184,34.8673469 L30.0816327,38.1489796 L31.4489796,51.2755102 C30.6969388,51.3438776 29.944898,51.4122449 29.1244898,51.4122449 C28.372449,51.4122449 27.6204082,51.3438776 26.8683673,51.2755102 Z M32.8163265,51.0704082 L31.5857143,38.422449 L33.9102041,34.4571429 L42.1142857,37.1918367 C43.6183673,37.6704082 44.7806122,38.9693878 45.122449,40.6102041 L45.8061224,44.1653061 C42.3877551,47.7887755 37.8755102,50.25 32.8163265,51.0704082 Z" id="Shape"></path>
            </g>
        </g>
    </g>
</svg>