<?xml version="1.0" encoding="UTF-8"?>
<svg width="67px" height="67px" viewBox="0 0 67 67" version="1.1" xmlns="http://www.w3.org/2000/svg" xmlns:xlink="http://www.w3.org/1999/xlink">
    <!-- Generator: Sketch 53 (72520) - https://sketchapp.com -->
    <title>p-infoalert</title>
    <desc>Created with Sketch.</desc>
    <g id="p-infoalert" stroke="none" stroke-width="1" fill="none" fill-rule="evenodd">
        <g transform="translate(2.000000, 0.000000)" fill="#2E3B4E" fill-rule="nonzero" id="Group">
            <g>
                <g transform="translate(37.025316, 0.000000)" id="Shape" opacity="0.645089286">
                    <path d="M1.44176582,8.9043 L0.457632911,11.3155556 C0.279911392,11.7518 0.485031646,12.2401556 0.910822785,12.4374333 C7.45912025,15.4747667 11.8273671,21.9834444 12.1768861,29.2246556 C12.1998418,29.6951444 12.573057,30.0696 13.0417975,30.0673667 L15.6343101,30.0532222 C16.1193418,30.0502444 16.5192152,29.6452667 16.498481,29.1576556 C16.1200823,20.2012444 10.709943,12.1396556 2.59029114,8.43381111 C2.14894937,8.23206667 1.6261519,8.45316667 1.44176582,8.9043 Z"></path>
                    <path d="M4.71998734,0.869511111 L3.73733544,3.27853333 C3.55887342,3.71552222 3.76547468,4.20685556 4.19496835,4.39966667 C13.9518797,8.76881111 20.4438987,18.4428667 20.8208165,29.1740333 C20.8371076,29.6460111 21.2132848,30.0227 21.6835063,30.0197222 L24.2737975,30.0055778 C24.7580886,30.0026 25.155,29.5998556 25.1394494,29.1129889 C24.7380949,16.6629 17.2012215,5.43295556 5.86777215,0.396788889 C5.42494937,0.200255556 4.90363291,0.419122222 4.71998734,0.869511111 Z"></path>
                </g>
                <path d="M50.2877848,47.3399667 L45.7262658,42.6313556 L45.7262658,33.9049778 C45.7262658,25.2031667 40.6056646,17.7252222 32.9303165,14.7020333 C32.1601899,11.2180333 29.1107848,8.60875556 25.4778608,8.60875556 C21.8449367,8.60875556 18.7962722,11.2180333 18.0254051,14.7020333 C10.350057,17.7252222 5.2294557,25.2024222 5.2294557,33.9049778 L5.2294557,42.6321 L0.667936709,47.3407111 C0.263620253,47.7576 0.0377658228,48.3166778 0.0377658228,48.8988333 L0.0377658228,55.5467222 C0.0377658228,56.7408111 1.00116456,57.7093333 2.18893671,57.7093333 L16.5406899,57.7093333 C16.5517975,62.4879222 20.7230696,66.6754222 25.4778608,66.6754222 C30.2326519,66.6754222 34.4039241,62.4879222 34.4150316,57.7093333 L48.7667848,57.7093333 C49.954557,57.7093333 50.9179557,56.7408111 50.9179557,55.5467222 L50.9179557,48.8988333 C50.9179557,48.3159333 50.6921013,47.7568556 50.2877848,47.3399667 Z M25.4778608,62.3502 C22.9357025,62.3502 20.8556203,59.9411778 20.8437722,57.7093333 L30.1126899,57.7093333 C30.1008418,59.9404333 28.0207595,62.3502 25.4778608,62.3502 Z M46.6156139,53.3833667 L4.3408481,53.3833667 L4.3408481,49.7482444 L9.53253797,44.3897333 C9.53253797,39.2627444 9.53253797,34.8362778 9.53253797,33.9042333 C9.53253797,26.0198222 14.7242278,19.5416667 22.1403987,17.9641889 C22.1403987,17.1594444 22.1403987,16.5847333 22.1403987,16.4291444 C22.1403987,14.5650556 23.6236329,12.9339778 25.4778608,12.9339778 C27.3320886,12.9339778 28.8153228,14.5650556 28.8153228,16.4291444 C28.8153228,16.5847333 28.8153228,17.1594444 28.8153228,17.9641889 C36.2322342,19.5424111 41.4239241,26.0205667 41.4239241,33.9049778 C41.4239241,35.0700333 41.4239241,39.2634889 41.4239241,44.3904778 L46.6156139,49.7489889 L46.6156139,53.3833667 Z" id="Shape" opacity="0.649330357"></path>
            </g>
        </g>
    </g>
</svg>