<?xml version="1.0" encoding="UTF-8"?>
<svg width="67px" height="55px" viewBox="0 0 67 55" version="1.1" xmlns="http://www.w3.org/2000/svg" xmlns:xlink="http://www.w3.org/1999/xlink">
    <!-- Generator: Sketch 53 (72520) - https://sketchapp.com -->
    <title>p-infopandp</title>
    <desc>Created with Sketch.</desc>
    <g id="Page-1" stroke="none" stroke-width="1" fill="none" fill-rule="evenodd" opacity="0.6453125">
        <g id="5" transform="translate(-986.000000, -1512.000000)" fill="#2E3B4E">
            <g id="p-infopandp" transform="translate(986.000000, 1512.000000)">
                <path d="M63.2504522,31.884058 C64.7526627,30.3828223 65.7939924,29.3428926 65.7939924,29.3428926 C67.4020025,27.7359259 67.4020025,25.1303081 65.7939924,23.5240656 C64.1859822,21.9170989 61.5786724,21.9170989 59.9713869,23.5240656 C59.9713869,23.5240656 58.9336805,24.5610986 57.4285714,26.065231 L63.2504522,31.884058 Z" id="Fill-1"></path>
                <path d="M55.4886162,27.8985507 C52.581407,30.803927 49.0093765,34.3737054 47.174293,36.2068946 C43.7675455,39.6122315 43.8693716,45.4347826 43.8693716,45.4347826 C43.8693716,45.4347826 50.105114,45.1280221 53.1038192,42.1319449 C54.7426292,40.4934307 58.420913,36.817466 61.4166667,33.8236011 L55.4886162,27.8985507 Z" id="Fill-3"></path>
                <path d="M16.8827407,33.9650119 C17.0494432,34.1924428 17.2154483,34.4205037 17.3814534,34.6485646 C17.652781,35.0196361 18.2282187,35.2124169 18.6718288,34.9541159 C19.081959,34.7147149 19.3002766,34.1867728 19.0101165,33.7892412 C18.8441114,33.5611803 18.6774088,33.3331194 18.5107063,33.1050585 C18.2400762,32.7339871 17.665336,32.5412063 17.2210283,32.7995073 C16.8108981,33.0389083 16.5925806,33.5668504 16.8827407,33.9650119" id="Fill-7"></path>
                <path d="M38.2855668,14.3478261 L21.5358618,14.3478261 C20.6544537,14.3478261 19.9404762,13.6343779 19.9404762,12.7536232 C19.9404762,11.8736055 20.6544537,11.1594203 21.5358618,11.1594203 L38.2855668,11.1594203 C39.1662373,11.1594203 39.8809524,11.8736055 39.8809524,12.7536232 C39.8809524,13.6343779 39.1662373,14.3478261 38.2855668,14.3478261" id="Fill-9"></path>
                <path d="M40.6784049,23.115942 L19.1422861,23.115942 C18.261605,23.115942 17.547619,22.4024939 17.547619,21.5217391 C17.547619,20.6417214 18.261605,19.9275362 19.1422861,19.9275362 L40.6784049,19.9275362 C41.5590859,19.9275362 42.2738095,20.6417214 42.2738095,21.5217391 C42.2738095,22.4024939 41.5590859,23.115942 40.6784049,23.115942" id="Fill-11"></path>
                <path d="M57.3214105,44.6622 C56.609623,45.3742667 55.9799365,46.0049333 55.4514104,46.5329333 C54.9712653,47.0132667 54.4500697,47.3872667 53.8995522,47.6659333 L54.6032763,51.0348667 L4.38669891,51.0348667 L13.5556372,3.96513333 L44.7745967,3.96513333 L49.7424488,27.7581333 C50.8222255,26.6786667 51.948184,25.5515333 53.0917356,24.4075333 L48.3254711,1.5774 C48.133413,0.658533333 47.3233973,0 46.3850985,0 L11.9224109,0 C10.9745826,0 10.1587024,0.672466667 9.97764011,1.6038 L0.0368044512,52.6379333 C-0.0768176657,53.2194667 0.0756558847,53.8208 0.452441485,54.2784 C0.82849404,54.7352667 1.39000721,55 1.98157526,55 L57.041387,55 C57.6388194,55 58.2032648,54.7308667 58.5793173,54.2681333 C58.9561029,53.8046667 59.1041782,53.1967333 58.9817595,52.6122667 L57.3214105,44.6622 Z" id="Fill-13"></path>
                <path d="M14.1566013,44.5584669 C15.7301557,43.3335296 17.2806649,42.0804158 18.81317,40.8043159 C18.2334395,42.7551694 18.0678022,44.6993495 20.0381659,44.3256398 C21.423758,44.0631533 22.9375389,42.6254091 24.078996,41.8423984 C24.6508047,41.4501515 25.2226135,41.0749589 25.8045046,40.7316502 C24.8286848,41.7044817 24.1834195,42.7996587 24.953993,44.5903509 C25.3191152,45.4371295 26.4973006,45.0901134 26.7335138,44.3508504 C27.2044999,42.8760319 27.955629,41.5606331 29.0380328,40.474354 C29.567352,39.9427075 30.1629261,39.4570333 30.819714,39.1018608 C32.2773223,38.3121766 31.8805129,38.9342846 31.3994446,40.124372 C30.8571625,41.4672057 29.4859737,44.3567823 31.3648768,45.2851246 C32.054072,45.6254673 32.7483084,45.3370287 33.3064341,44.9032586 C34.5638373,43.9267196 35.5979902,42.2294548 36.6278221,40.9926538 C36.6487068,40.9681847 36.6695915,40.9429741 36.6904762,40.9177635 L35.8788534,38.82232 C35.5065296,39.2694369 35.1327654,39.7172953 34.7604415,40.1651538 C34.1367811,40.9125731 33.2898703,41.6814956 32.7951189,42.5230839 C32.671251,42.5868518 32.5725888,42.6580346 32.4955314,42.7336663 C32.5517041,42.4897169 32.626601,42.2502165 32.7195019,42.0159064 C33.1163113,40.8584445 33.9725841,39.6082967 33.8660001,38.3277479 C33.670116,35.9727837 31.2561323,36.6052725 29.8078862,37.4008886 C29.616323,37.3096856 29.3909123,37.2711283 29.1496579,37.3089441 C26.6730202,37.698225 24.6443233,39.0484737 22.5976223,40.4572998 C22.0985499,40.8006085 21.6023582,41.1483661 21.0924834,41.4761036 C20.9700558,41.5561842 20.8425871,41.6281085 20.717999,41.7052232 C21.1767423,40.448402 21.5505065,39.1374522 21.9782829,37.8850799 C22.329722,36.8588612 21.0269486,36.3220243 20.3514365,36.9100239 C18.0101892,38.9491143 15.6199709,40.9229539 13.1743001,42.8278352 C12.1869578,43.5960162 13.1562961,45.3377702 14.1566013,44.5584669" id="Fill-21"></path>
            </g>
        </g>
    </g>
</svg>