<?xml version="1.0" encoding="UTF-8"?>
<svg width="67px" height="67px" viewBox="0 0 67 67" version="1.1" xmlns="http://www.w3.org/2000/svg" xmlns:xlink="http://www.w3.org/1999/xlink">
    <!-- Generator: Sketch 53 (72520) - https://sketchapp.com -->
    <title>p-prosecutor</title>
    <desc>Created with Sketch.</desc>
    <g id="p-prosecutor" stroke="none" stroke-width="1" fill="none" fill-rule="evenodd" opacity="0.645982143">
        <g transform="translate(0.000000, 3.000000)" fill="#2E3B4E" fill-rule="nonzero" id="Shape">
            <path d="M58.3072826,23.3057223 L58.3072826,12.8251471 L57.8902672,12.8251471 C50.3590261,9.65606988 42.6244165,8.00190148 34.87806,7.82432705 L34.87806,7.01382138 C35.6841921,6.53709668 36.231892,5.66617149 36.231892,4.66188128 C36.231892,3.31496821 34.2921826,0.942397053 33.9045344,0.480408818 L33.5,0 L33.0961998,0.480408818 C32.7078174,0.942397053 30.7695764,3.31496821 30.7695764,4.66188128 C30.7695764,5.66617149 31.3165421,6.53709668 32.12194,7.01382138 L32.12194,7.82506388 C24.3755835,8.0026383 16.6409739,9.65606988 9.10973285,12.8258839 L8.69345153,12.8258839 L8.69345153,23.3064591 L0,23.3064591 L0,23.8738131 C0,27.507089 4.08645817,30.4632242 9.10973285,30.4632242 C14.1330075,30.4632242 18.2194657,27.507089 18.2194657,23.8738131 L18.2194657,23.3064591 L9.52674834,23.3064591 L9.52674834,14.4866837 L9.56345745,14.6340484 C16.9463937,11.5268643 24.5275592,9.90364252 32.1212058,9.7260681 L32.1212058,54.292091 L24.9959675,54.292091 L24.9959675,56.9498128 L17.5924741,56.9498128 L17.5924741,62 L49.4075259,62 L49.4075259,56.9505496 L42.0040325,56.9505496 L42.0040325,54.2928279 L34.87806,54.2928279 L34.87806,9.7260681 C42.4709724,9.90364252 50.0536063,11.5261275 57.4372767,14.6340484 L57.4732517,14.4911046 L57.4732517,23.3057223 L48.7805343,23.3057223 L48.7805343,23.8730762 C48.7805343,27.5063521 52.8669925,30.4624874 57.8902672,30.4624874 C62.9135418,30.4624874 67,27.5063521 67,23.8730762 L67,23.3057223 L58.3072826,23.3057223 Z"></path>
        </g>
    </g>
</svg>