<?xml version="1.0" encoding="UTF-8"?>
<svg width="67px" height="67px" viewBox="0 0 67 67" version="1.1" xmlns="http://www.w3.org/2000/svg" xmlns:xlink="http://www.w3.org/1999/xlink">
    <!-- Generator: Sketch 53 (72520) - https://sketchapp.com -->
    <title>p-publicsafety</title>
    <desc>Created with Sketch.</desc>
    <g id="p-publicsafety" stroke="none" stroke-width="1" fill="none" fill-rule="evenodd" opacity="0.648549107">
        <g transform="translate(5.000000, 0.000000)" fill="#2E3B4E" fill-rule="nonzero" id="Group">
            <g>
                <path d="M54.193016,6.28988955 C54.0797341,5.8934962 53.7873013,5.57260657 53.401349,5.41769413 C53.0160548,5.26278156 52.5774081,5.293374 52.2178003,5.49905482 C51.6902366,5.79911666 39.193468,12.7265601 29.3825792,0.491743216 C28.8714815,-0.146130243 27.7794803,-0.146130243 27.2683875,0.491743216 C17.4588127,12.7298138 4.9607251,5.80041784 4.43579945,5.50035734 C4.07421432,5.29272201 3.63688677,5.26148038 3.25093175,5.41574097 C2.86431848,5.57000288 2.57123014,5.89284568 2.45794564,6.28988955 C-9.68250557,48.7846738 27.381672,66.3418337 27.7577459,66.514317 C27.9375524,66.5969828 28.1318451,66.6379878 28.325482,66.6379878 C28.519119,66.6379878 28.7134142,66.5969828 28.8932182,66.514317 C29.2692922,66.3418337 66.3334678,48.7846738 54.193016,6.28988955 Z M28.3340442,63.8157218 C23.9107126,61.5174225 -4.85806996,44.9743529 4.63799856,8.53807 C8.60424562,10.1841762 19.3806838,13.2915344 28.3254822,3.39016546 C37.2715995,13.2908837 48.0486935,10.186128 52.0136214,8.53807 C61.6381237,45.3642337 32.9740662,61.4777187 28.3340442,63.8157218 Z" id="Shape"></path>
                <path d="M46.6326517,15.9387117 C45.5096907,16.0780027 44.3827856,16.1482989 43.2822198,16.1482989 C39.7151026,16.1482989 34.3552014,15.3926135 29.0749971,11.7925292 C28.6139605,11.4788004 28.004072,11.4788004 27.5430355,11.7925292 C22.2628312,15.3926135 16.9029325,16.1482989 13.3358128,16.1482989 C12.2378851,16.1482989 11.1142684,16.0780027 9.99592275,15.940013 C9.26550417,15.8501904 8.58777974,16.3617924 8.49161951,17.0881868 C5.42637475,40.0711799 20.8507364,52.4270657 27.6247045,56.6728317 C27.8453442,56.8108215 28.0962804,56.8798138 28.3472192,56.8798138 C28.5948617,56.8798138 28.8425042,56.8127734 29.0611692,56.6780368 C35.8483071,52.4934556 51.2937475,40.2586381 48.1376107,17.0836298 C48.0381566,16.3585367 47.3683335,15.8501904 46.6326517,15.9387117 Z M28.3531431,53.9612138 C21.8531644,49.6939668 8.96056231,38.5995128 11.0134977,18.7219246 C11.7926534,18.78376 12.5698317,18.8143523 13.3358125,18.8143523 C17.1136909,18.8143523 22.7093789,18.0482517 28.3090162,14.4911281 C33.908656,18.0482516 39.5043414,18.8143523 43.2822198,18.8143523 C44.0528133,18.8143523 44.8352601,18.7831094 45.6196816,18.7206233 C47.7556074,38.7576823 34.8610282,49.7531996 28.3531431,53.9612138 Z" id="Shape"></path>
                <path d="M36.7361369,28.0082002 L28.1437009,37.7130022 L22.4070701,33.1775858 C21.8274781,32.7180545 20.9778511,32.8098317 20.5115436,33.3858716 C20.0458942,33.9606078 20.1400798,34.7996071 20.7223048,35.2591358 L27.4666348,40.5912428 C27.7149356,40.7878148 28.0119759,40.8834931 28.308358,40.8834931 C28.6844319,40.8834931 29.057873,40.7285819 29.3239612,40.4285188 L38.7660216,29.7643077 C39.256699,29.2097486 39.2000555,28.3681443 38.639565,27.8832308 C38.0790741,27.3989654 37.2268142,27.4555931 36.7361369,28.0082002 Z" id="Shape"></path>
            </g>
        </g>
    </g>
</svg>