<?xml version="1.0" encoding="UTF-8"?>
<svg width="104px" height="97px" viewBox="0 0 104 97" version="1.1" xmlns="http://www.w3.org/2000/svg" xmlns:xlink="http://www.w3.org/1999/xlink">
    <!-- Generator: Sketch 53 (72520) - https://sketchapp.com -->
    <title>support-01</title>
    <desc>Created with Sketch.</desc>
    <defs>
        <linearGradient x1="100%" y1="50%" x2="0%" y2="50%" id="linearGradient-1">
            <stop stop-color="#F19F4D" offset="0%"></stop>
            <stop stop-color="#67BACA" offset="52.2782695%"></stop>
            <stop stop-color="#F9CF00" offset="100%"></stop>
        </linearGradient>
    </defs>
    <g id="support-01" stroke="none" stroke-width="1" fill="none" fill-rule="evenodd">
        <g id="Group-19" fill-rule="nonzero">
            <rect id="Rectangle-23-Copy-6" fill="url(#linearGradient-1)" opacity="0.203125" x="0" y="0" width="96" height="96" rx="48"></rect>
            <g id="noun_contact_1832023-copy" transform="translate(8.000000, 0.000000)" fill="#2E3B4E">
                <path d="M79.3119419,79.8860507 L79.3119419,74.4822566 C79.3119419,73.4894883 78.5025539,72.6846906 77.5041233,72.6846906 C76.5056926,72.6846906 75.6963047,73.4894883 75.6963047,74.4822566 L75.8190578,84.2135244 C75.8173004,84.6900361 76.0106896,85.1467307 76.3547077,85.4784783 C76.6833597,85.8130703 77.1341926,86.0011862 77.6045576,85.9999944 L77.6045576,85.9999944 L87.3913287,85.8779374 C88.3846116,85.8538413 89.1771241,85.0461229 89.1768286,84.0581792 C89.1646091,83.0740883 88.3587891,82.2827304 87.36901,82.2828054 L87.36901,82.2828054 L81.9343948,82.2828054 L82.1910604,82.0054032 C94.5687066,69.3913155 99.0545165,51.075289 93.8955279,34.2148505 C88.7365394,17.3544121 74.7517356,4.62613629 57.4060905,1.0039718 C48.5849302,-0.807667489 39.4317519,-0.158674092 30.9583739,2.87921042 C30.1665025,3.29474179 29.8031958,4.22660242 30.1064778,5.06427464 C30.4097598,5.90194687 31.2870514,6.38972499 32.1635863,6.20803637 C51.9025282,-0.883477253 73.9498509,6.54739589 85.283671,24.1117345 C96.617491,41.6760731 94.2223137,64.7006805 79.5128106,79.5864564 L79.3119419,79.8860507 Z" id="Shape"></path>
                <path d="M64.5778749,94.1699574 C65.2614729,94.0274415 65.7994013,93.4997032 65.9550057,92.818914 C66.1106101,92.1381248 65.8553696,91.4290676 65.3015738,91.0036825 C64.747778,90.5782975 63.9969329,90.5145542 63.379363,90.8404955 C43.7336409,97.9783788 21.7643744,90.5552241 10.47299,72.9640593 C-0.818394516,55.3728945 1.58007762,32.3061595 16.248989,17.4147632 L16.515325,17.137308 L16.515325,22.5532327 C16.5274766,23.5375116 17.3288165,24.3290207 18.313093,24.3289457 L18.313093,24.3289457 C19.3008537,24.3048449 20.0889602,23.4969722 20.0886663,22.5088399 L19.9665956,12.775713 C19.9556973,11.8209214 19.2003986,11.0411969 18.246509,11 L18.246509,11 L8.51414778,11.1109821 C7.52638705,11.1350828 6.73828055,11.9429555 6.73857448,12.9310879 C6.75072604,13.9153668 7.55206598,14.7068759 8.53634245,14.7068009 L8.53634245,14.7068009 L13.9407437,14.7068009 L13.685505,14.984256 C0.156911293,28.8921654 -3.74131385,49.543987 3.78642566,67.4271023 C11.3141652,85.3102175 28.8077514,96.9559281 48.2093085,97 C53.7861424,96.9877453 59.3206132,96.0308632 64.5778749,94.1699574 Z" id="Shape"></path>
                <path d="M24.0052989,69.6783797 C22.936929,70.202516 22.3324765,71.359496 22.5124752,72.5357872 C22.6924739,73.7120784 23.6152548,74.6353731 24.7914781,74.8160591 C25.4104842,74.9122174 26.0364231,74.9566613 26.6628061,74.9489301 C29.9654317,74.8961495 33.1800632,73.8759704 35.9087166,72.0146951 C47.7177988,78.2177892 62.3055899,74.4777759 69.6731933,63.3581693 C77.0407967,52.2385627 74.7975862,37.3474318 64.4811237,28.8915913 C54.1646612,20.4357507 39.122413,21.1589358 29.6647739,30.5654544 C20.2071348,39.9719729 19.4029018,55.0096155 27.8033197,65.3711441 C27.0319095,67.1769706 25.7004055,68.6869942 24.0052989,69.6783797 Z M32.1771336,33.1388494 C40.4154263,24.915572 53.576415,24.3634989 62.4744926,31.8679451 C71.3725702,39.3723913 73.0483755,52.4374955 66.3322936,61.9445726 C59.6162117,71.4516497 46.7419062,74.2387947 36.6948959,68.3607421 C36.4189387,68.1997361 36.106353,68.1120625 35.7869142,68.1060726 C35.3854131,68.0999185 34.9941612,68.2329397 34.6796196,68.4825405 C32.7066904,70.0346063 30.3414651,71.0082653 27.8476114,71.2949771 C29.447955,69.7257115 30.7037409,67.8402086 31.5349027,65.7586846 C31.8011481,65.1360754 31.6940802,64.416602 31.258079,63.8984904 C23.4125303,55.0169 23.814772,41.5688962 32.1771336,33.1720672 L32.1771336,33.1388494 Z" id="Shape"></path>
                <path d="M47.4814815,50 C48.3129571,50.0000618 48.9898601,49.3314138 49,48.5 C48.9972967,48.1032131 48.8374858,47.7236622 48.5555556,47.4444444 C48.2695134,47.1614091 47.8838815,47.0018373 47.4814815,47 C46.6644689,47.0198752 46.0097248,47.6828036 46,48.5 C46.0066314,48.8959696 46.1658439,49.2740993 46.4444444,49.5555556 C46.7191109,49.8330179 47.0911353,49.992457 47.4814815,50 Z" id="Shape"></path>
                <path d="M53.4814865,50 C54.3089049,49.9902718 54.980118,49.3274117 55,48.5003841 C54.9979672,48.101708 54.8342498,47.7209109 54.5462978,47.4450988 C54.2707146,47.1606044 53.8915118,47 53.4953753,47 C53.0992388,47 52.720036,47.1606044 52.4444528,47.4450988 C52.1590119,47.7218586 51.9985517,48.1028552 52.0000099,48.5003841 C52.0016955,48.8972778 52.1616633,49.2771053 52.4444528,49.5556694 C52.7212925,49.829851 53.0919671,49.9886714 53.4814865,50 Z" id="Shape"></path>
                <path d="M40.4814815,50 C40.8782684,49.9972967 41.2578193,49.8374858 41.537037,49.5555556 C41.8224366,49.2770772 41.9884422,48.8985844 42,48.5 C42,47.6715729 41.3284271,47 40.5,47 C39.6715729,47 39,47.6715729 39,48.5 C39.0066314,48.8959696 39.1658439,49.2740993 39.4444444,49.5555556 C39.7179711,49.8346878 40.0907122,49.994434 40.4814815,50 Z" id="Shape"></path>
            </g>
        </g>
    </g>
</svg>