<?xml version="1.0" encoding="UTF-8"?>
<svg width="104px" height="97px" viewBox="0 0 104 97" version="1.1" xmlns="http://www.w3.org/2000/svg" xmlns:xlink="http://www.w3.org/1999/xlink">
    <!-- Generator: Sketch 53 (72520) - https://sketchapp.com -->
    <title>support-02</title>
    <desc>Created with Sketch.</desc>
    <defs>
        <linearGradient x1="100%" y1="50%" x2="0%" y2="50%" id="linearGradient-1">
            <stop stop-color="#F19F4D" offset="0%"></stop>
            <stop stop-color="#67BACA" offset="52.2782695%"></stop>
            <stop stop-color="#F9CF00" offset="100%"></stop>
        </linearGradient>
    </defs>
    <g id="support-02" stroke="none" stroke-width="1" fill="none" fill-rule="evenodd">
        <rect id="Rectangle-23-Copy-6" fill="url(#linearGradient-1)" fill-rule="nonzero" opacity="0.203125" x="0" y="0" width="96" height="96" rx="48"></rect>
        <g id="noun_installation_995495-copy" transform="translate(21.000000, -1.000000)" fill="#2E3B4E" fill-rule="nonzero" stroke="#2D3B4F" stroke-width="0.5">
            <g id="Group">
                <path d="M16.3731487,64.6324627 C22.9150508,70.7365672 31.3897876,74.1608209 40.4592428,74.3097015 C40.756602,74.3097015 41.2026408,74.3097015 41.5,74.3097015 C41.7973592,74.3097015 42.243398,74.3097015 42.5407572,74.3097015 C51.4615328,74.0119403 59.9362696,70.5876866 66.6268513,64.6324627 C74.2095106,57.6350746 78.6698984,47.6600746 78.6698984,37.3873134 C78.6698984,27.1145522 74.3581902,17.1395522 66.6268513,10.1421642 C59.78759,3.8891791 50.8668144,0.316044776 41.5,0.316044776 C32.1331856,0.316044776 23.21241,3.74029851 16.3731487,10.1421642 C8.79048938,16.9906716 4.47878116,26.9656716 4.47878116,37.3873134 C4.47878116,47.6600746 8.79048938,57.6350746 16.3731487,64.6324627 Z M49.5286981,71.183209 C52.6509695,68.5033582 55.3272022,64.3347015 57.2600369,59.2727612 C59.6389104,60.463806 62.0177839,61.9526119 64.0992982,63.8880597 C59.9362696,67.461194 54.8811634,69.9921642 49.5286981,71.183209 Z M64.9913758,62.9947761 C64.9913758,62.9947761 64.8426962,63.1436567 64.8426962,63.1436567 C64.9913758,62.9947761 65.1400554,62.8458955 65.288735,62.6970149 C65.1400554,62.8458955 65.1400554,62.8458955 64.9913758,62.9947761 Z M65.7347738,62.2503731 C63.3559003,60.1660448 60.6796676,58.5283582 58.0034349,57.0395522 C59.78759,51.6798507 60.8283472,45.2779851 60.8283472,38.4294776 L76.1423453,38.4294776 C75.9936657,47.3623134 72.1279963,55.9973881 65.7347738,62.2503731 Z M76.2910249,36.1962687 L60.8283472,36.1962687 C60.6796676,29.3477612 59.6389104,22.9458955 58.0034349,17.586194 C60.8283472,16.2462687 63.3559003,14.4597015 65.7347738,12.3753731 C72.1279963,18.6283582 75.9936657,27.2634328 76.2910249,36.1962687 Z M64.9913758,11.6309701 C65.1400554,11.6309701 65.1400554,11.7798507 64.9913758,11.6309701 C64.9913758,11.6309701 64.8426962,11.6309701 64.8426962,11.4820896 C64.8426962,11.6309701 64.9913758,11.6309701 64.9913758,11.6309701 Z M64.0992982,10.8865672 C62.0177839,12.6731343 59.6389104,14.1619403 57.2600369,15.5018657 C55.3272022,10.2910448 52.6509695,6.12238806 49.5286981,3.59141791 C54.8811634,4.78246269 59.78759,7.16455224 64.0992982,10.8865672 Z M42.6894367,2.54925373 C47.8932225,3.29365672 52.3536103,8.50447761 55.3272022,16.3951493 C51.3128532,18.0328358 47.1498246,19.075 42.6894367,19.2238806 L42.6894367,2.54925373 Z M42.6894367,21.4570896 C47.2985042,21.308209 51.758892,20.2660448 56.0706002,18.4794776 C57.7060757,23.6902985 58.7468329,29.6455224 58.7468329,36.1962687 L42.6894367,36.1962687 L42.6894367,21.4570896 Z M42.6894367,38.4294776 L58.5981533,38.4294776 C58.4494737,44.9802239 57.5573961,51.0843284 55.9219206,56.1462687 C51.758892,54.3597015 47.2985042,53.3175373 42.5407572,53.1686567 L42.5407572,38.4294776 L42.6894367,38.4294776 Z M42.6894367,55.4018657 C47.001145,55.5507463 51.3128532,56.4440299 55.3272022,58.230597 C52.3536103,66.1212687 47.8932225,71.3320896 42.6894367,72.0764925 L42.6894367,55.4018657 Z M18.9007018,63.7391791 C20.9822161,61.9526119 23.3610896,60.463806 25.7399631,59.1238806 C27.6727978,64.3347015 30.3490305,68.5033582 33.4713019,71.0343284 C28.1188366,69.9921642 23.0637304,67.461194 18.9007018,63.7391791 Z M40.4592428,72.0764925 C35.2554571,71.3320896 30.7950693,66.1212687 27.8214774,58.230597 C31.8358264,56.5929104 35.998855,55.5507463 40.4592428,55.4018657 L40.4592428,72.0764925 Z M40.4592428,53.1686567 C35.8501754,53.3175373 31.3897876,54.3597015 27.0780794,56.1462687 C25.4426039,50.9354478 24.4018467,44.9802239 24.4018467,38.4294776 L40.4592428,38.4294776 L40.4592428,53.1686567 Z M40.4592428,36.1962687 L24.4018467,36.1962687 C24.5505263,29.6455224 25.4426039,23.5414179 27.0780794,18.4794776 C31.241108,20.2660448 35.7014958,21.308209 40.4592428,21.4570896 L40.4592428,36.1962687 Z M40.4592428,2.54925373 L40.4592428,19.2238806 C36.1475346,19.075 31.8358264,18.1817164 27.8214774,16.3951493 C30.6463897,8.50447761 35.2554571,3.29365672 40.4592428,2.54925373 Z M33.4713019,3.44253731 C30.3490305,6.12238806 27.6727978,10.2910448 25.7399631,15.3529851 C23.3610896,14.1619403 20.9822161,12.6731343 18.9007018,10.7376866 C23.21241,7.16455224 28.1188366,4.63358209 33.4713019,3.44253731 Z M17.2652262,12.3753731 C19.6440997,14.4597015 22.3203324,16.0973881 24.9965651,17.586194 C23.21241,22.9458955 22.1716528,29.3477612 22.1716528,36.1962687 L6.70897507,36.1962687 C7.00633426,27.2634328 10.8720037,18.6283582 17.2652262,12.3753731 Z M22.1716528,38.4294776 C22.3203324,45.2779851 23.3610896,51.6798507 24.9965651,57.0395522 C22.1716528,58.3794776 19.6440997,60.1660448 17.2652262,62.2503731 C10.8720037,55.9973881 7.00633426,47.3623134 6.70897507,38.4294776 L22.1716528,38.4294776 Z" id="Shape"></path>
                <path d="M72.1279963,85.0291045 L75.2502678,81.3070896 L82.8329271,81.3070896 L82.0895291,79.669403 C80.1566944,75.0541045 75.547627,72.0764925 70.4925208,72.0764925 C66.032133,72.0764925 61.8691043,74.4585821 59.4902308,78.180597 L23.5097692,78.180597 C21.1308957,74.4585821 16.967867,72.0764925 12.5074792,72.0764925 C7.45237304,72.0764925 2.84330563,75.0541045 0.76179132,79.669403 L0.0183933518,81.3070896 L7.60105263,81.3070896 L10.7233241,85.0291045 L7.60105263,88.7511194 L0.167072946,88.7511194 L0.910470914,90.388806 C2.99198523,94.8552239 7.60105263,97.6839552 12.5074792,97.6839552 C16.967867,97.6839552 21.1308957,95.3018657 23.5097692,91.5798507 L59.6389104,91.5798507 C62.0177839,95.4507463 66.032133,97.6839552 70.6412004,97.6839552 C75.547627,97.6839552 80.1566944,94.8552239 82.2382087,90.388806 L82.9816066,88.7511194 L75.3989474,88.7511194 L72.1279963,85.0291045 Z M70.4925208,95.4507463 C66.6268513,95.4507463 63.0585411,93.3664179 61.1257064,89.9421642 L60.8283472,89.3466418 L22.1716528,89.3466418 L21.8742936,89.9421642 C20.0901385,93.3664179 16.5218283,95.4507463 12.5074792,95.4507463 C9.08784857,95.4507463 5.81689751,93.8130597 3.88406279,90.9843284 L8.79048938,90.9843284 L13.8455956,85.0291045 L8.79048938,79.0738806 L3.73538319,79.0738806 C5.66821791,76.0962687 8.93916898,74.3097015 12.5074792,74.3097015 C16.3731487,74.3097015 19.9414589,76.3940299 21.8742936,79.8182836 L22.1716528,80.413806 L60.8283472,80.413806 L61.1257064,79.8182836 C62.9098615,76.3940299 66.4781717,74.3097015 70.4925208,74.3097015 C74.060831,74.3097015 77.3317821,76.0962687 79.2646168,79.0738806 L74.2095106,79.0738806 L69.1544044,85.0291045 L74.2095106,90.9843284 L79.1159372,90.9843284 C77.1831025,93.8130597 73.9121514,95.4507463 70.4925208,95.4507463 Z" id="Shape"></path>
            </g>
        </g>
    </g>
</svg>