<?xml version="1.0" encoding="UTF-8"?>
<svg width="94px" height="92px" viewBox="0 0 94 92" version="1.1" xmlns="http://www.w3.org/2000/svg" xmlns:xlink="http://www.w3.org/1999/xlink">
    <!-- Generator: Sketch 53 (72520) - https://sketchapp.com -->
    <title>value-04</title>
    <desc>Created with Sketch.</desc>
    <defs>
        <linearGradient x1="100%" y1="50%" x2="0%" y2="50%" id="linearGradient-1">
            <stop stop-color="#F19F4D" offset="0%"></stop>
            <stop stop-color="#67BACA" offset="52.2782695%"></stop>
            <stop stop-color="#F9CF00" offset="100%"></stop>
        </linearGradient>
    </defs>
    <g id="Symbols" stroke="none" stroke-width="1" fill="none" fill-rule="evenodd">
        <g id="value-04" fill-rule="nonzero">
            <g id="Group-20">
                <rect id="Rectangle-23-Copy-6" fill="url(#linearGradient-1)" opacity="0.203125" x="0" y="0" width="80" height="80" rx="40"></rect>
                <g id="noun_Idea_1034224" transform="translate(12.000000, 13.000000)" fill="#2E3B4E" stroke="#2E3B4E" stroke-width="0.4">
                    <path d="M37.9483065,0.00445641465 C37.906074,0.0121717846 37.8643824,0.0226051961 37.8234912,0.0356917078 C37.3585506,0.139920895 37.0319263,0.558421554 37.0433954,1.03522109 L37.0433954,9.03145615 C37.0383026,9.39192234 37.2274983,9.72720992 37.5385357,9.90893072 C37.849573,10.0906515 38.2342631,10.0906515 38.5453004,9.90893072 C38.8563378,9.72720992 39.0455334,9.39192234 39.0404407,9.03145615 L39.0404407,1.03522109 C39.0506731,0.747690699 38.936645,0.469688588 38.7275191,0.272313924 C38.5183932,0.0749392593 38.2344494,-0.0226675746 37.9483065,0.00445641465 L37.9483065,0.00445641465 Z M11.7994948,10.8431031 C11.4108155,10.8809681 11.0798481,11.142149 10.9523369,11.5116327 C10.8248256,11.8811164 10.9241696,12.2911001 11.206622,12.5610443 L16.8545157,18.2146323 C17.0944412,18.5126666 17.483314,18.6473947 17.8559561,18.5615894 C18.2285983,18.4757841 18.5195769,18.1845121 18.6052958,17.8114943 C18.6910147,17.4384764 18.5564223,17.0492116 18.2586881,16.8090441 L12.6107944,11.1554561 C12.4239813,10.9579341 12.1648255,10.8451441 11.8931063,10.8431031 C11.8619196,10.8416383 11.8306815,10.8416383 11.7994948,10.8431031 L11.7994948,10.8431031 Z M64.0659145,10.8431031 C63.8382544,10.8757748 63.6288378,10.9861052 63.4730417,11.1554561 L57.8251479,16.8090441 C57.5274138,17.0492116 57.3928214,17.4384764 57.4785403,17.8114943 C57.5642592,18.1845121 57.8552378,18.4757841 58.22788,18.5615894 C58.6005221,18.6473947 58.9893949,18.5126666 59.2293204,18.2146323 L64.8772141,12.5610443 C65.1728334,12.2748808 65.262978,11.8365739 65.1043204,11.4567929 C64.9456628,11.0770119 64.5706487,10.833422 64.159526,10.8431031 C64.1283393,10.8416383 64.0971012,10.8416383 64.0659145,10.8431031 L64.0659145,10.8431031 Z M38.041918,16.0281618 C25.8923678,16.0281618 16.0120122,25.9184791 16.0120122,38.0802788 C16.0120122,45.8297211 20.0739124,52.5814681 26.122054,56.5091018 L29.0552142,75.1565718 C29.1327029,75.6468691 29.5578787,76.0059728 30.0537369,75.9999247 L46.0300992,75.9999247 C46.5259574,76.0059728 46.9511332,75.6468691 47.0286218,75.1565718 L49.9617821,56.5091018 C56.0099236,52.5814681 60.0718239,45.8297211 60.0718239,38.0802788 C60.0718239,25.9184791 50.1914683,16.0281618 38.041918,16.0281618 Z M38.041918,18.0272206 C49.110933,18.0272206 58.0747786,27.0001038 58.0747786,38.0802788 C58.0747786,45.3120228 54.2257354,51.638713 48.495202,55.1659842 C48.2468763,55.3161149 48.0760446,55.5669208 48.0271445,55.8531606 L46.5917682,65.0051015 L39.0404407,65.0051015 L39.0404407,42.4219846 L45.7804685,35.6751612 C46.0024361,35.4806534 46.1271316,35.1978577 46.1211124,34.9026189 C46.1150932,34.6073801 45.9789752,34.3299125 45.7492647,34.1446319 C45.3397179,33.8048485 44.7359795,33.846054 44.3762961,34.2383377 L38.0107142,40.6103376 L31.6763362,34.2383377 C31.279968,33.8501953 30.6443133,33.8571875 30.2565618,34.2539554 C29.8688103,34.6507232 29.8757955,35.2870188 30.2721637,35.6751612 L37.0433954,42.4532199 L37.0433954,65.0051015 L29.4920679,65.0051015 L28.0566916,55.8531606 C28.0077915,55.5669208 27.8369598,55.3161149 27.5886341,55.1659842 C21.8581007,51.638713 18.0090575,45.3120228 18.0090575,38.0802788 C18.0090575,27.0001038 26.9729031,18.0272206 38.041918,18.0272206 Z M0.909357187,37.0182788 C0.357888371,37.0700312 -0.0472541317,37.5594893 0.00444606992,38.1115141 C0.0561462716,38.6635389 0.545111364,39.0690899 1.09658018,39.0173376 L9.08476134,39.0173376 C9.44486447,39.0224355 9.77981435,38.8330491 9.96135211,38.5216981 C10.1428899,38.2103472 10.1428899,37.8252693 9.96135211,37.5139183 C9.77981435,37.2025674 9.44486447,37.0131809 9.08476134,37.0182788 L1.09658018,37.0182788 C1.06539351,37.016814 1.03415536,37.016814 1.00296869,37.0182788 C0.971781974,37.0168155 0.940543898,37.0168155 0.909357187,37.0182788 Z M66.8118518,37.0182788 C66.2603829,37.0700312 65.8552404,37.5594893 65.9069406,38.1115141 C65.9586408,38.6635389 66.4476059,39.0690899 66.9990747,39.0173376 L74.9872559,39.0173376 C75.347359,39.0224355 75.6823089,38.8330491 75.8638467,38.5216981 C76.0453844,38.2103472 76.0453844,37.8252693 75.8638467,37.5139183 C75.6823089,37.2025674 75.347359,37.0131809 74.9872559,37.0182788 L66.9990747,37.0182788 C66.9678881,37.016814 66.9366499,37.016814 66.9054632,37.0182788 C66.8742765,37.0168155 66.8430385,37.0168155 66.8118518,37.0182788 Z M17.4473885,57.5086312 C17.2197284,57.5413028 17.0103118,57.6516332 16.8545157,57.8209841 L11.206622,63.4745722 C10.9088878,63.7147396 10.7742954,64.1040045 10.8600143,64.4770223 C10.9457332,64.8500401 11.2367119,65.1413121 11.609354,65.2271174 C11.9819961,65.3129228 12.3708689,65.1781947 12.6107944,64.8801604 L18.2586881,59.2265723 C18.57246,58.9294425 18.6598351,58.4640615 18.4752382,58.0731743 C18.2906413,57.6822872 17.8759174,57.4545014 17.4473885,57.5086312 Z M58.3244093,57.5086312 C57.9518511,57.5762894 57.6495636,57.8490444 57.5437983,58.212979 C57.438033,58.5769136 57.5469842,58.9694223 57.8251479,59.2265723 L63.4730417,64.8801604 C63.7129672,65.1781947 64.10184,65.3129228 64.4744821,65.2271174 C64.8471242,65.1413121 65.1381029,64.8500401 65.2238218,64.4770223 C65.3095406,64.1040045 65.1749483,63.7147396 64.8772141,63.4745722 L59.2293204,57.8209841 C59.0207146,57.5983317 58.721912,57.4832918 58.4180208,57.5086312 C58.3868341,57.5071664 58.3555959,57.5071664 58.3244093,57.5086312 Z M29.8353101,67.0041603 L46.248526,67.0041603 L45.1563919,74.000866 L30.9274442,74.000866 L29.8353101,67.0041603 Z" id="Shape"></path>
                </g>
            </g>
        </g>
    </g>
</svg>