<?xml version="1.0" encoding="UTF-8"?>
<svg width="94px" height="92px" viewBox="0 0 94 92" version="1.1" xmlns="http://www.w3.org/2000/svg" xmlns:xlink="http://www.w3.org/1999/xlink">
    <!-- Generator: Sketch 53 (72520) - https://sketchapp.com -->
    <title>value-01</title>
    <desc>Created with Sketch.</desc>
    <defs>
        <linearGradient x1="50%" y1="2.63030995%" x2="50%" y2="100%" id="linearGradient-1">
            <stop stop-color="#F9CF00" offset="0%"></stop>
            <stop stop-color="#67BACA" offset="50.4470737%"></stop>
            <stop stop-color="#F19F4D" offset="100%"></stop>
        </linearGradient>
    </defs>
    <g id="Symbols" stroke="none" stroke-width="1" fill="none" fill-rule="evenodd">
        <g id="value-01" fill-rule="nonzero">
            <g id="Group-6">
                <rect id="Rectangle-23-Copy-2" fill="url(#linearGradient-1)" opacity="0.202120536" x="0" y="0" width="80" height="80" rx="40"></rect>
                <g id="noun_hand-shake_244918" transform="translate(8.000000, 17.000000)" fill="#2E3B4E" stroke="#2D3B4F" stroke-width="0.7">
                    <path d="M59.1471348,5.38072443 C58.3682952,6.16670086 58.1308709,7.2843999 58.4088332,8.28560527 C57.9859541,8.39117757 57.5692306,8.51743814 57.1731718,8.68658471 L42.3022343,14.9248508 C42.2557168,14.894218 42.2140356,14.8577249 42.1595159,14.8380134 L27.3822292,9.52477004 C27.1026841,9.40525761 26.8152249,9.30448002 26.5238086,9.21657711 C26.9105463,8.16103177 26.6915884,6.92817102 25.8528652,6.08181684 L21.3576323,1.54211923 C20.2447281,0.418382539 18.3045321,0.42122381 17.1944417,1.54211923 L0.861058695,18.0359038 C-0.287019565,19.1944465 -0.287019565,21.0803637 0.861058695,22.2389066 L5.3562916,26.7778938 C5.91204029,27.3390519 6.65069356,27.6487543 7.4371834,27.6487543 C7.83966149,27.6487543 8.22859763,27.565291 8.58789977,27.4108836 C8.37281095,30.4818033 8.93172534,33.5503256 10.2314034,36.3616208 L10.4948564,36.9209142 C9.78161618,37.8015417 9.37456551,38.8812382 9.37456551,40.0340095 C9.37456551,41.3566377 9.88388451,42.6004197 10.8110703,43.5359199 C11.7312213,44.4657375 12.9533407,44.9777942 14.2556567,44.9840983 L13.6292083,45.6164666 C12.7034296,46.5512565 12.1927036,47.7950385 12.1927036,49.1176667 C12.1927036,50.4402949 12.7034296,51.6840769 13.6292083,52.6188667 C14.5563941,53.5543669 15.7874829,54.0693537 17.0973615,54.0693537 C17.5041483,54.0693537 17.8976572,54.0032933 18.2822844,53.907044 C17.8902706,55.5325377 18.3047957,57.3172334 19.559539,58.5841898 C20.4867248,59.51969 21.7178136,60.0346768 23.0276921,60.0346768 C24.1616128,60.0346768 25.2236908,59.6285475 26.093455,58.9180433 C26.0933672,58.927544 26.0906412,58.9362454 26.0906412,58.9457461 C26.0906412,61.6762417 28.2911246,63.8974331 30.9952991,63.8974331 C31.8218873,63.8974331 32.5892953,63.6703062 33.2731651,63.3041328 L34.538021,64.5807674 C35.4426954,65.4942475 36.6400172,65.9978691 37.9105008,66 C37.9133147,66 37.9147217,66 37.9175356,66 C39.1852053,66 40.3797133,65.49993 41.2787598,64.5921327 C42.1693647,63.6942798 42.6646141,62.5066136 42.6772767,61.2429425 L43.6607408,62.2359792 C45.4869731,64.0814078 48.3810871,64.2398106 50.2537491,62.6025077 C51.2934915,61.6890276 51.8984838,60.3898402 51.9209951,59.0210407 L52.1798755,59.2831513 C54.0300262,61.1498897 56.9452445,61.3161061 58.8207204,59.6624657 C59.8618697,58.7440133 60.4598272,57.4149922 60.4598272,56.016359 C60.4598272,55.9993111 60.4598272,55.9829737 60.4598272,55.9659258 C62.0693879,57.0861108 64.1882676,57.1997631 65.7950144,56.1648173 C67.1836826,55.2726471 68.0123812,53.7482861 68.0123812,52.0797288 C67.9997185,50.7904859 67.5030622,49.5857719 66.6138643,48.687919 L65.6892287,47.7542834 C69.3416054,43.9422266 72.473935,39.5151158 74.3197769,35.5241456 C75.6392402,32.6684549 76.1838211,29.5658369 75.9443744,26.4576252 C76.4207178,26.7759403 76.9782252,26.9483721 77.5628166,26.9483721 C78.3493064,26.9483721 79.0879599,26.6386697 79.6437084,26.0775117 L84.1389413,21.537814 C85.2870196,20.3792713 85.2870196,18.4933541 84.1389413,17.3348112 L67.8055583,0.841737181 C66.6954679,-0.279868594 64.7538649,-0.281289302 63.6423677,0.841737181 L59.1471348,5.38072443 Z M6.3749296,25.7493408 L1.87969669,21.2103535 C1.29440189,20.6186514 1.29440189,19.6561588 1.87969669,19.0644567 L18.2130797,2.57067213 C18.4972853,2.28441056 18.8743503,2.12671796 19.2767404,2.12671796 C19.6777236,2.12671796 20.0547886,2.28441042 20.3389942,2.57067213 L24.8342271,7.11036974 C25.4195219,7.70207186 25.4195219,8.66456447 24.8342271,9.25626659 L8.49943719,25.7493408 C7.93102597,26.3218641 6.94334096,26.3218641 6.3749296,25.7493408 Z M11.8297084,42.507367 C11.1754726,41.8467631 10.8152912,40.9680891 10.8152912,40.0340096 C10.8152912,39.0999302 11.1754726,38.2219663 11.8297084,37.5613626 L12.9046249,36.4752733 C13.5588607,35.8146694 14.4297681,35.4509822 15.3541399,35.4509822 C16.2785116,35.4509822 17.1494192,35.8146694 17.8036549,36.4752733 C19.1543352,37.8383901 19.1543352,40.0574504 17.8036549,41.4205674 L16.8823608,42.3508289 C16.8526388,42.3792419 16.8168493,42.3985096 16.7878308,42.4278105 L16.6327136,42.5843488 C15.3107879,43.8200505 13.1077544,43.7978528 11.8297084,42.507367 Z M14.6478466,51.5903137 C13.9936108,50.9297098 13.6334294,50.0517462 13.6334294,49.1176667 C13.6334294,48.1835872 13.9936108,47.3056234 14.6478466,46.6450197 L17.642734,43.6216919 C17.6753578,43.5904375 17.7140492,43.5682398 17.7459697,43.5359199 L17.9091768,43.3711242 C18.5511897,42.7703654 19.3752277,42.4320724 20.2559838,42.4320724 C21.1803556,42.4320724 22.0498561,42.7957596 22.7040919,43.4563634 C23.3583277,44.1169673 23.7185091,44.994931 23.7185091,45.9290104 C23.7185091,46.8630899 23.3583277,47.7410537 22.7040919,48.4016574 L19.5468767,51.5903137 C18.2384049,52.9108108 15.9563181,52.9122315 14.6478466,51.5903137 Z M25.4772073,57.5556367 C24.1687357,58.8768443 21.8866488,58.8768443 20.5781773,57.5556367 C19.228904,56.1918096 19.228904,53.9734596 20.5781773,52.6096324 L23.0431688,50.1220686 C23.6974047,49.4614647 24.5669051,49.0977775 25.491277,49.0977775 C26.4170557,49.0977775 27.2865563,49.4614647 27.9407919,50.1220686 C29.2914723,51.4851854 29.2914723,53.7042458 27.9407919,55.0680729 L27.7466317,55.264123 C27.6060238,55.39065 27.4744731,55.5234811 27.3491659,55.6654576 L25.4772073,57.5556367 Z M27.531367,58.945746 C27.531367,58.0867835 27.8513621,57.309331 28.3620002,56.6998708 L28.7709855,56.2869046 C29.3744828,55.7712962 30.144353,55.4480977 30.9952992,55.4480977 C32.9045421,55.4480977 34.4578244,57.0172093 34.4578244,58.9457461 C34.4578244,60.874283 32.9045421,62.4426842 30.9952992,62.4426842 C29.0846493,62.442684 27.531367,60.8742828 27.531367,58.945746 Z M65.0211871,54.9373729 C63.7267851,55.7698757 61.9300989,55.5155787 60.7566955,54.3300436 L59.0613103,52.6181564 C59.0390628,52.5956923 59.0101321,52.586458 58.9858621,52.5675457 L51.823915,45.336598 C51.5425233,45.0524673 51.0866686,45.0524673 50.805277,45.336598 C50.5238854,45.6207286 50.5238853,46.0810204 50.805277,46.3651509 L58.052521,53.6822257 C58.0650077,53.694834 58.0816274,53.6990959 58.0947298,53.7105499 C58.6882026,54.338745 59.0191017,55.1519802 59.0191017,56.016359 C59.0191017,57.0093957 58.6124905,57.9150622 57.8724304,58.567142 C56.5681798,59.7171608 54.5126132,59.5814884 53.1985138,58.2545982 L50.5224784,55.5518053 C50.4605722,55.4892965 50.3877621,55.4460554 50.3126657,55.4110719 C50.2774917,55.3249448 50.2260498,55.2439675 50.1566691,55.1739116 L45.1633729,50.1334337 C44.8819811,49.849303 44.4261264,49.849303 44.1447349,50.1334337 C43.8633433,50.4175643 43.8633431,50.877856 44.1447349,51.1619866 L49.1380311,56.2024645 C49.1999373,56.2649733 49.2727474,56.3082144 49.3478438,56.3431979 C49.3830179,56.429325 49.4344597,56.5103023 49.5038404,56.5803582 L49.5094682,56.5860407 C50.127123,57.2132591 50.471828,58.0542859 50.4802696,58.9500078 C50.4802696,59.9338102 50.0638099,60.8408973 49.308273,61.5043424 C48.0068363,62.6465476 45.972374,62.5137167 44.6793791,61.2074259 L41.27876,57.7744172 L38.7040256,55.1739113 C38.4226339,54.8897806 37.9667792,54.8897806 37.6853876,55.1739113 C37.403996,55.4580419 37.4039959,55.9183337 37.6853876,56.2024642 L40.260122,58.8029701 C40.8904394,59.4387124 41.2365513,60.2875527 41.2365513,61.1932192 C41.2365513,62.0868101 40.8904394,62.9278369 40.260122,63.5628688 C39.6312115,64.1971906 38.8278381,64.533175 37.913315,64.5452506 C37.0255242,64.5438299 36.1897906,64.1915079 35.5566593,63.5522139 L34.4605506,62.4458803 C35.3486052,61.5491817 35.8985502,60.3111712 35.8985502,58.9457457 C35.8985502,56.2152501 33.6994738,53.9933483 30.9952993,53.9933483 C30.7044985,53.9933483 30.4231068,54.030818 30.146024,54.0800969 C30.6759199,52.3754017 30.2948099,50.4418927 28.9594302,49.0935151 C27.8671906,47.9898451 26.2964972,47.5545036 24.8103092,47.7527735 C25.0352467,47.1792735 25.1592349,46.5643971 25.1592349,45.9290099 C25.1592349,44.6063816 24.6499159,43.3625996 23.7227302,42.4278098 C22.6768323,41.3705774 21.1925788,40.9328386 19.7634606,41.0701092 C20.6291798,39.2307184 20.3280028,36.9670849 18.8222932,35.4467195 C16.9679216,33.5757191 13.7403584,33.5757191 11.885987,35.4467195 L11.5535052,35.7827039 L11.5356544,35.7450566 C10.1680906,32.7844153 9.69113169,29.5126507 10.156835,26.2827955 C10.1637819,26.2338717 10.1516468,26.1884108 10.1490089,26.1409077 L25.6480654,10.4916126 C26.04984,10.5823568 26.4467782,10.7047994 26.8588413,10.8800725 L40.3648529,15.7375525 L30.6646645,19.8067474 C30.4803529,19.886304 30.3016692,19.9772258 30.1947402,20.0439965 C30.1778567,20.0525204 30.0484165,20.1128982 30.03294,20.1221324 C29.2562988,20.5568522 28.6105048,21.1982772 28.1659059,21.9767952 L25.9330625,25.882171 C25.2774198,27.0272176 25.1029569,28.3619213 25.442034,29.6397989 C25.781111,30.9176766 26.5929261,31.9852975 27.7269348,32.6466116 C30.0624862,34.0068871 33.0649359,33.199956 34.4198371,30.8445129 L35.887295,28.2937299 C36.0026656,28.0919971 36.1855701,27.9321736 36.399428,27.8440932 L41.5235714,25.7450779 L55.5002987,39.5239941 L65.5952269,49.7164712 C66.2156957,50.3436895 66.5632145,51.188268 66.5716563,52.0868311 C66.5716555,53.248216 65.9919887,54.313706 65.0211871,54.9373729 Z M73.0141192,34.9090028 C71.236339,38.7539122 68.207333,43.0296345 64.6704148,46.7255528 L56.5133082,38.4890491 L42.1932831,24.3713071 C41.9878671,24.1695743 41.682557,24.1127482 41.4194558,24.2178765 L35.8577482,26.4966043 C35.3484292,26.7054404 34.9150858,27.0847548 34.6407289,27.5635149 L33.173271,30.1142979 C32.2179461,31.7778829 30.0976594,32.3489855 28.4472969,31.3864929 C27.6467374,30.9198082 27.0741053,30.1654413 26.8335153,29.2633265 C26.5943324,28.3605013 26.7181448,27.4186082 27.1796272,26.6095461 L29.4124706,22.7041702 C29.7276293,22.153667 30.1834839,21.7004787 30.6815473,21.4198997 C30.7026517,21.4099551 30.8363128,21.346736 30.8574171,21.3346604 C30.9770086,21.2643381 31.102228,21.2004086 31.2246333,21.1471342 L57.7303273,10.0283913 C58.1875889,9.83287394 58.6700877,9.69080854 59.1627871,9.59953162 L74.3167871,24.9010332 C74.3185458,24.9175482 74.3126541,24.9329091 74.315556,24.949513 C74.9064787,28.3413227 74.4562519,31.7856966 73.0141192,34.9090028 Z M65.7232595,1.42633591 C66.1256497,1.42633591 66.5027145,1.58402837 66.7869201,1.87029008 L83.1203032,18.3633643 C83.705598,18.9550664 83.705598,19.917559 83.1203032,20.5092611 L78.6250703,25.0489587 C78.056659,25.621482 77.068974,25.621482 76.5005627,25.0489587 L60.1657729,8.55517418 C59.5804781,7.96347206 59.5804781,7.00097946 60.1657729,6.40927734 L64.6610058,1.87029008 C64.9452114,1.58402851 65.3222763,1.42633591 65.7232595,1.42633591 Z" id="Shape"></path>
                </g>
            </g>
        </g>
    </g>
</svg>